<svg id="a2439ead-d38d-46cb-a913-918c82ddee8f" data-name="Layer 1" xmlns="http://www.w3.org/2000/svg" xmlns:xlink="http://www.w3.org/1999/xlink" viewBox="0 0 377.82 103.44">
  <defs>
    <clipPath id="af053ecd-c457-455f-9f40-8d6e90e98d89" transform="translate(-1 0.28)">
      <rect y="-0.28" width="380.83" height="105.28" fill="none"/>
    </clipPath>
  </defs>
  <title>lappari_ala</title>
  <g clip-path="url(#af053ecd-c457-455f-9f40-8d6e90e98d89)">
    <path d="M212.09-.28C171.61-.28,130.25,3.28,96.29,10c-51.35,10.15-90.76,30.1-95,52.26C-.34,71,4.25,80.6,20.82,86.67c10.35,3.79,24.27,5.81,38.19,7,42.4,3.73,87,.91,129.89,3.69,27.18,1.76,54,5.77,81.23,5.77,4.14,0,8.29-.09,12.44-.3,47.82-2.39,83-19.91,92.47-38.1,23.6-45.14-67.22-65-163-65" transform="translate(-1 0.28)" fill="#c7eafb"/>
    <path d="M113.6-.28V3.31c0,5.38,5.38,5.38,5.38,5.38h177c5.38,0,5.38-5.38,5.38-5.38V-.28H113.6Z" transform="translate(-1 0.28)" fill="#b9b9b9"/>
  </g>
  <polygon points="322.44 39.3 295.69 8.97 117.24 8.97 87.49 39.3 322.44 39.3" fill="#d3d3d3"/>
  <polygon points="303.16 26.9 291.2 11.66 120.67 11.66 106.77 26.9 303.16 26.9" fill="#b9b9b9"/>
  <g clip-path="url(#af053ecd-c457-455f-9f40-8d6e90e98d89)">
    <path d="M118.29-.28c.57,4.49,5.33,4.49,5.33,4.49H291.31a5,5,0,0,0,5.28-4.49H118.29Z" transform="translate(-1 0.28)" fill="#4a4a4a"/>
    <path d="M323.44,39v4.43a2,2,0,0,1-2,2H90.49a2,2,0,0,1-2-2V39Z" transform="translate(-1 0.28)" fill="#a7a7a7"/>
  </g>
  <polygon points="228.28 31.39 181.65 31.39 178.06 35.87 230.97 35.87 228.28 31.39" fill="#a7a7a7"/>
</svg>
