<svg id="e9685a92-eab2-45c1-b81f-73780f2ff868" data-name="Layer 1" xmlns="http://www.w3.org/2000/svg" xmlns:xlink="http://www.w3.org/1999/xlink" viewBox="0 0 187.72 115.68">
  <defs>
    <clipPath id="ad09c186-ae3e-4c65-95ea-81a83a801000" transform="translate(-1 -4.32)">
      <rect x="1" y="4.32" width="187.72" height="115.68" fill="none"/>
    </clipPath>
  </defs>
  <title>lappari_yla</title>
  <g clip-path="url(#ad09c186-ae3e-4c65-95ea-81a83a801000)">
    <path d="M188.72,120V9.7c0-5.38-5.38-5.38-5.38-5.38H6.38C1,4.32,1,9.7,1,9.7V120h9.57V13.29H179.15V120Z" transform="translate(-1 -4.32)" fill="#b9b9b9"/>
    <path d="M184,120a7.1,7.1,0,0,0,.1-.9V14.18c0-5.38-5.38-5.38-5.38-5.38H11c-5.38,0-5.38,5.38-5.38,5.38V119.1a8.32,8.32,0,0,0,.06.9h4.88V13.29H179.15V120Z" transform="translate(-1 -4.32)" fill="#4a4a4a"/>
  </g>
</svg>
