<svg id="a9f52ea1-9201-42bb-8a91-dd37ea175633" data-name="Layer 1" xmlns="http://www.w3.org/2000/svg" viewBox="0 0 53.37 53.37">
  <title>maapallo</title>
  <path d="M53.12,51.14,55,46.55a18.1,18.1,0,0,0,12.71-1,18.27,18.27,0,0,1,.52,11.66Zm5,17.7a18.09,18.09,0,0,0-8.53-9l2-4.89,15,6a18.36,18.36,0,0,1-8.46,7.84M48.07,63.73a14.14,14.14,0,0,1,6.11,6.42,18.32,18.32,0,0,1-8.57-.28Zm-3.85-1.51-2.45,6.1a18.29,18.29,0,0,1-6.26-5.53,13.92,13.92,0,0,1,8.71-.57m3.52-8.78-2,4.92a18.26,18.26,0,0,0-12.26.8,18.28,18.28,0,0,1-.79-11.75ZM51.11,45,49.28,49.6,34.21,43.55a18.31,18.31,0,0,1,8.19-7.94A18,18,0,0,0,51.11,45m1.56-3.87a13.89,13.89,0,0,1-6.34-7,18.47,18.47,0,0,1,9.07.17Zm6.56-5.25a18.43,18.43,0,0,1,6.55,5.95,13.8,13.8,0,0,1-9.26.81Zm1.21-8.57A26.69,26.69,0,1,0,75.27,62.06,26.71,26.71,0,0,0,60.44,27.35" transform="translate(-23.82 -25.43)" fill="#fff"/>
</svg>
