<svg id="b3069269-34fb-46ad-bdbf-780451871136" data-name="Layer 1" xmlns="http://www.w3.org/2000/svg" viewBox="0 0 377.81 204.07">
  <title>media_lappari</title>
  <path d="M330,179.6v10.28H161.4v-8.8c-8.26,1.18-16.26,2.52-23.87,4-51.35,10.14-90.76,30.1-95,52.26-1.66,8.78,2.93,18.36,19.5,24.42,10.35,3.79,24.26,5.81,38.19,7,42.39,3.73,87,.91,129.89,3.69,27.17,1.76,54,5.77,81.23,5.77,4.14,0,8.28-.09,12.44-.3,47.82-2.39,82.95-19.91,92.46-38.1C433.29,207.33,390.86,187.91,330,179.6Z" transform="translate(-42.24 -74.2)" fill="#c7eafb"/>
  <path d="M334.17,74.2h-177c-5.38,0-5.38,5.38-5.38,5.38V193.47c0,5.38,5.38,5.38,5.38,5.38h177c5.38,0,5.38-5.38,5.38-5.38V79.58C339.55,74.2,334.17,74.2,334.17,74.2ZM330,189.88H161.4V83.17H330Z" transform="translate(-42.24 -74.2)" fill="#bbb"/>
  <polygon points="319.43 154.99 292.68 124.65 114.23 124.65 84.48 154.99 319.43 154.99" fill="#d4d4d4"/>
  <polygon points="300.15 142.59 288.19 127.34 117.66 127.34 103.76 142.59 300.15 142.59" fill="#bbb"/>
  <path d="M329.54,78.69H161.85c-5.38,0-5.38,5.38-5.38,5.38V189c0,5.38,5.38,5.38,5.38,5.38H329.54c5.38,0,5.38-5.38,5.38-5.38V84.07C334.92,78.69,329.54,78.69,329.54,78.69ZM330,189.88H161.4V83.17H330Z" transform="translate(-42.24 -74.2)" fill="#545454"/>
  <path d="M361.67,229.19v4.43a2,2,0,0,1-2,2H128.72a2,2,0,0,1-2-2v-4.43Z" transform="translate(-42.24 -74.2)" fill="#aaa"/>
</svg>
