<svg id="e0cf977d-4593-41d6-92d7-23840645a3b3" data-name="Layer 1" xmlns="http://www.w3.org/2000/svg" xmlns:xlink="http://www.w3.org/1999/xlink" viewBox="0 0 153.7 165.98">
  <defs>
    <clipPath id="f166db05-d6d4-4a79-8cee-ef238059119c" transform="translate(-10.1 -8.19)">
      <rect x="10.1" y="8.19" width="153.71" height="165.98" fill="none"/>
    </clipPath>
    <clipPath id="a2b24ed8-853d-423a-8765-6e86f3e70a0f" transform="translate(-10.1 -8.19)">
      <path d="M18.43,54.36c-9.67,28.08-8.47,54,2.68,57.8s28-15.82,37.7-43.9,8.47-54-2.68-57.8A9,9,0,0,0,53.21,10c-11,0-25.93,18.65-34.78,44.38" fill="none"/>
    </clipPath>
  </defs>
  <title>media2_web</title>
  <g>
    <g>
      <g clip-path="url(#f166db05-d6d4-4a79-8cee-ef238059119c)">
        <path d="M134.8,118.57l-23.31,42.15L108.8,167S98,172.38,93.56,167s2.53-4.48,3.59-6.28S107,139.2,107,139.2L117.32,114Z" transform="translate(-10.1 -8.19)" fill="#e7e7e7"/>
      </g>
      <g clip-path="url(#f166db05-d6d4-4a79-8cee-ef238059119c)">
        <path d="M120,129.11c.43-4.06-15.08-14-15.51-9.84s.12,5.35-.55,5.27a3.94,3.94,0,0,0-3.5,3.33c-.26,2.44-.34,3.25-1.32,4.78s-2,3.08-1.32,4.78-1.07,2.35-1.24,4-2.47,1.38,1.11,5,8.21,7.76,10,6.79,2.69-2.18,2-3.89,3.33-.47,3.67-3.72,0-4.1,0-4.1,3-1.32,3.27-3.76c-2-4.7,3-4.6,3.37-8.65" transform="translate(-10.1 -8.19)" fill="#ffdc8b"/>
      </g>
      <g clip-path="url(#f166db05-d6d4-4a79-8cee-ef238059119c)">
        <path d="M143.77,174.17l-9.86-17.93s9.86-26.17,4.93-27.8-13.6-1.63-19.58-1.63-12.26,2.68-7.77,5.29,14.35,1.71,14.35,1.71-17,22.42-17,26,5.38,2.69,5.38,2.69l6.28,11.66h23.31" transform="translate(-10.1 -8.19)" fill="#ffd36e"/>
      </g>
      <g clip-path="url(#f166db05-d6d4-4a79-8cee-ef238059119c)">
        <path d="M145.36,124.22c-5.06-1.74-6-12.19-2.2-23.34s11.05-18.77,16.1-17,6,12.19,2.2,23.34-11,18.77-16.1,17" transform="translate(-10.1 -8.19)" fill="#005d68"/>
      </g>
      <g clip-path="url(#f166db05-d6d4-4a79-8cee-ef238059119c)">
        <path d="M123.14,71S67.54,36,61.26,23s-35.87,83.9-35.87,83.9,40.35-7.27,83.4,7.12,14.35-43,14.35-43" transform="translate(-10.1 -8.19)" fill="#e7e7e7"/>
      </g>
      <g clip-path="url(#f166db05-d6d4-4a79-8cee-ef238059119c)">
        <path d="M158.12,83.6s.14,27.41-14.35,39.46c-16.9-3.49-35-9-35-9S127,80.9,123.15,71c8.07,0,35,12.58,35,12.58" transform="translate(-10.1 -8.19)" fill="#ff5c3e"/>
      </g>
      <g clip-path="url(#f166db05-d6d4-4a79-8cee-ef238059119c)">
        <path d="M21.11,112.16C10,108.32,8.76,82.44,18.43,54.36S45,6.62,56.13,10.46s12.35,29.72,2.68,57.8S32.26,116,21.11,112.16" transform="translate(-10.1 -8.19)" fill="#fff"/>
      </g>
    </g>
    <g>
      <g clip-path="url(#a2b24ed8-853d-423a-8765-6e86f3e70a0f)">
        <polygon points="68.86 45.93 28.52 40.43 22.92 62.83 55.69 83.48 68.86 45.93" fill="#005d68"/>
      </g>
      <g clip-path="url(#a2b24ed8-853d-423a-8765-6e86f3e70a0f)">
        <path d="M32.18,72c-2.6-.9-2.88-6.93-.63-13.49s6.19-11.14,8.8-10.24,2.88,6.93.62,13.49S34.78,72.86,32.18,72" transform="translate(-10.1 -8.19)" fill="#324fff"/>
      </g>
    </g>
    <g clip-path="url(#f166db05-d6d4-4a79-8cee-ef238059119c)">
      <path d="M21.11,112.16C10,108.32,8.76,82.44,18.43,54.36S45,6.62,56.13,10.46s12.35,29.72,2.68,57.8S32.26,116,21.11,112.16Z" transform="translate(-10.1 -8.19)" fill="none" stroke="#ff5c3e" stroke-width="3.59"/>
    </g>
  </g>
</svg>
