<svg id="a575bdf7-3ff6-4ba9-9749-d1ddf3deedce" data-name="Layer 1" xmlns="http://www.w3.org/2000/svg" xmlns:xlink="http://www.w3.org/1999/xlink" viewBox="0 0 377.81 204.06">
  <defs>
    <clipPath id="ac4f5390-3761-46cb-b977-72e0cea6ab01" transform="translate(-16.03 -17.25)">
      <rect x="16.04" y="17.25" width="377.82" height="204.06" fill="none"/>
    </clipPath>
  </defs>
  <title>media1_web</title>
  <g>
    <g clip-path="url(#ac4f5390-3761-46cb-b977-72e0cea6ab01)">
      <path d="M227.13,117.87c-40.49,0-81.84,3.56-115.81,10.27-51.35,10.14-90.76,30.1-95,52.26-1.66,8.78,2.93,18.36,19.5,24.42,10.35,3.79,24.26,5.81,38.19,7,42.39,3.73,87,.91,129.89,3.69,27.17,1.76,54,5.77,81.23,5.77,4.14,0,8.28-.09,12.44-.3,47.82-2.39,82.95-19.91,92.46-38.1,23.61-45.14-67.2-65-162.93-65" transform="translate(-16.03 -17.25)" fill="#c7eafb"/>
    </g>
    <g clip-path="url(#ac4f5390-3761-46cb-b977-72e0cea6ab01)">
      <path d="M308,17.25s5.38,0,5.38,5.38V136.52s0,5.38-5.38,5.38H131s-5.38,0-5.38-5.38V22.63s0-5.38,5.38-5.38Z" transform="translate(-16.03 -17.25)" fill="#bbb"/>
    </g>
  </g>
  <polygon points="319.44 154.98 292.68 124.65 114.23 124.65 84.49 154.98 319.44 154.98" fill="#d4d4d4"/>
  <polygon points="300.15 142.58 288.2 127.34 117.67 127.34 103.77 142.58 300.15 142.58" fill="#bbb"/>
  <g clip-path="url(#ac4f5390-3761-46cb-b977-72e0cea6ab01)">
    <path d="M303.33,21.73s5.38,0,5.38,5.38V132s0,5.38-5.38,5.38H135.64s-5.38,0-5.38-5.38V27.11s0-5.38,5.38-5.38Z" transform="translate(-16.03 -17.25)" fill="#545454"/>
  </g>
  <rect x="119.16" y="8.97" width="168.59" height="106.71" fill="#fff"/>
  <g clip-path="url(#ac4f5390-3761-46cb-b977-72e0cea6ab01)">
    <path d="M335.47,172.23v4.43a2,2,0,0,1-2,2h-231a2,2,0,0,1-2-2v-4.43Z" transform="translate(-16.03 -17.25)" fill="#aaa"/>
  </g>
</svg>
