<svg id="afc19723-d978-4a2b-a184-369849889bed" data-name="Layer 1" xmlns="http://www.w3.org/2000/svg" xmlns:xlink="http://www.w3.org/1999/xlink" viewBox="0 0 285.98 285.97">
  <defs>
    <clipPath id="e1cda9bb-a2a4-477e-9fde-9ba7d205cf06" transform="translate(-2.48 -2.23)">
      <rect x="2.48" y="2.23" width="285.97" height="285.97" fill="none"/>
    </clipPath>
  </defs>
  <title>Untitled-3</title>
  <path d="M145.47,2.23A143,143,0,0,0,44.36,246.32,143,143,0,1,0,246.58,44.11,142.06,142.06,0,0,0,145.47,2.23m-112.69,71A133.75,133.75,0,0,1,145.46,11.47c73.75,0,133.75,60,133.75,133.75S219.21,279,145.46,279,11.71,219,11.71,145.22v-.53A131.79,131.79,0,0,1,32.78,73.24" transform="translate(-2.48 -2.23)" fill="#dbcfd9"/>
  <path d="M275.47,145.21a130,130,0,1,1-130-130,130,130,0,0,1,130,130" transform="translate(-2.48 -2.23)" fill="#8dd7f7"/>
  <path d="M182.75,266.58A7.67,7.67,0,0,0,182,265a.59.59,0,0,1,.59-.86c.57,0,1.17.17,1.65-.28a2,2,0,0,1,1.47-.79,2.42,2.42,0,0,1,1.78,1.11c.37.45.66,1,1,1.4a19.74,19.74,0,0,1,1.32,1.83,130.24,130.24,0,0,0,57-40.76l-3.47.38c-.43.05-.87.07-1.3.1-2-.22-4.07-.35-5.58-2a3.21,3.21,0,0,0-1.91-.93,9.32,9.32,0,0,1-1.68-.38,1.88,1.88,0,0,1-1-.77c-.84-1.85-1.57-3.73-.72-5.82a11,11,0,0,0,.86-2.89,4,4,0,0,1,2.07-3.1.47.47,0,0,0,0-.76,1.92,1.92,0,0,0-.7-.5,5.27,5.27,0,0,1-3.14-2.83,8.61,8.61,0,0,0-3.05-3.59,8.25,8.25,0,0,1-3.48-5.32,7.69,7.69,0,0,0-2.79-4.71,2.13,2.13,0,0,1-.65-2.36,23.47,23.47,0,0,1,.82-2.45,2.45,2.45,0,0,1,1.46-1.51,7.19,7.19,0,0,0,3.78-2.77,2.8,2.8,0,0,1,.94-.87c1.61-1,3.23-1.91,4.88-2.82a1.67,1.67,0,0,1,1.23-.2,7.09,7.09,0,0,0,4.22.46,1.63,1.63,0,0,1,1.66,1.13,3.73,3.73,0,0,1,.46,2.09c-.1.86-.28,1.71-.37,2.57a.81.81,0,0,1-.78.82c-.72.07-1.45.06-2.16.12-1.88.16-2.34.8-2.16,2.9.09,1,.09,1-.7,1.27-.14,0-.29,0-.43.07-1.26.39-1.43.66-.72,1.31a11,11,0,0,1,2.44,3,7.52,7.52,0,0,0,4.87,3.93,1.18,1.18,0,0,1,.94,1.25,6.4,6.4,0,0,1-.08.87,4.79,4.79,0,0,0,.95,3.68,5,5,0,0,1,1,4.08,4.15,4.15,0,0,0,.17,1.71c.26.85.72,1.59,1.76,1.63.44,0,.88,0,1.16.41s.07.8-.08,1.19c-.05.13-.12.33-.06.41a4.42,4.42,0,0,0,.85,1,3.29,3.29,0,0,1,1.47,3,12.33,12.33,0,0,0,.95,4.73A130,130,0,0,0,231.1,47.4a7.61,7.61,0,0,1-1.78-1.13,34.33,34.33,0,0,0-3.2-2.22,1,1,0,0,0-1.13.4,2.32,2.32,0,0,0-.21.38,2.64,2.64,0,0,0,1,3.07c1.12.91,2.77.92,3.66,2.23.12.19.52.24.8.28a2.32,2.32,0,0,1,1.46.88c.82,1,1.61,2.05,2.4,3.08a1.15,1.15,0,0,1-.15,1.57c-.86.74-1.91,1.29-2.21,2.52a.4.4,0,0,1-.32.17c-.22-.14-.52-.29-.6-.5-.2-.53-.23-1.13-.44-1.65a1.47,1.47,0,0,0-1.78-.84c-1,.47-1.94,1.28-3.2,1.12a.44.44,0,0,0-.34.22,2.14,2.14,0,0,1-2.45,1.31,3.23,3.23,0,0,0-2.76,1.05c-.78,1-1.94,1.17-2.87,1.81-.29.2-.81.07-1.23.09a4.38,4.38,0,0,1,0-.81,3.45,3.45,0,0,0-1-3,1.65,1.65,0,0,0-2,1.19c-.06.21-.37.51-.55.51-.89,0-1.09.88-1.7,1.15a12.07,12.07,0,0,1-2.08.58,4.72,4.72,0,0,0-2.46,1.66,23.84,23.84,0,0,1-5.31,5.06,1.81,1.81,0,0,0-.86,1.41,19.11,19.11,0,0,1-.36,2.14,1.71,1.71,0,0,1-.46.71c-1.17,1.15-3.49,1.29-4.35.31-.57-.65-1.22-1.24-1.82-1.87a1.29,1.29,0,0,1,0-1.92c.68-.53,1.43-1,2.14-1.44a1.14,1.14,0,0,0,.16-1.55c-.55-.66-1.21-1.24-1.7-1.94a3.53,3.53,0,0,0-3.77-1.57,8.89,8.89,0,0,1-3.41,0c-.11,0-.26.09-.35.18a.46.46,0,0,0,.06.73,6,6,0,0,1,2.34,6.14,11.1,11.1,0,0,0-.12,1.73,1.51,1.51,0,0,0,.77,1.45,2.45,2.45,0,0,1,1.41,2.47,14.19,14.19,0,0,1-.11,1.72,1.19,1.19,0,0,1-1.2,1c-.85-.17-1.71-.32-2.54-.54a2.49,2.49,0,0,0-3.05.95,6.23,6.23,0,0,1-1.5,1.53,8.58,8.58,0,0,0-2,2.23c-1.27,1.79-2.1,2.47.12,4.84a2.87,2.87,0,0,1,.45.73,1.64,1.64,0,0,1-.27,1.63,1.24,1.24,0,0,1-1.48.58c-2-1.07-4.39-1.5-6.23-3a3.63,3.63,0,0,0-1.23-.39,1,1,0,0,0-1.07.51c-.22.53-.42,1.07-.63,1.61a1.54,1.54,0,0,0,.32,1.61,4.39,4.39,0,0,0,3.26,1.91,2,2,0,0,1,.8.29,1.08,1.08,0,0,1,.54,1.09,1.42,1.42,0,0,1-1.44,1.29c-1.43-.23-2.87-.42-3.85-1.71a3.84,3.84,0,0,0-2.3-1.1,1.56,1.56,0,0,1-1.18-1.15,10.36,10.36,0,0,0-1.47-3.59,3.38,3.38,0,0,1-.36-2.49c.25-2.16-.41-3.26-2.39-4.06a4.88,4.88,0,0,1-2.15-1.33c-.6-.73-1.62-1.08-2-2h-.16c0-.09-.07-.13-.09-.21a1.08,1.08,0,0,1-.58-.55c-.08,0-.12-.08-.21-.09l0-.22.13.12a.72.72,0,0,0,.11.19.82.82,0,0,1,.58.55,1.74,1.74,0,0,0,.19.1.6.6,0,0,0,.06.11,9.41,9.41,0,0,1,3.6.9,47.85,47.85,0,0,0,9.56,2.63,12.36,12.36,0,0,0,7.22-.95,3.15,3.15,0,0,0,1.08-.7,9.24,9.24,0,0,0,2.7-5.32,2.6,2.6,0,0,0-.31-1.66c-.9-1.27-1.56-2.78-3.16-3.48a6.48,6.48,0,0,1-1.67-1.36,4,4,0,0,0-2.22-1.1,8.39,8.39,0,0,1-3.87-1.83,27.57,27.57,0,0,0-3.59-2.43c-3.57-2.11-4.59-2.38-8.62-2.38-.57,0-1.14.24-1.71.24a11.17,11.17,0,0,1-2.14-.26c-.63-.14-.38-.58-.23-1a1,1,0,0,0-.3-1.18,9.2,9.2,0,0,0-1.5-.85,1.23,1.23,0,0,0-1.57.22,1.93,1.93,0,0,1-2.29.74,4.55,4.55,0,0,0-2.56-.09,1.82,1.82,0,0,1-1.12-.46,1.34,1.34,0,0,1-.37-.75c-.07-.3.15-.47.52-.48a3.13,3.13,0,0,0,2-.69L148.5,53a.73.73,0,0,0-.21-1.09,27.94,27.94,0,0,0-6-2.37c-.3-.1-.78.26-1.12.48a2.43,2.43,0,0,0-.51.69c-.2.32-.41.42-.59.24a.56.56,0,0,1-.17-.38c0-.43.06-.87.05-1.3a1.68,1.68,0,0,0-1.21-1.59,1.59,1.59,0,0,0-1.58.47,2.15,2.15,0,0,0-.84,1.45,3.3,3.3,0,0,1-.36,1.23c-.11.2-.43.31-.68.41-.05,0-.26-.17-.29-.29-.17-.74-.37-1.36-1.36-1.3-.54,0-.53-.54-.62-.92-.26-1-1.16-1.25-1.55-.68-.78,1.12-2.31,1.17-3,2.33-1.17.16-1.91,1.15-3,1.51a2.32,2.32,0,0,1-.38.07.28.28,0,0,1,0,.09l-.18.19L125,52h0a1,1,0,0,0-.08-.67,1.5,1.5,0,0,0-.35-.09c-1.84,0-2,.19-1.6,1.84a6.17,6.17,0,0,1,.12.73c-1.76-.11-3.19.84-4.71,1.49-.13.06-.15.53-.12.79s.33.84.23,1.19c-.14.5-.73.24-1.11.35l-2,.64.09-.07h-.09a5.31,5.31,0,0,0,0-1.19.94.94,0,0,0-1-.73c-.18,0-.56.34-.54.43a12,12,0,0,0,.61,1.49h-.08l.11.07A2.46,2.46,0,0,0,112,59.76h0c0,.06.28.41-.08.11l.06-.11c-.42,0-.84,0-1.25,0A1.7,1.7,0,0,0,109.14,61a1.82,1.82,0,0,0,.51,2.33,5.82,5.82,0,0,1,.68.52.71.71,0,0,1-.22,1.09c-.46.33-.9.78-1.55.48a3.41,3.41,0,0,0-2.12-.07.66.66,0,0,1-.71-.83c.24-.68.51-1.35.74-2,0-.07-.12-.25-.23-.32a.39.39,0,0,0-.35,0c-1,1-2,2.05-3,3.12-.33.38,0,.79.24,1.14a1,1,0,0,1-.23,1.51,2.21,2.21,0,0,0-.38.63,8.1,8.1,0,0,0,1.56,0c1-.19,2-.55,3-.7a6.71,6.71,0,0,1,1.71.17c.1,0,.18.1.28.16a1.75,1.75,0,0,1-.32.29c-.5.28-1,.56-1.54.8a3.43,3.43,0,0,1-.84.2c-.77.15-.8.64-.6,1.25-.43.32-1,.56-1.23,1s0,1.11,0,1.66c0,.25-.29.49-.44.73s-.64.76-.6,1.1a1.59,1.59,0,0,1-1,1.71,2.53,2.53,0,0,0-1.59,1.86c-.17.83-.9,1.56-1,2.38s-.09,1.35-.92,1.65a.84.84,0,0,0-.51,1,4.08,4.08,0,0,1,0,2.54,20.87,20.87,0,0,0-.54,2.52,1.62,1.62,0,0,1-1.14,1.19,8.38,8.38,0,0,0-1.21.46,1,1,0,0,0-.45.63c0,.73,0,1.39-.76,1.87a8,8,0,0,0-3.13,4,7.4,7.4,0,0,1-.52,1.19,1.48,1.48,0,0,1-1.43.79c-.57,0-1.14-.16-1.71-.22a.56.56,0,0,0-.38.19.55.55,0,0,0,0,.79,2.89,2.89,0,0,1,.29.32c.24.42.17,1.05-.18,1.08-1.32.13-2.07,1.6-3.5,1.42-.9.68-1.81,1.35-2.71,2.05a.53.53,0,0,0-.07.42c.19,1-.38,1.24-1.18,1.39a5.3,5.3,0,0,0-1.62.52,1.74,1.74,0,0,0-.78.93c-.16.53,0,1.13-.16,1.68-.3,1.54.36,3.16-.37,4.67,0,.1,0,.27.09.41.3,1.12,1.17,1.93,1.64,3a12.8,12.8,0,0,1,.85,2,1.75,1.75,0,0,1-.27,1.2c-.29.48-.75.85-1.09,1.31a1.05,1.05,0,0,0,.27,1.17c.37.2.79.32,1.17.49s.66.65.4,1-.75.87-1.08,1.33a1.61,1.61,0,0,0,.2,1.62,14.1,14.1,0,0,0,5.12,3.16,1.45,1.45,0,0,0,.83.11c1.76-.6,3.67-.88,4.8-2.66a7.57,7.57,0,0,1,1.67-2c1.11-.86,2.72-1.09,3.36-2.59a.38.38,0,0,1,.33,0c.43.37,1,.7,1.21,1.18.28.79.21,1.7.43,2.52a17.76,17.76,0,0,1,1,2.85,10.58,10.58,0,0,0,1.73,4.36,25.3,25.3,0,0,0,2.29,3.67c.33.41.12.8,0,1.21s-.21.76-.32,1.15h.09a2.45,2.45,0,0,1,0,.27,3.29,3.29,0,0,1,.63.89c1.07,2.91,1.57,2.12,4,1.83a1.3,1.3,0,0,0,1.08-1.19,2,2,0,0,1,1.78-1.62,7.09,7.09,0,0,1,1.29-.15c1.23,0,2.3-.2,2.85-1.46,2,.34,1.87-1.24,2.18-2.4a2.26,2.26,0,0,0,0-.86c-.06-.49-.33-.73-.85-.6a.67.67,0,0,1-.42,0,.43.43,0,0,1-.18-.34,13.5,13.5,0,0,1,.34-4.29,6.61,6.61,0,0,0,.32-2.12,3.2,3.2,0,0,1,1.69-2.83,21.25,21.25,0,0,0,2.16-1.43,3,3,0,0,0,1.2-2.65c-.06-.55.16-1.13.15-1.69a2.29,2.29,0,0,0-.32-1.22,8.87,8.87,0,0,0-3.67-3.56,2.15,2.15,0,0,1-1.25-2.12q0-3.47.18-6.93a2.67,2.67,0,0,1,.45-1.19,15.59,15.59,0,0,1,4.51-5.12,17.93,17.93,0,0,0,2.61-2.25c1.63-1.6,1.58-1.63,2.56-3.91a3.2,3.2,0,0,0,.17-2.09,7.69,7.69,0,0,1,.7-5c.74-1.35,1.61-2.43,3.39-2a9.08,9.08,0,0,1,5.87,1c.54.28.84,1.58.36,1.88-.64.4-1.16.71-1.16,1.61a3.12,3.12,0,0,1-.6,1.59,56.18,56.18,0,0,1-4.21,6,5.11,5.11,0,0,0-1.19,1.78,1.7,1.7,0,0,1-2,1.18.64.64,0,0,0-.77.78,4.91,4.91,0,0,1-.2,2.12,4.06,4.06,0,0,0,0,1.7c.09.56.38,1.09.51,1.65.52,2.24,1.24,4.45.86,6.81a4.71,4.71,0,0,0,.09,1.29,1.89,1.89,0,0,0,1.21,1.63,13.8,13.8,0,0,1,1.49.87l0,0-.11-.08.28-.14-.17.22c.34.22.69.54,1,.51a1.91,1.91,0,0,1,2.08,1.1,1.78,1.78,0,0,0,2.27.71,16,16,0,0,0,2.39-1,18.9,18.9,0,0,1,8.27-2.12c1,0,2-.21,3-.27.26,0,.71.07.76.23.52,1.33,2,1,2.86,1.63.11.08.27.12.37.21a.46.46,0,0,1,.09.3,11.82,11.82,0,0,1-1.47.9c-.79.37-1.71.61-2.15,1.37-.95,1.6-2.17,1.54-3.68,1a17.15,17.15,0,0,0-2.94-.66,3,3,0,0,0-1.26,0c-1.38.4-2.75.84-4.09,1.36a3.5,3.5,0,0,0-2.54,3.16,1.67,1.67,0,0,1-1.32,1.51c-.54.17-1.12.25-1.66.43-1.1.36-1.25,1.14-.48,2.36.05.09.13.16.18.24,1.25,0,2.06-.9,3-1.61.63-.49.88-.46,1.53,0a12.5,12.5,0,0,0,1.4,1,1.25,1.25,0,0,1,.75,1c.07,1.15.08,2.31.05,3.46a1.38,1.38,0,0,1-1.07,1.24,1.45,1.45,0,0,1-1.17-.33,22.83,22.83,0,0,1-1.72-2,1.46,1.46,0,0,0-1.89-.54,3.44,3.44,0,0,0-2.51,2.19c-.28.82-.64,1.61-.91,2.44a6.5,6.5,0,0,0-.25,3.42c.32,1.41.51,2.85.71,4.28a.86.86,0,0,1-.39.69,20.33,20.33,0,0,1-2,.8,1.79,1.79,0,0,0-1.24,1.58c-.2,1.41-2.86,1.64-3.56.58a7,7,0,0,1-.42-.76,1.68,1.68,0,0,0-1.8-.92,9.43,9.43,0,0,0-4.11,1.29,48,48,0,0,1-5.29,3c-.61.28-1,1-1.58,1.42a1.31,1.31,0,0,1-1.2.12,12.47,12.47,0,0,1-2-2.16c-.21-.29,0-.85-.07-1.28a.73.73,0,0,0-1-.43,4.08,4.08,0,0,1-2.26,1.12c-1.33.1-2.39,1-3.51,1.64a.83.83,0,0,1-.75-.15,3.41,3.41,0,0,0-1.67-1.29,4.61,4.61,0,0,1-2-.67,4.82,4.82,0,0,1-.92-1.93,1.25,1.25,0,0,1,.15-.73c0-.07.27-.12.37-.07,1.19.49,2.47.63,3.54,1.55s2.47.52,3.19-.87a9.47,9.47,0,0,0,1.18-5.6c0-.05-.09-.1-.13-.16l0-.1a4.94,4.94,0,0,0-3.76,1.67,1.38,1.38,0,0,0-.17,1.61c.29.5.68.94,1,1.44a.75.75,0,0,1-.1.71c-.19.1-.51,0-.77-.07a1,1,0,0,1-.37-.21c-1-.81-1.29-2.29-2.62-2.83-.11-.05-.11-.51-.07-.77a2.74,2.74,0,0,1,1.7-2.28c.32-.14.3-.49.06-.74a1.22,1.22,0,0,0-.3-.3,2.29,2.29,0,0,1-1.17-3.26,4.16,4.16,0,0,0,.35-2.12c0-.4-.49-.87-.85-.78a3.23,3.23,0,0,0-.84.21c-1.61.92-2.78,2.52-4.63,3.12a.91.91,0,0,0-.39.71c0,1.68-1.22,3.24-.48,5,.09.2-.13.54-.22.81a1.54,1.54,0,0,0,.35,1.59,2.71,2.71,0,0,1,.73,1.05,35.93,35.93,0,0,1,1.16,5.47c0,1-1.29,2.45-2.19,2.2a4.1,4.1,0,0,0-3.33.37,10,10,0,0,1-2.82,1.07A13.64,13.64,0,0,0,78.18,156a4,4,0,0,0-2.11,2.58c-1.18,3.88-1.21,3.88-4.23,6.27-.66.53-1.51.83-2.22,1.31a2.42,2.42,0,0,0-.81,1,15.21,15.21,0,0,0-.46,1.67,2.56,2.56,0,0,1-1.76,1.76c-.42.13-.84.22-1.25.36a2.66,2.66,0,0,0-1.61,1.35c-.47.93-1.35,1-2.25.86a3.81,3.81,0,0,1-1.93-.89,2.24,2.24,0,0,0-1.2-.27c-.41,0-.93.52-.86.83.19.84.43,1.67.6,2.51a1,1,0,0,1-1,1.11,5.6,5.6,0,0,1-3-.42,2.82,2.82,0,0,0-1.67-.2c-1.12.23-2.22.63-3.33,1a1.08,1.08,0,0,0-.63,1c.24,1.43.36,2.89,2.4,3,.82,0,1.59.7,2.43.9a3.64,3.64,0,0,1,2.79,2.48,5.18,5.18,0,0,0,2.36,3,2.18,2.18,0,0,1,1.09,2.19c-.11,2.3-.22,4.6-.42,6.89a11.71,11.71,0,0,1-.64,2.51c-.23.74-1.34,1.51-2.08,1.2-1.53-.63-3.17.21-4.66-.55a1.8,1.8,0,0,0-1.27-.08,6.67,6.67,0,0,1-4.26-.11,8.92,8.92,0,0,0-4.66-.38,2.35,2.35,0,0,1-1.29,0c-1.79-.65-3.38-.65-4.69,1-.23.28-.8.29-1.2.43a7.91,7.91,0,0,0-.79.35A1.29,1.29,0,0,0,33,202a6.43,6.43,0,0,1,.9,4.53c0,.13.06.28.08.42a13.29,13.29,0,0,1,0,5.18A129.67,129.67,0,0,0,47.2,230.32l0,0A7.19,7.19,0,0,1,52.16,229a34,34,0,0,0,3.9-.15,2.22,2.22,0,0,0,1.82-1,3.71,3.71,0,0,1,2-1.53,2.48,2.48,0,0,0,1.74-1.76,7.74,7.74,0,0,1,2-3.3,1.15,1.15,0,0,0,.28-1.56c-1.68-2.06-.79-3.73.7-5.34.39-.43.76-.87,1.14-1.31,1.14-1.29,2.14-2.76,4.1-2.88,1.94-.9,3.44-2.13,3.49-4.51a25,25,0,0,1,.26-2.58,7.77,7.77,0,0,1,.28-1.27A2.63,2.63,0,0,1,76.56,200c2,.41,4,.33,5.77,1.6a1.72,1.72,0,0,0,2.36-.4,8.63,8.63,0,0,1,4.17-3,3.5,3.5,0,0,0,1.34-1.07,2.87,2.87,0,0,1,3.53-.75,4.88,4.88,0,0,1,2.88,2.46c.5,1,1,2,1.53,3.08a48.91,48.91,0,0,1,5.19,5.09,7.89,7.89,0,0,0,4.3,2.78c2.08.49,3.41,2.07,5.13,3.06a5.3,5.3,0,0,0,2.55,2.26,2,2,0,0,1,.88.88c.45,1.06.81,2.17,1.18,3.27a1.47,1.47,0,0,1,0,.83c-.42,1.23-.78,2.35-2.46,2.65a27.16,27.16,0,0,1-7.73.71,2.38,2.38,0,0,0-1.22.35,1.08,1.08,0,0,0-.46.67c0,.25,0,.68.16.79.84.55,1.72,1.05,2.61,1.52,1.79.93,3.59,1.83,5.39,2.73a1,1,0,0,0,1.08-.52,3.76,3.76,0,0,0,.36-1.23c0-.57-.19-1.14-.2-1.71a1.55,1.55,0,0,1,1.67-1.55,2.12,2.12,0,0,0,2.17-1.09c.71-1.25,1.39-2.52,2.07-3.79a2.29,2.29,0,0,0-.15-2.46c-.23-.36-.6-.71-.66-1.1a3.83,3.83,0,0,1,.12-1.68,1.45,1.45,0,0,1,2.13-.79c.7.47,1.29,1.11,2,1.6.13.1.6,0,.73-.2.59-.77.55-2-.11-2.35-2.26-1.28-4.14-3.22-6.72-3.92-.88-.24-1.05-.82-1.12-1.58a.93.93,0,0,0-.46-.65,6,6,0,0,0-1.69-.34,4.48,4.48,0,0,1-3.35-1.77,10.15,10.15,0,0,1-1.74-2.47,11.66,11.66,0,0,0-3.27-4c-.53-.49-1.21-.79-1.76-1.26a2.81,2.81,0,0,1-1-2.3c0-.72.1-1.43.13-2.15a1.15,1.15,0,0,1,.7-1,12,12,0,0,1,2-.81.78.78,0,0,1,.68.35c.22.68.27,1.41.51,2.08s.65,1.16,1.26,1c1-.28,1.54.69,2.43.57a1.2,1.2,0,0,1,1.33.91,7.61,7.61,0,0,0,3.55,4.19c1.3.86,2.5,2,4.2,2a5,5,0,0,0,2.2,1.33,4.66,4.66,0,0,1,2.54,1.58c.82.82,1.54,1.73,2.35,2.55a1.82,1.82,0,0,1,.54,1.55c-.07.86,0,1.73,0,2.59-.1,1.53.12,2.89,1.51,3.82.11.07.23.27.2.36-.41,1.29.51,1.77,1.34,2.39a19.71,19.71,0,0,1,1.88,1.78c.19,1.3,1.6,2,1.67,3.34.4.35.41.47,0,.81l0,.95a4.93,4.93,0,0,1,2.49,3.22c.06.33.52.69.89.86a6.48,6.48,0,0,0,3.36.66c.51-.05.91-.32.7-.79-.67-1.43.89-2.32.77-3.59,0,0,.27-.19.37-.16,1.11.37,1.85-.56,2.79-.78.3-.07.39-.35.3-.68a4.52,4.52,0,0,0-1.82-2.86,4.7,4.7,0,0,1-1.42-1c-1.11-1.52-2.12-3.1-3.13-4.68a1.77,1.77,0,0,1-.11-.84,1,1,0,0,1,.1-.41c.16-.32.41-.35.71-.1s.41.42.63.6c1.27,1.06,2.43.75,3-.77a10.44,10.44,0,0,1,.64-1.58.77.77,0,0,1,.71-.29c.56.22,1.08.38,1.59-.07a2.85,2.85,0,0,1,2.47-.47,2.43,2.43,0,0,1,2.16,2.33,15.93,15.93,0,0,1-.45,5.15c-.1.35.37.85.77.86s.86,0,1.29-.05a1,1,0,0,1,.43,0c.12.05.3.17.31.28a1.5,1.5,0,0,1-.06.82c-.49.84-1.51.73-2.24,1.16a.84.84,0,0,0-.31.28.54.54,0,0,0,.26.75c.51.27,1,.52,1.53.79a5.15,5.15,0,0,1,1.13.63c.5.45-.63,1-.09,1.35a4.62,4.62,0,0,1,1.85,1.76c.39.85,1.16,1.27,1.77,1.87a1.59,1.59,0,0,0,1.6.37,2.65,2.65,0,0,1,3.05,1.09,3.49,3.49,0,0,0,1,.76,1.42,1.42,0,0,0,.82.24c1.42-.2,2.94-.23,3.89-1.55a2.26,2.26,0,0,1,2.71-.74,5.67,5.67,0,0,1,2.63,1.46,4.14,4.14,0,0,0,4,.93,6.72,6.72,0,0,0,4-2.33,1.37,1.37,0,0,1,1.58-.42,10.94,10.94,0,0,0,3.32.39,9.19,9.19,0,0,0-.11,4.6,9.45,9.45,0,0,1-.2,4.3c-.31,1.12-.68,2.21-1.07,3.3a24.88,24.88,0,0,0-1.54,4.5,8.34,8.34,0,0,1-2,3.82,2,2,0,0,1-1.44.87c-2.16.05-4.33.39-6.43-.52a8.2,8.2,0,0,0-2.55-.38,8.87,8.87,0,0,0-5.37,1.39,3.25,3.25,0,0,1-2.5.34c-3.11-.66-6.17-1.54-9.34-1.91a8,8,0,0,1-3.34-.85,11.57,11.57,0,0,0-4.52-1.38,5.9,5.9,0,0,1-3.46-1.66,3.13,3.13,0,0,0-1.51-.81,10.83,10.83,0,0,0-7.22.62A4.35,4.35,0,0,0,132,250c.16.55.39,1.09.51,1.65a1.87,1.87,0,0,1-.45,1.61,8,8,0,0,1-.87,1,2.41,2.41,0,0,1-2.81.41c-.49-.3-1-.65-1.44-1-.72-.48-1.41-1-2.17-1.43a11.82,11.82,0,0,0-5.77-1.67,2.19,2.19,0,0,1-2-1.4c-.24-.52-.42-1.07-.62-1.61a2.82,2.82,0,0,0-1.77-1.78,16.35,16.35,0,0,0-7.62-1.34c-1.53.18-2.82-.51-4.15-1-.14-.06-.3-.09-.38-.2A7.4,7.4,0,0,0,98.82,241a1.39,1.39,0,0,1-.45-1.89c.59-.63,1.26-1.2,1.83-1.85a2.94,2.94,0,0,0,.43-3.26,16.84,16.84,0,0,0-1.19-1.79,1.12,1.12,0,0,1-.1-.82c.3-.81.68-1.58,1-2.38a.61.61,0,0,0-.73-.77,1.61,1.61,0,0,1-1.94-.43,2.73,2.73,0,0,0-3.17-.74c-1.11.3-2.17.78-3.29,1.06a12.52,12.52,0,0,1-2.14.19c-1.08-.8-2.29.33-3.35-.2-1.26-.62-2.22.34-3.32.48a10.13,10.13,0,0,1-2.58.05,14.17,14.17,0,0,0-6.44.47,12.92,12.92,0,0,1-3.44.38,6.55,6.55,0,0,0-2.9.76c-1.52.83-3.06,1.62-4.65,2.31a10.56,10.56,0,0,0-3.34,1.93,3.62,3.62,0,0,1-4.06.68,6.25,6.25,0,0,0-3.36-.46l-.38,0a130.15,130.15,0,0,0,132.5,34.68A16.18,16.18,0,0,1,182.75,266.58Zm82-81.92a1.44,1.44,0,0,1,1.34.87c.27.65.54,1.31.8,2-.35,1.15-.64,2.26-1,3.32a2.63,2.63,0,0,1-2.55,1.24,25.58,25.58,0,0,1-2.85-.92c-.6-.23-.72-.84-.79-1.41C259.27,187,262.23,184.39,264.71,184.66ZM220,139.88l.12.11-.23.22ZM93.61,99.63l0-.19.23.14ZM105,126.17a1.52,1.52,0,0,1-1.31,1.45c-.66.09-1.34.08-2,.11v.1a1.49,1.49,0,0,1-.15.2c0-.1,0-.2.05-.3h.1c-.06-1,0-1.88,1.17-2.31.3-.11.41-.69.63-1,.33-.54.74-.76,1-.5a2.49,2.49,0,0,1,.55,1A3.56,3.56,0,0,1,105,126.17Zm2.79,2.26a1.48,1.48,0,0,1,0,.21l-.17.32-.12.27c.07-.23.14-.46.2-.69l.1-.11c0-.28,0-.56.3-.73,0,.1.14.25.11.29A5.76,5.76,0,0,1,107.75,128.43Zm7.07-6.4a.54.54,0,0,1,.4-.1,5.81,5.81,0,0,1,.78.24c0,.13,0,.35-.06.36a2.55,2.55,0,0,1-.78,0C114.79,122.45,114.65,122.23,114.82,122Zm6.79-65.32a1.35,1.35,0,0,1-.7.28.46.46,0,0,1-.39-.07c-.15-.2-.35-.48-.3-.68s.41-.34.62-.32C121.33,56,121.77,56.5,121.61,56.71Zm1.59-2.85s0-.06,0-.09h.12l.16.21Zm2.86.14-.1,0c-.07.26,0,.59-.48.58,0,0-.1-.3-.06-.32a3.82,3.82,0,0,1,.54-.26s0-.11.05-.15l.11-.17Zm6.1-2a1.19,1.19,0,0,0-.08.16,2.06,2.06,0,0,0-.12.26c0,.57,0,1.13-.05,1.7,0,.1-.11.2-.17.3-.08-.1-.22-.19-.22-.29a3.24,3.24,0,0,1,.43-1.7c0-.13,0-.25,0-.38a.72.72,0,0,0,.2,0,2,2,0,0,0,.11-.2C132.44,51.86,132.36,51.92,132.16,52Zm7.24,56.74.19-.32.1.38Zm.67-46a4,4,0,0,1,.7-.9.77.77,0,0,1-.07-.16l.28-.19-.17.3,0,.05a4,4,0,0,1,.36,1c0,.18-.29.43-.48.61a.48.48,0,0,1-.37,0C140.18,63.21,140,62.89,140.07,62.71Zm1.58,39.76a2.14,2.14,0,0,1-.35-.1c-.41-.1-.89,0-.93-.6,0,0,.24-.18.33-.15a4.5,4.5,0,0,1,.75.33,2.09,2.09,0,0,1,.37.17,1.18,1.18,0,0,1,.21.32A2.34,2.34,0,0,1,141.65,102.47Zm2.18-9.39c-.21.14-.56.36-.69.28a2.53,2.53,0,0,1-.82-.87c-.07-.13.19-.44.3-.67.64,0,1,.43,1.27.87A.41.41,0,0,1,143.83,93.08Zm4.27,12.39-.07.26-.29-.19Zm1.21,3.7c-.25.35-.51.69-.31,1.16s.37.9-.17,1a1.88,1.88,0,0,1-1.16-.36,1,1,0,0,1-.22-1.47,17.45,17.45,0,0,1,1.58-1.39.46.46,0,0,1,.4,0c.11,0,.19.18.28.27A5.94,5.94,0,0,1,149.31,109.17Zm1.12-10.39c.07-.07.15-.22.21-.22a2.88,2.88,0,0,1,.77.18c.1,0,.14.21.21.32a3,3,0,0,1-.2.29C151.08,99.17,150.76,99,150.43,98.78Zm1.16,5.76c-.05-.12-.15-.24-.13-.34s.14-.19.21-.29c.05.12.14.24.13.35S151.66,104.44,151.59,104.54Zm-3.52,21.76a.6.6,0,0,1-.32.24.51.51,0,0,1-.66-.38,1,1,0,0,1,.17-1.17c.07-.07.24,0,.36,0A.9.9,0,0,1,148.07,126.3Zm1.41,3.35-.18-.28.29.17.16.28Zm31.11-6.4a.46.46,0,0,0,.14.07,2,2,0,0,1,.35,0l0,.17c.66.68,1.33,1.36,2,2.06a.75.75,0,0,1-.23,1.1,1.64,1.64,0,0,1-1.89-.53.92.92,0,0,1-.22-1.14,1.59,1.59,0,0,0,.14-.4c.08-.36.14-.72.21-1.08l-.08-.08-.24-.11a.73.73,0,0,1-.47-.12C180.06,123,180.24,122.94,180.59,123.25Zm-2.68-7.77c.12,0,.28,0,.36,0,.32.27.27.49-.11.53a.43.43,0,0,1-.33-.21C177.79,115.76,177.88,115.61,177.91,115.48Zm.7,64.09c0,.08-.07.22-.1.23a.89.89,0,0,1-.31-.08c0-.08.07-.22.1-.22A.87.87,0,0,1,178.61,179.57ZM167.88,105a2.76,2.76,0,0,0,1.55-.64c.21-.19.41-.39.61-.59,0,.14.08.28.11.42a13.51,13.51,0,0,0,2.1,4.23,6.72,6.72,0,0,1,.56,1.6,9.21,9.21,0,0,1-.63,1.18,1.37,1.37,0,0,1-.69.46c-.3.08-.52-.15-.54-.46a3,3,0,0,0-1.86-2.69,3.42,3.42,0,0,1-1.85-2.26C167,105.55,167.2,105.07,167.88,105Zm2.62,67.59c-.12,0-.26.1-.34.06s-.13-.2-.2-.31c.1,0,.24-.08.31,0S170.42,172.46,170.5,172.56Zm-4.86-77.17c.21.09.48.12.61.28a1.65,1.65,0,0,1,.27.7s-.19.13-.29.19c-.21-.15-.48-.27-.59-.48S165.63,95.63,165.64,95.39ZM156.42,71l.38-.46-.38.57c.06.29,0,.33-.19.1A2.34,2.34,0,0,1,156.42,71Zm-.72,12.36a.76.76,0,0,0,.05.16l.17.07c-.06.17-.12.11-.17-.07l-.15-.06-.12-.19ZM155,111.58a1.24,1.24,0,0,1-.17-.82,3.31,3.31,0,0,1,1.65-2.4,1.79,1.79,0,0,1,.41-.13,3.88,3.88,0,0,1,.77.36c.91.7,1.8,1.43,2.71,2.14.22.18.46.35.66.55,1.92,1.87,1.62,3.84-.76,5.16-.13.07-.24.17-.36.24-.69.38-1.09.32-1.5-.12A34.54,34.54,0,0,1,155,111.58Zm5.66,100.58a2.4,2.4,0,0,1-1,.67,2,2,0,0,1-.85,0,7.06,7.06,0,0,1-.74-.1c-.54,0-1,0-1.39,0s-1-.33-.82-.67a2.07,2.07,0,0,1,.67-1,6,6,0,0,1,3.76-.42C161.12,210.7,161.3,211.33,160.67,212.16Zm25-5.28c-.23-.17-.43-.5-.66-.52-1.58-.15-3-.87-4.54-1.12a17.08,17.08,0,0,0-8.5,1.1,6.33,6.33,0,0,0-2.73,2.08,1.72,1.72,0,0,1-1.93.62c-1.57-.51-3.16-.17-4.74-.21a4.94,4.94,0,0,1-4.81-3c-.29-.66-.68-1.28-.92-2a2.19,2.19,0,0,1-.05-1.24,5,5,0,0,1,1.18-2.75,3.3,3.3,0,0,0,1.19-2.66,22.62,22.62,0,0,1,.22-2.59,1.5,1.5,0,0,1,1-1.29,2.37,2.37,0,0,0,1.69-2.26,3.59,3.59,0,0,1,.6-1.6c.88-1.31,1.85-2.58,2.8-3.85a1.73,1.73,0,0,1,2-.4c.13.06.3.07.4.16a7.31,7.31,0,0,0,5.07,1.95.62.62,0,0,1,.43,1c-.38.43-.81.81-1.19,1.24a.71.71,0,0,0,.24,1.07c.25.14.54.22.8.34a2.5,2.5,0,0,1,1.46,2,1.58,1.58,0,0,0,2.25,1.22c.4-.16.79-.34,1.18-.53a21.89,21.89,0,0,0,2.31-1.19,6.31,6.31,0,0,1,3.29-.92,2.65,2.65,0,0,0,.78-.34,1.07,1.07,0,0,0,.43-1.13.93.93,0,0,0-.92-.75l-.43,0c-3.24.4-3.31.39-5.18-2.19l-.26.09.18-.2.09.11h0a6.82,6.82,0,0,1,4.23-2.6,5.15,5.15,0,0,0,2.69-1.22,6.51,6.51,0,0,1,5.19-1.41l.65.05.09-.1.25-.16-.14.27h-.2c-.68.68-1.35,1.37-2,2a1.21,1.21,0,0,0-.21,1.56,1.23,1.23,0,0,1,.05,1.23c-.72,1.22-1.26,2.57-2.56,3.37a.82.82,0,0,0-.09.77,5.76,5.76,0,0,0,3.29,2.61,10.57,10.57,0,0,1,4.78,2.88,20.14,20.14,0,0,0,5.75,3.83,5.81,5.81,0,0,1,3.29,5.24,2.52,2.52,0,0,1-1.07,2.23c-.48.33-1,.66-1.45.95a3.24,3.24,0,0,1-2.89.46,5.7,5.7,0,0,0-3.82.18,4,4,0,0,1-2.55-.07c-1.65-.54-3.31-1-4.95-1.6A4.31,4.31,0,0,1,185.64,206.88ZM186.85,229s0,0,0-.09l.1-.14,0,.24Zm-8.54,30.39-.2,0,.11-.12a.76.76,0,0,0,.09.16c.09,0,.17,0,.17.06C178.49,259.66,178.41,259.6,178.31,259.4Zm1.94,2.57a1.37,1.37,0,0,1-.33-.25c0-.05.05-.18.09-.28.12.06.28.1.34.2S180.29,261.86,180.25,262Z" transform="translate(-2.48 -2.23)" fill="#44c7f4"/>
  <g>
    <g>
      <g clip-path="url(#e1cda9bb-a2a4-477e-9fde-9ba7d205cf06)">
        <path d="M176.75,268.61c-1.76.11-3.72,0-4.33,1.27,1.69-.1,3.49.06,4.33-1.27" transform="translate(-2.48 -2.23)" fill="#8dd7f7"/>
      </g>
      <g clip-path="url(#e1cda9bb-a2a4-477e-9fde-9ba7d205cf06)">
        <path d="M170.75,272c-1.14.32-1.9.37-3.06.73,0,.06.12.08.29.08a7.58,7.58,0,0,0,2.4-.54c0-.08.12-.2.37-.27m0,0h0a.83.83,0,0,1-.37.27s0,.08.05.08.18-.09.32-.35" transform="translate(-2.48 -2.23)" fill="#8dd7f7"/>
      </g>
      <g clip-path="url(#e1cda9bb-a2a4-477e-9fde-9ba7d205cf06)">
        <path d="M147.81,272.51a17.32,17.32,0,0,0-8.06,1.53c2,1.27,5.51,1.74,9.31,1.74a58.07,58.07,0,0,0,15.39-2.1,17.56,17.56,0,0,0-4-.39c-1.64,0-3.29.14-4.91.19.08,0,.07.07-.08.07l-.6-.05.68,0c-.23-.13-1.2-.4-1.74-.57a.11.11,0,0,1-.11.1c-.07,0-.17-.06-.26-.24h.12a3.94,3.94,0,0,1,.72.11,3.23,3.23,0,0,0,.73.11.79.79,0,0,0,.6-.22c-2.41,0-5.14-.25-7.83-.25m5.74.25h-.1a1.85,1.85,0,0,0,.37.14v0c0-.07-.09-.13-.27-.13" transform="translate(-2.48 -2.23)" fill="#8dd7f7"/>
      </g>
      <g clip-path="url(#e1cda9bb-a2a4-477e-9fde-9ba7d205cf06)">
        <path d="M233.59,92.64l.07.15c.28.57.71,1.31.71,1.31l-.56.62V95.8h1.93V94.72h0l-.56-.62s.48-.82.75-1.4l0-.06a1.34,1.34,0,0,0,.1-.49,1.28,1.28,0,1,0-2.56,0,1.33,1.33,0,0,0,.08.45Z" transform="translate(-2.48 -2.23)" fill="#fff"/>
      </g>
      <g clip-path="url(#e1cda9bb-a2a4-477e-9fde-9ba7d205cf06)">
        <path d="M236,119.69l-.07-.14c-.28-.57-.71-1.32-.71-1.32l.56-.62v-1.08h-1.93v1.08h0l.56.62s-.48.82-.75,1.4l0,.07a1.34,1.34,0,0,0-.1.49,1.28,1.28,0,1,0,2.56,0,1.33,1.33,0,0,0-.08-.45Z" transform="translate(-2.48 -2.23)" fill="#fff"/>
      </g>
      <g clip-path="url(#e1cda9bb-a2a4-477e-9fde-9ba7d205cf06)">
        <path d="M222.28,100.11a1.12,1.12,0,0,0,.42.15h.2c.62,0,1.48,0,1.48,0l.25.8.92.54,1-1.7-.92-.54h0l-.81.19s-.46-.83-.82-1.36l0,0a1.31,1.31,0,0,0-.37-.33,1.26,1.26,0,0,0-1.75.48,1.32,1.32,0,0,0,.47,1.78" transform="translate(-2.48 -2.23)" fill="#fff"/>
      </g>
      <g clip-path="url(#e1cda9bb-a2a4-477e-9fde-9ba7d205cf06)">
        <path d="M247.43,111.87a1.12,1.12,0,0,0-.42-.15h-.21c-.62,0-1.48,0-1.48,0l-.25-.8-.92-.54-1,1.7.92.54h0l.81-.18s.46.83.82,1.36l0,0a1.31,1.31,0,0,0,.37.33,1.27,1.27,0,0,0,1.75-.48,1.3,1.3,0,0,0-.46-1.78" transform="translate(-2.48 -2.23)" fill="#fff"/>
      </g>
      <g clip-path="url(#e1cda9bb-a2a4-477e-9fde-9ba7d205cf06)">
        <path d="M224.55,111h0l-.25.8s-.94,0-1.57,0h-.07a1.1,1.1,0,0,0-.46.16,1.32,1.32,0,0,0-.47,1.78,1.28,1.28,0,0,0,1.75.48,1.37,1.37,0,0,0,.34-.29l0,0,.09-.13c.34-.53.77-1.28.77-1.28l.81.18.92-.54-1-1.7Z" transform="translate(-2.48 -2.23)" fill="#fff"/>
      </g>
      <g clip-path="url(#e1cda9bb-a2a4-477e-9fde-9ba7d205cf06)">
        <path d="M245,101.27h0l.25-.8s.94,0,1.56,0h.07a1.2,1.2,0,0,0,.47-.16,1.32,1.32,0,0,0,.47-1.78,1.27,1.27,0,0,0-1.75-.48,1.22,1.22,0,0,0-.34.3l0,0-.09.13c-.34.53-.77,1.28-.77,1.28l-.81-.19-.92.54,1,1.71Z" transform="translate(-2.48 -2.23)" fill="#fff"/>
      </g>
      <g clip-path="url(#e1cda9bb-a2a4-477e-9fde-9ba7d205cf06)">
        <path d="M235.75,113.22v-4.09a2.79,2.79,0,0,0,.87-.46l3.54,2.08a7,7,0,0,1-4.41,2.47m-6.34-2.47,3.54-2.08a3,3,0,0,0,.87.45v4.09a6.89,6.89,0,0,1-4.41-2.46m4.4-11.7v4.09a3.1,3.1,0,0,0-1.31.85l-3.44-2a7.07,7.07,0,0,1,4.75-2.92M240.5,102l-3.44,2a3,3,0,0,0-1.31-.85V99.05A7.07,7.07,0,0,1,240.5,102m-2.64,3.82,3.54-2.08a7.23,7.23,0,0,1-.21,5.38l-3.45-2a3.17,3.17,0,0,0,.14-.93c0-.12,0-.24,0-.35m-10.12.35a7.26,7.26,0,0,1,.42-2.43l3.54,2.08c0,.12,0,.23,0,.35a3.17,3.17,0,0,0,.14.93l-3.45,2a7.26,7.26,0,0,1-.63-3m7-9.59a9.59,9.59,0,1,0,9.43,9.59,9.52,9.52,0,0,0-9.43-9.59" transform="translate(-2.48 -2.23)" fill="#fff"/>
      </g>
    </g>
    <rect x="221.33" y="134.78" width="20.48" height="1.26" fill="#fff"/>
    <g clip-path="url(#e1cda9bb-a2a4-477e-9fde-9ba7d205cf06)">
      <path d="M203.57,125.15h61V86.24h-61Zm63.26,5.12H201.26a2.81,2.81,0,0,1-2.81-2.81V83.93a2.81,2.81,0,0,1,2.81-2.81h65.57a2.81,2.81,0,0,1,2.81,2.81v43.53a2.81,2.81,0,0,1-2.81,2.81" transform="translate(-2.48 -2.23)" fill="#fff"/>
    </g>
    <polygon points="236.92 133.65 226.21 133.65 227.43 129.22 235.71 129.22 236.92 133.65" fill="#fff"/>
    <g>
      <g clip-path="url(#e1cda9bb-a2a4-477e-9fde-9ba7d205cf06)">
        <path d="M77.16,201.42a26.23,26.23,0,1,1-26.23-26.23,26.23,26.23,0,0,1,26.23,26.23" transform="translate(-2.48 -2.23)" fill="#324fff"/>
      </g>
      <g clip-path="url(#e1cda9bb-a2a4-477e-9fde-9ba7d205cf06)">
        <path d="M62.41,197.26H53.09v-1.55h9.32Zm0,3.55H50.47v-1.55H62.41Zm-13.33,0H43.41v-1.55h5.67Zm0,3.6H46.63v-1.55h2.45Zm-3.76,0H39.65v-1.55h5.67Zm-5.68-5.16H42.1v1.55H39.64Zm0-3.54h7.85v1.55H39.64Zm9,0H52v1.55H48.64Zm14.09-5H39A4.34,4.34,0,0,0,34.68,195v10.53A4.34,4.34,0,0,0,39,209.91h16.5l-1.11,6.79,6.4-6.79h1.93a4.34,4.34,0,0,0,4.34-4.34V195a4.36,4.36,0,0,0-4.35-4.35" transform="translate(-2.48 -2.23)" fill="#fff"/>
      </g>
      <g clip-path="url(#e1cda9bb-a2a4-477e-9fde-9ba7d205cf06)">
        <path d="M268.57,201.71a26.52,26.52,0,1,1-26.52-26.52,26.52,26.52,0,0,1,26.52,26.52" transform="translate(-2.48 -2.23)" fill="#324fff"/>
      </g>
      <g clip-path="url(#e1cda9bb-a2a4-477e-9fde-9ba7d205cf06)">
        <path d="M251.13,192.43a8.87,8.87,0,0,0-1.56.14,8.36,8.36,0,1,0-16.06,4.61,3.92,3.92,0,0,0-3.51,2.89,5.51,5.51,0,1,0-2.39,10.48h23.52a9.06,9.06,0,0,0,0-18.12" transform="translate(-2.48 -2.23)" fill="#fff"/>
      </g>
      <g clip-path="url(#e1cda9bb-a2a4-477e-9fde-9ba7d205cf06)">
        <path d="M171.89,33.18A26.42,26.42,0,1,1,145.47,6.76a26.42,26.42,0,0,1,26.42,26.42" transform="translate(-2.48 -2.23)" fill="#324fff"/>
      </g>
    </g>
    <rect x="126.34" y="38.55" width="6.73" height="7.68" fill="#fff"/>
    <rect x="137.85" y="33.87" width="6.73" height="12.35" fill="#fff"/>
    <rect x="149.36" y="26.01" width="6.73" height="20.21" fill="#fff"/>
    <g clip-path="url(#e1cda9bb-a2a4-477e-9fde-9ba7d205cf06)">
      <path d="M128.88,36.06,128,31.83c13.5-2.7,18.86-8.29,24-13.7l1.28-1.33,3.1,3-1.26,1.31c-5.37,5.6-11.47,12-26.31,14.94" transform="translate(-2.48 -2.23)" fill="#fff"/>
    </g>
    <polygon points="155.83 22.53 145.95 12.64 155.83 12.64 155.83 22.53" fill="#fff"/>
    <g>
      <g clip-path="url(#e1cda9bb-a2a4-477e-9fde-9ba7d205cf06)">
        <path d="M129.8,274.63h31V230.57h-31Zm30,7.85H131.15a3.16,3.16,0,0,1-3.16-3.16V225.5a3.16,3.16,0,0,1,3.16-3.16h28.63a3.15,3.15,0,0,1,3.16,3.16v53.82a3.15,3.15,0,0,1-3.16,3.16" transform="translate(-2.48 -2.23)" fill="#fff"/>
      </g>
      <g clip-path="url(#e1cda9bb-a2a4-477e-9fde-9ba7d205cf06)">
        <path d="M148.75,278.44a1.72,1.72,0,0,1-1.72,1.72h-3.11a1.72,1.72,0,1,1,0-3.44H147a1.72,1.72,0,0,1,1.72,1.72" transform="translate(-2.48 -2.23)" fill="#005e68"/>
      </g>
      <g clip-path="url(#e1cda9bb-a2a4-477e-9fde-9ba7d205cf06)">
        <path d="M149.79,226.68a.38.38,0,0,1-.39.39h-7.85a.38.38,0,0,1-.39-.39.39.39,0,0,1,.39-.39h7.85a.39.39,0,0,1,.39.39" transform="translate(-2.48 -2.23)" fill="#005e68"/>
      </g>
    </g>
    <polygon points="149.65 251.15 137.8 251.15 135.12 248.77 137.8 246.38 149.65 246.38 149.65 251.15" fill="#fff"/>
    <polygon points="137.69 257.01 149.53 257.01 152.22 254.62 149.53 252.24 137.69 252.24 137.69 257.01" fill="#fff"/>
    <polygon points="137.69 245.39 149.53 245.39 152.22 243 149.53 240.61 137.69 240.61 137.69 245.39" fill="#fff"/>
    <rect x="143.33" y="257.71" width="1.08" height="5.44" fill="#fff"/>
    <rect x="143.33" y="238.93" width="1.08" height="1.12" fill="#fff"/>
    <polygon points="146.82 263.95 140.87 263.95 140.87 262.95 143.85 261.98 146.82 262.95 146.82 263.95" fill="#fff"/>
    <g>
      <g clip-path="url(#e1cda9bb-a2a4-477e-9fde-9ba7d205cf06)">
        <path d="M31.74,128.66h36.1V77.14H31.74Zm36.93,4.72H31a3.74,3.74,0,0,1-3.74-3.74V76.16A3.73,3.73,0,0,1,31,72.42H68.67a3.74,3.74,0,0,1,3.74,3.74v53.47a3.74,3.74,0,0,1-3.74,3.75" transform="translate(-2.48 -2.23)" fill="#fff"/>
      </g>
      <g clip-path="url(#e1cda9bb-a2a4-477e-9fde-9ba7d205cf06)">
        <path d="M56.68,108.33a1.56,1.56,0,0,1-2.75-.84,1.52,1.52,0,0,1,.35-1.14,1.55,1.55,0,0,1,1.06-.56h.15A1.55,1.55,0,0,1,57,107.19a1.59,1.59,0,0,1-.36,1.14m-8.22-3.39a1.55,1.55,0,0,1-1.7-1.4,1.53,1.53,0,0,1,.35-1.14,1.57,1.57,0,0,1,1-.56h.15a1.56,1.56,0,0,1,.15,3.11m-5.92,6.29a1.55,1.55,0,0,1-1.7-1.4,1.53,1.53,0,0,1,.35-1.14,1.55,1.55,0,0,1,1.05-.56h.15a1.56,1.56,0,0,1,.15,3.11m19.78-11L61.06,96l-4.17,1.55,2,1-3.18,6.48a1.85,1.85,0,0,0-.47,0,2.26,2.26,0,0,0-1.24.52l-3.45-1.91a2.18,2.18,0,0,0,0-.51,2.28,2.28,0,0,0-4-1.23,2.24,2.24,0,0,0-.51,1.67,2.51,2.51,0,0,0,.22.78l-3,3.18A2.28,2.28,0,1,0,42.4,112h.22a2.29,2.29,0,0,0,2.05-2.49,2.32,2.32,0,0,0-.22-.76l3-3.19a2.32,2.32,0,0,0,.84.16h.22a2.28,2.28,0,0,0,1.26-.54l3.44,1.9a3.09,3.09,0,0,0,0,.53,2.27,2.27,0,0,0,2.27,2.06h.22a2.27,2.27,0,0,0,1.54-.82,2.24,2.24,0,0,0,.51-1.67,2.33,2.33,0,0,0-.56-1.29l3.2-6.51Z" transform="translate(-2.48 -2.23)" fill="#fff"/>
      </g>
      <g clip-path="url(#e1cda9bb-a2a4-477e-9fde-9ba7d205cf06)">
        <path d="M51.76,130.91a1,1,0,0,1-1,1H48.91a1,1,0,0,1,0-2h1.84a1,1,0,0,1,1,1" transform="translate(-2.48 -2.23)" fill="#005e68"/>
      </g>
      <g clip-path="url(#e1cda9bb-a2a4-477e-9fde-9ba7d205cf06)">
        <path d="M151.88,144.23l1.84-4.59a18.1,18.1,0,0,0,12.71-1,18.27,18.27,0,0,1,.52,11.66Zm5,17.71a18.09,18.09,0,0,0-8.53-9l2-4.89,15,6a18.27,18.27,0,0,1-8.46,7.84m-10.08-5.12a14.17,14.17,0,0,1,6.11,6.41,18.32,18.32,0,0,1-8.57-.28Zm-3.85-1.5-2.45,6.1a18.29,18.29,0,0,1-6.26-5.53,13.85,13.85,0,0,1,8.71-.57m3.52-8.79-2,4.92a18.26,18.26,0,0,0-12.26.8,18.28,18.28,0,0,1-.79-11.75Zm3.37-8.39L148,142.7l-15.07-6a18.26,18.26,0,0,1,8.19-7.94,18.05,18.05,0,0,0,8.71,9.43m1.56-3.87a14,14,0,0,1-6.35-7,18.47,18.47,0,0,1,9.07.17ZM158,129a18.43,18.43,0,0,1,6.55,6,13.8,13.8,0,0,1-9.26.81Zm1.21-8.56A26.69,26.69,0,1,0,174,155.16a26.71,26.71,0,0,0-14.83-34.71" transform="translate(-2.48 -2.23)" fill="#fff"/>
      </g>
      <g clip-path="url(#e1cda9bb-a2a4-477e-9fde-9ba7d205cf06)">
        <path d="M157.2,105.82l-.66,3.3a36,36,0,0,0-23.84,3.38,11.46,11.46,0,0,0-2.89,1.68,36,36,0,0,0-15.75,22.68l-.09.43a8.82,8.82,0,0,0,3.88,1.11c0-.23.09-.46.14-.69a32.15,32.15,0,0,1,22.24-24c10.25-1.9,15.61-.87,15.25-.9l-.39,3.47,6.4-4.19Zm-.44,7.5h0m-21.39.06c-.09,0,0,.08.12.16s-.05-.16-.12-.16m-22.05,28.79a36.08,36.08,0,0,0,6.07,22.52c1-1.16,2-2.25,2.71-3.22a32,32,0,0,1-4.82-17.42,42.11,42.11,0,0,1-4-1.88" transform="translate(-2.48 -2.23)" fill="#fff"/>
      </g>
      <g clip-path="url(#e1cda9bb-a2a4-477e-9fde-9ba7d205cf06)">
        <path d="M114,137.3a37.43,37.43,0,0,0-.66,4.87,43.16,43.16,0,0,0,4,1.88,32.05,32.05,0,0,1,.59-5.64A8.78,8.78,0,0,1,114,137.3m66.83,14.1a32.13,32.13,0,0,1-58.72,10.07c-.69,1-1.75,2.06-2.71,3.22a36.15,36.15,0,0,0,65.36-12.43Z" transform="translate(-2.48 -2.23)" fill="#fff"/>
      </g>
    </g>
  </g>
</svg>
