<svg id="f7663130-9281-41c0-b1e6-31bef665dd85" data-name="Layer 1" xmlns="http://www.w3.org/2000/svg" viewBox="0 0 71.5 74.9">
  <title>nuoli</title>
  <path d="M82.05,58.3A32.13,32.13,0,0,1,23.33,68.38h0A32.08,32.08,0,0,1,18.51,51h0a32.05,32.05,0,0,1,.59-5.64h0c0-.23.09-.46.14-.69a32.16,32.16,0,0,1,22.24-24c10.25-1.9,15.61-.87,15.25-.9l-.39,3.47L62.73,19l-4.29-6.31L57.78,16a36,36,0,0,0-23.84,3.38,11.46,11.46,0,0,0-2.89,1.68A36,36,0,0,0,15.3,43.77l-.09.43h0a37.43,37.43,0,0,0-.66,4.87h0a36.08,36.08,0,0,0,6.07,22.52h0A36.15,36.15,0,0,0,86,59.16Z" transform="translate(-14.48 -12.73)" fill="#fff"/>
</svg>
