<?xml version="1.0" encoding="utf-8"?>
<!-- Generator: Adobe Illustrator 23.0.3, SVG Export Plug-In . SVG Version: 6.00 Build 0)  -->
<svg version="1.1" id="Illustrator" xmlns="http://www.w3.org/2000/svg" xmlns:xlink="http://www.w3.org/1999/xlink" x="0px"
	 y="0px" viewBox="0 0 366.14 147.35" style="enable-background:new 0 0 366.14 147.35;" xml:space="preserve">
<style type="text/css">
	.logo-st0{fill:#FFA500;}
</style>
<path class="logo-st0" d="M65.92,13.33c-25.73,0-46.59,20.86-46.59,46.59c0,0.99,0.04,1.96,0.1,2.93c-0.06,0.3-0.09,0.6-0.09,0.92v65.81
	c0,2.56,2.08,4.64,4.64,4.64h11.88c2.56,0,4.64-2.08,4.64-4.64V98.97c7.31,4.77,16.04,7.55,25.41,7.55
	c25.73,0,46.59-20.86,46.59-46.59S91.65,13.33,65.92,13.33 M65.92,85.34c-14.04,0-25.41-11.38-25.41-25.41s11.38-25.41,25.41-25.41
	s25.41,11.38,25.41,25.41S79.95,85.34,65.92,85.34"/>
<path class="logo-st0" d="M348.28,59.14c0-25.74-20.86-46.59-46.59-46.59c-25.73,0-46.59,20.86-46.59,46.59
	c0,25.73,20.86,46.59,46.59,46.59c9.38,0,18.11-2.78,25.42-7.56V101c0,1.59,2.08,2.88,4.64,2.88h11.88c2.56,0,4.64-1.29,4.64-2.88
	V60.17c0-0.08-0.01-0.16-0.02-0.25C348.26,59.66,348.28,59.4,348.28,59.14 M301.68,84.55c-14.04,0-25.41-11.38-25.41-25.41
	s11.38-25.41,25.41-25.41c14.04,0,25.41,11.38,25.41,25.41S315.72,84.55,301.68,84.55"/>
<path class="logo-st0" d="M210.94,59.14c0-25.74-20.86-46.59-46.59-46.59c-25.73,0-46.59,20.86-46.59,46.59
	c0,25.73,20.86,46.59,46.59,46.59c9.38,0,18.11-2.78,25.42-7.56V101c0,1.59,2.08,2.88,4.64,2.88h11.88c2.56,0,4.64-1.29,4.64-2.88
	V60.17c0-0.08-0.01-0.16-0.02-0.25C210.92,59.66,210.94,59.4,210.94,59.14 M164.34,84.55c-14.04,0-25.41-11.38-25.41-25.41
	s11.38-25.41,25.41-25.41c14.04,0,25.41,11.38,25.41,25.41S178.38,84.55,164.34,84.55"/>
<path class="logo-st0" d="M240.73,12.54h-11.88c-2.56,0-4.64,1.51-4.64,5.66v69.43h-0.01c0.55,9.99-0.36,25.29-9.17,25.41v0.01h-5.44
	c-2.64,0-4.78,2.08-4.78,4.64v11.88c0,2.56,2.14,4.64,4.78,4.64h6.79c0.23,0,0.45-0.02,0.66-0.05
	c28.33-1.32,27.78-20.93,28.31-45.52l0.02-0.02V18.21C245.37,14.05,243.29,12.54,240.73,12.54"/>
</svg>