<svg id="ad18a453-ec2f-49f1-bdfb-a343685c918b" data-name="Layer 1" xmlns="http://www.w3.org/2000/svg" xmlns:xlink="http://www.w3.org/1999/xlink" viewBox="0 0 447.94 342.1">
  <defs>
    <clipPath id="e7283297-28c1-4eb7-86c7-1a80c0dd7ccd" transform="translate(-7.94 -8.04)">
      <polygon points="240.29 264.93 218.89 283.96 194.13 283.96 172.37 264.93 172.37 229.09 238.56 229.09 240.29 264.93" fill="none"/>
    </clipPath>
  </defs>
  <title>pulaa_web</title>
  <g>
    <path d="M414.32,268.92s.37,5.92,1.82,7.4-4.47,0-4.47,0v-4Z" transform="translate(-7.94 -8.04)" fill="#58595b"/>
    <g>
      <g>
        <g>
          <path d="M17.9,304.48l-3.24-1.08L29,260.54a27.65,27.65,0,0,1,39.12-15.72,24.13,24.13,0,0,0,31.56-8.16l24-36.64a27.66,27.66,0,0,1,32-11.06,75.67,75.67,0,0,0,83.93-25.38l19.56-25.27a66,66,0,0,1,52.25-25.63,24.36,24.36,0,0,0,21.85-13.75,116.35,116.35,0,0,1,52.62-53.5L446.65,15l1.53,3.06L387.32,48.49a112.89,112.89,0,0,0-51.06,51.92,27.8,27.8,0,0,1-24.93,15.7,62.63,62.63,0,0,0-49.54,24.3l-19.56,25.27a79,79,0,0,1-87.72,26.53,24.23,24.23,0,0,0-28,9.69l-24,36.64a27.65,27.65,0,0,1-36,9.31,24.22,24.22,0,0,0-34.28,13.77Z" transform="translate(-7.94 -8.04)" fill="orange"/>
          <g>
            <circle cx="16.42" cy="303.62" r="8.48" transform="translate(-293.73 262.1) rotate(-80.58)" fill="#324fff"/>
            <circle cx="16.43" cy="303.62" r="4.7" transform="translate(-11.03 -7.86) rotate(-0.58)" fill="#fff"/>
          </g>
          <g>
            <circle cx="32.29" cy="239.51" r="8.48" fill="#324fff"/>
            <circle cx="32.29" cy="239.51" r="4.7" fill="#fff"/>
          </g>
          <g>
            <circle cx="88.13" cy="247.56" r="8.48" transform="translate(-178.23 287.14) rotate(-80.85)" fill="#324fff"/>
            <circle cx="80.19" cy="239.51" r="4.7" fill="#fff"/>
          </g>
          <g>
            <circle cx="128.09" cy="183.34" r="8.48" fill="#324fff"/>
            <circle cx="128.09" cy="183.34" r="4.7" fill="#fff"/>
          </g>
          <g>
            <circle cx="176.01" cy="187.12" r="8.48" fill="#324fff"/>
            <circle cx="175.99" cy="187.12" r="4.7" fill="#fff"/>
          </g>
          <g>
            <circle cx="223.9" cy="166.39" r="8.48" fill="#1957c2"/>
            <circle cx="223.9" cy="166.39" r="4.7" fill="#ffcb30"/>
          </g>
          <g>
            <circle cx="271.8" cy="114.2" r="8.48" fill="#324fff"/>
            <circle cx="271.8" cy="114.2" r="4.7" fill="#fff"/>
          </g>
          <g>
            <circle cx="319.7" cy="101.91" r="8.48" fill="#324fff"/>
            <circle cx="319.7" cy="101.91" r="4.7" fill="#fff"/>
          </g>
          <g>
            <circle cx="367.61" cy="44.93" r="8.48" fill="#324fff"/>
            <circle cx="367.61" cy="44.93" r="4.7" fill="#fff"/>
          </g>
          <g>
            <circle cx="439.46" cy="8.48" r="8.48" fill="#324fff"/>
            <circle cx="439.46" cy="8.48" r="4.7" fill="#fff"/>
          </g>
        </g>
        <g>
          <path d="M344.94,209.79H269.56A10.58,10.58,0,0,1,259,199.23V135.09a10.58,10.58,0,0,1,10.56-10.56h75.38a10.58,10.58,0,0,1,10.56,10.56v64.14A10.58,10.58,0,0,1,344.94,209.79Zm-75.38-74.7v64.14h75.38V135.09Z" transform="translate(-7.94 -8.04)" fill="#767676"/>
          <path d="M411.2,290.85a11.74,11.74,0,0,1-11.75,11.74H210.85a11.75,11.75,0,0,1-11.75-11.74V160.7A11.75,11.75,0,0,1,210.85,149H399.44a11.75,11.75,0,0,1,11.75,11.75V290.85Z" transform="translate(-7.94 -8.04)" fill="#8ceadc"/>
          <g>
            <rect x="191.16" y="204.19" width="212.1" height="7.72" fill="#f1f2f2"/>
            <rect x="191.16" y="196.47" width="212.1" height="7.72" fill="#005d68"/>
          </g>
          <path d="M324.06,231.54a5.27,5.27,0,0,1-5.28,5.28H291.52a5.27,5.27,0,0,1-5.28-5.28V181.68a5.27,5.27,0,0,1,5.28-5.28h27.26a5.28,5.28,0,0,1,5.28,5.28Z" transform="translate(-7.94 -8.04)" fill="#005d68"/>
          <path d="M316.15,223.9a3.07,3.07,0,0,1-3.07,3.07H297.22a3.07,3.07,0,0,1-3.07-3.07V192.84a3.07,3.07,0,0,1,3.07-3.07h15.86a3.07,3.07,0,0,1,3.07,3.07Z" transform="translate(-7.94 -8.04)" fill="#a3eee3"/>
          <path d="M294.15,208.37V223.9a3.07,3.07,0,0,0,3.07,3.07h15.86a3.06,3.06,0,0,0,3.07-3.07V208.37Z" transform="translate(-7.94 -8.04)" fill="#fff"/>
          <path d="M269.56,124.54h-.12l.12,10.55h75.38V124.54H269.56Z" transform="translate(-7.94 -8.04)" fill="#767676"/>
        </g>
        <g>
          <rect x="164.43" y="256.89" width="67.92" height="46.39" fill="orange"/>
          <polygon points="164.43 256.89 172.95 239.46 224.77 239.46 232.35 256.89 164.43 256.89" fill="#ffd36e"/>
          <polygon points="232.35 256.89 210.95 275.92 186.19 275.92 164.43 256.89 232.35 256.89" fill="#ffcb30"/>
          <polygon points="164.43 303.28 186.19 275.62 210.95 275.62 232.35 303.28 164.43 303.28" fill="#ffd36e"/>
          <g clip-path="url(#e7283297-28c1-4eb7-86c7-1a80c0dd7ccd)">
            <g>
              <polygon points="220.28 229 220.28 289.26 177.78 289.26 177.78 223.71 215.1 223.71 220.28 229" fill="#e6e7e8"/>
              <polygon points="215.1 223.71 215.1 229.05 220.28 229 215.1 223.71" fill="#9e8fae"/>
              <rect x="183.48" y="238.41" width="32.2" height="2.16" fill="#767676"/>
              <rect x="183.48" y="242.87" width="32.2" height="2.16" fill="#767676"/>
              <rect x="183.48" y="247.32" width="32.2" height="2.16" fill="#767676"/>
              <rect x="183.48" y="251.78" width="32.2" height="2.16" fill="#767676"/>
              <rect x="183.48" y="256.24" width="32.2" height="2.16" fill="#767676"/>
              <rect x="183.48" y="260.69" width="32.2" height="2.16" fill="#767676"/>
              <rect x="183.48" y="265.15" width="32.2" height="2.16" fill="#767676"/>
              <rect x="183.48" y="269.6" width="32.2" height="2.16" fill="#767676"/>
              <rect x="183.48" y="274.06" width="32.2" height="2.16" fill="#767676"/>
              <path d="M204.78,243.11a3.29,3.29,0,1,1,3.29-3.29A3.29,3.29,0,0,1,204.78,243.11Zm0-5.46a2.17,2.17,0,1,0,2.17,2.17A2.17,2.17,0,0,0,204.78,237.65Z" transform="translate(-7.94 -8.04)" fill="#767676"/>
            </g>
          </g>
          <polygon points="232.35 257.57 210.95 276.59 186.19 276.59 164.43 257.57 164.43 256.89 186.19 275.92 210.95 275.92 232.35 256.89 232.35 257.57" fill="#ffecb4"/>
        </g>
        <g>
          <path d="M361.25,157.49c0,2.18,4,9,5.3,7.4s3-5.69,5.31-5.78,4.34-.75,4,3.4,5.26,2.87,5.67-1.13,5.47-8.17,8.66-8.43c2.95-.24,6.53-3.49,7.05-4H356.87l5.42,5.07A6,6,0,0,0,361.25,157.49Z" transform="translate(-7.94 -8.04)" opacity="0.15" style="isolation: isolate"/>
          <g>
            <polygon points="353.99 134.31 382.24 133.07 380.49 139.46 364.05 146.35 353.57 141.69 353.99 134.31" fill="#002b4d"/>
            <polygon points="357.01 131.6 357.25 136.62 378.83 136.62 379.38 126.11 357.01 131.6" fill="#ff654d"/>
            <path d="M371.19,124.54s-7.21.83-8.9,2.22-3.51,16-2.94,16.78,31.81,1.17,32.6-.31-6.52-16.82-7.71-17.71S374.11,124.34,371.19,124.54Z" transform="translate(-7.94 -8.04)" fill="#ff5c3e"/>
            <path d="M367.21,142l-.44-1.76a.24.24,0,0,1,.16-.28l.6-.18a.24.24,0,0,0,.16-.18l.1-.55a.24.24,0,0,1,.23-.19h.49a.23.23,0,0,0,.2-.11l.3-.48a.24.24,0,0,1,.32-.08l.56.33a.24.24,0,0,0,.23,0l.33-.19a.23.23,0,0,1,.31.08l1.19,1.79a.24.24,0,0,1-.07.33l-.26.16a.24.24,0,0,1-.3,0h0a.24.24,0,0,0-.41.19v.08a.24.24,0,0,1-.13.25l-2.33,1.15,0,0c-.15,0-.86.19-1.18-.27A.14.14,0,0,1,367.21,142Z" transform="translate(-7.94 -8.04)" fill="#febac7"/>
            <path d="M383.6,142l.44-1.76a.24.24,0,0,0-.16-.28l-.6-.18a.24.24,0,0,1-.16-.18L383,139a.24.24,0,0,0-.23-.19h-.49a.23.23,0,0,1-.2-.11l-.3-.48a.24.24,0,0,0-.32-.08l-.56.33a.24.24,0,0,1-.23,0l-.33-.19a.23.23,0,0,0-.31.08l-1.19,1.79a.24.24,0,0,0,.07.33l.26.16a.24.24,0,0,0,.3,0h0a.24.24,0,0,1,.41.19v.08a.24.24,0,0,0,.13.25l2.33,1.15,0,0c.15,0,.86.19,1.18-.27A.14.14,0,0,0,383.6,142Z" transform="translate(-7.94 -8.04)" fill="#febac7"/>
            <g>
              <g>
                <path d="M370.41,116.2s-.77,6.66,4,6.66c4.31,0,4.16-5.73,4.16-5.73s.43-3.54-2.91-3.95S370.21,115,370.41,116.2Z" transform="translate(-7.94 -8.04)" fill="#ffd485"/>
                <path d="M377.4,114s-1,2.06,0,3.11a2.71,2.71,0,0,1,.76,2.56v0a6.66,6.66,0,0,0,2.12-4.29c.33-2.88-1-4.69-2.08-4.48,0,0-.44-2.21-3.25-2s-5.12,0-6.14,2.2a4.07,4.07,0,0,0,.76,4.17,13.77,13.77,0,0,0,1.1,4.4L370.3,117S373.38,112.85,377.4,114Z" transform="translate(-7.94 -8.04)" fill="#a5452b"/>
              </g>
              <path d="M378.49,117.48l-.33,2.25s1.59-.85,1.57-2a.83.83,0,0,0-.31-.71A.62.62,0,0,0,378.49,117.48Z" transform="translate(-7.94 -8.04)" fill="#ffd485"/>
              <path d="M370.42,116.83l.28,2.9s-1.53-.89-1.51-2S370.42,116.83,370.42,116.83Z" transform="translate(-7.94 -8.04)" fill="#ffd485"/>
            </g>
            <g>
              <path d="M380.88,132.39H369.09a3.35,3.35,0,0,0-3.36,3.36v6.36a3.35,3.35,0,0,0,3.36,3.36h11.79a3.35,3.35,0,0,0,3.36-3.36v-6.36A3.36,3.36,0,0,0,380.88,132.39Z" transform="translate(-7.94 -8.04)" fill="#e6e7e8"/>
              <path d="M383.93,146.08H366a.31.31,0,0,1-.31-.31h0a.31.31,0,0,1,.31-.31h17.89a.31.31,0,0,1,.31.31h0A.31.31,0,0,1,383.93,146.08Z" transform="translate(-7.94 -8.04)" fill="#746980"/>
              <path d="M381.27,145.75a.13.13,0,1,1-.13-.13A.13.13,0,0,1,381.27,145.75Z" transform="translate(-7.94 -8.04)" fill="#9e8fae"/>
              <rect x="371.69" y="137.58" width="1.06" height="0.26" fill="#9e8fae"/>
            </g>
            <g>
              <path d="M356,138.07,380.51,153a9.88,9.88,0,0,0-3.51,6.16l-25.54-12.86a4.68,4.68,0,0,1-1.69-6.92h0A4.66,4.66,0,0,1,356,138.07Z" transform="translate(-7.94 -8.04)" fill="#324fff"/>
              <path d="M380.51,153l4.08,2.3a.64.64,0,0,1,.24.86c-1.08,1.88-4.67,7.95-6.57,8.77,0,0-1.53-.49-.95-2.5a6.32,6.32,0,0,0-.2-3.86S377.24,153.86,380.51,153Z" transform="translate(-7.94 -8.04)" fill="#002b4d"/>
              <path d="M378.26,164.89c1.9-.83,5.49-6.9,6.57-8.77a.63.63,0,0,0-.07-.73C384,155.82,380.87,158,378.26,164.89Z" transform="translate(-7.94 -8.04)" fill="#2c4b80"/>
            </g>
            <g>
              <path d="M393.38,139.75l-25.9,12.31a9.87,9.87,0,0,1,2.87,6.48l26.71-10.2a4.69,4.69,0,0,0,2.39-6.71h0A4.69,4.69,0,0,0,393.38,139.75Z" transform="translate(-7.94 -8.04)" fill="#324fff"/>
              <path d="M367.47,152.06l-4.3,1.87a.62.62,0,0,0-.32.83c.88,2,3.84,8.38,5.64,9.4,0,0,1.57-.33,1.19-2.39a6.35,6.35,0,0,1,.59-3.82S370.63,153.3,367.47,152.06Z" transform="translate(-7.94 -8.04)" fill="#002b4d"/>
              <path d="M368.5,164.17c-1.8-1-4.76-7.42-5.64-9.4a.63.63,0,0,1,.15-.72C363.68,154.56,366.6,157.06,368.5,164.17Z" transform="translate(-7.94 -8.04)" fill="#2c4b80"/>
            </g>
            <g>
              <path d="M359.39,139.15a16.42,16.42,0,0,0,0,4.39c.16.22,3,.44,7,.62Z" transform="translate(-7.94 -8.04)" fill="#ff5c3e"/>
              <path d="M384.09,143.58c4.52-.06,7.64.16,7.86-.35a11.36,11.36,0,0,0-.19-3.52Z" transform="translate(-7.94 -8.04)" fill="#ff5c3e"/>
            </g>
          </g>
        </g>
        <g>
          <path d="M389.39,325l-4.26-1.86a.86.86,0,0,0-1.14.67l-.32,1.9,2.05.21-2.27,1.1-1.26,7.39.87.69s1.95-5,5-5.8Z" transform="translate(-7.94 -8.04)" fill="#231f20"/>
          <path d="M435.45,331.64l1.06,4.53a.86.86,0,0,0,1.22.51l1.71-.88-.53-2.07,1.72,1.46,6.67-3.42,0-1.11s-5.2,1.46-7.61-.49Z" transform="translate(-7.94 -8.04)" fill="#231f20"/>
          <path d="M417.35,299l1.43,1.71a6,6,0,0,0,2.1,1.6,133.14,133.14,0,0,1,13.3,7.49c.87.77,6.61,20.45,6.61,20.45-.91.66-3.3,1.36-5.54,2,0,0-6.92-11.25-8.1-17.06l-15.68-6.34L409,301.59Z" transform="translate(-7.94 -8.04)" fill="#1a6d77"/>
          <path d="M408.94,327.7s-10.19,4.91-20.88,2.34c-1-2.18.06-3.69,1.62-5.47a17.22,17.22,0,0,0,14.94-3.45,33.25,33.25,0,0,0-.15-6c-1-6.35-3-8.34-.11-14.55.43-.92.32-.63.68-1.42a54.55,54.55,0,0,1,13.13-.62s.19,7.68-4.35,10.13C413.82,308.66,414.31,323.91,408.94,327.7Z" transform="translate(-7.94 -8.04)" fill="#1a6d77"/>
          <path d="M405.72,274.89l7.52-.58,4.45.67a23,23,0,0,1,.39,9.18c-.92,5.66.18,12.07.08,14.37a.85.85,0,0,1-.78.87H405.54a.52.52,0,0,1-.49-.48l-2.73-17.49C402.16,280.2,402,274.89,405.72,274.89Z" transform="translate(-7.94 -8.04)" fill="#fff"/>
          <path d="M413.91,262.9s1,.22,1,2.17v4.38c0,1.24-.71,1.59-1.54,2.42s-.17,2.43-.17,2.43h0a3.52,3.52,0,0,1-4.44.48l-.48-.31a5.71,5.71,0,0,0,0-3c-.47-1.24-1.95-3.35-1.18-5.66S410.86,259.85,413.91,262.9Z" transform="translate(-7.94 -8.04)" fill="#ffb6a8"/>
          <g>
            <g>
              <path d="M423,257.21a5.38,5.38,0,0,1-.48-1.84l3.93-.63-.15,2.05S423.08,257.52,423,257.21Z" transform="translate(-7.94 -8.04)" fill="#febac7"/>
              <path d="M426.64,250.31l-.25,4.64-3.92.49a6.45,6.45,0,0,0-1.05-1.59,1.09,1.09,0,0,1-.26-1.28s.6-.5.84.15.24,1,.7,1,.39-2.69.39-2.69Z" transform="translate(-7.94 -8.04)" fill="#febac7"/>
            </g>
            <g>
              <path d="M426.64,250.24s0,1.56-.84,1.77c0,0-.41.14-.31-.34a8,8,0,0,0,.2-1.2C425.68,250.15,426.49,249.59,426.64,250.24Z" transform="translate(-7.94 -8.04)" fill="#febac7"/>
              <path d="M425.77,250.35s0,1.64-.88,1.86c0,0-.43.15-.33-.36a7.62,7.62,0,0,0,.21-1.26C424.77,250.26,425.62,249.67,425.77,250.35Z" transform="translate(-7.94 -8.04)" fill="#febac7"/>
              <path d="M424.84,250.46s0,1.64-.88,1.86c0,0-.43.15-.33-.36a7.62,7.62,0,0,0,.21-1.26C423.84,250.36,424.68,249.78,424.84,250.46Z" transform="translate(-7.94 -8.04)" fill="#febac7"/>
              <path d="M423.85,250.73s0,1.64-.88,1.86c0,0-.43.15-.33-.36a7.62,7.62,0,0,0,.21-1.26C422.85,250.63,423.7,250.05,423.85,250.73Z" transform="translate(-7.94 -8.04)" fill="#febac7"/>
            </g>
          </g>
          <g>
            <path d="M417.67,236.6a11.87,11.87,0,1,1-5.38,21.63,10,10,0,0,0-1.34-.78l-2.68-1.31a7.49,7.49,0,0,0-4.14-.72l-2.43.26-.58-5.35-.58-5.35,2.43-.26a7.52,7.52,0,0,0,3.89-1.59l1.32-1c.88-.7,1.72-1.45,2.54-2.23A11.83,11.83,0,0,1,417.67,236.6Z" transform="translate(-7.94 -8.04)" fill="#ffd36e"/>
            <path d="M401.7,255.68,400.55,245l-4.36.47a1.48,1.48,0,0,0-1.11.69l-2.86,4.54a1.27,1.27,0,0,0,.13,1.21l3.76,3.82a1.49,1.49,0,0,0,1.23.44Z" transform="translate(-7.94 -8.04)" fill="#ddd"/>
            <path d="M402,251.94a135.71,135.71,0,0,1,14.69-.3,12.54,12.54,0,0,1-.14-1.3,3.9,3.9,0,0,1,.33-1.83,8.83,8.83,0,0,1-.71-1.76h0a10.86,10.86,0,0,1-.14-1.09c-5.13,1.46-13.88,2.82-14.37,2.9l-.05-.36s4-.61,8.1-1.44c2.84-.57,4.86-1.05,6.3-1.47a6.42,6.42,0,0,1,.52-3.19,1.8,1.8,0,0,1,1.77-1,2.06,2.06,0,0,1,1.77,1.31,1.67,1.67,0,0,1-.58,1.84,9.6,9.6,0,0,1-3.09,1.32,10.93,10.93,0,0,0,.13,1.12,9.27,9.27,0,0,0,.56,1.44,3.91,3.91,0,0,1,.87-1,1.87,1.87,0,0,1,1.35-.52,2,2,0,0,1,1.69,2,1.7,1.7,0,0,1-1.58,1.78,2.56,2.56,0,0,1-2.31-1.46,3.57,3.57,0,0,0-.2,1.42,11.07,11.07,0,0,0,.16,1.34,8.06,8.06,0,0,1,3.29.7,1.79,1.79,0,0,1,.94,1.84,2,2,0,0,1-1.52,1.52,1.75,1.75,0,0,1-1.87-.66,7.85,7.85,0,0,1-1.15-3.07,141.32,141.32,0,0,0-14.72.3Zm17.72-9.44a1.72,1.72,0,0,0-1.46-1.06,1.42,1.42,0,0,0-1.42.83,6.13,6.13,0,0,0-.48,2.91,8.31,8.31,0,0,0,2.87-1.21,1.44,1.44,0,0,0,.55-1.2A1.07,1.07,0,0,0,419.74,242.5Zm.42,10.16a7.65,7.65,0,0,0-3-.64,7.26,7.26,0,0,0,1.06,2.82,1.38,1.38,0,0,0,1.5.53,1.69,1.69,0,0,0,1.25-1.24,1.22,1.22,0,0,0,0-.33A1.67,1.67,0,0,0,420.16,252.66Zm-.88-5.74a1.47,1.47,0,0,0-1.08.44,3.52,3.52,0,0,0-.9,1.13c.48.83,1.18,1.62,2.09,1.52a1.34,1.34,0,0,0,1.26-1.42,1.55,1.55,0,0,0,0-.22A1.58,1.58,0,0,0,419.28,246.92Z" transform="translate(-7.94 -8.04)" fill="#fff"/>
          </g>
          <path d="M402.51,257.48l-3-1.14L400,253a.7.7,0,0,1,.16-.41l2-2.53a.33.33,0,0,1,.45-.07h0a.34.34,0,0,1,.09.48l-1.24,1.81a.08.08,0,0,0,0,.1l.1.09a.08.08,0,0,0,.11,0l1-1.62,1-1.21c.1-.14.43-.23.55-.12s.31.27,0,.66l-.76,1-1.05,1.73a.08.08,0,0,0,0,.1h0a.08.08,0,0,0,.1,0l1.31-1.8a.38.38,0,0,1,.56-.06h0a.38.38,0,0,1,.06.5l-1.15,1.64a.08.08,0,0,0,0,.1l0,0a.08.08,0,0,0,.12,0l1-1.29a.3.3,0,0,1,.42-.05h0a.29.29,0,0,1,.07.37l-.94,1.69-.21,1.22a2.77,2.77,0,0,1-.44,1.08Z" transform="translate(-7.94 -8.04)" fill="#ffb6a8"/>
        </g>
        <g>
          <path d="M144.87,280.67l12.67.55v3.51l-11.91,2.82S143.08,282.88,144.87,280.67Z" transform="translate(-7.94 -8.04)" fill="#eb8195"/>
          <g>
            <rect x="144.43" y="227.41" width="13.29" height="31.79" transform="translate(-78.31 53.66) rotate(-18.81)" fill="#767676"/>
            <path d="M147.31,239a46.42,46.42,0,1,1,29-58.92A46.47,46.47,0,0,1,147.31,239Zm-26-76.41A34.3,34.3,0,1,0,164.81,184,34.33,34.33,0,0,0,121.29,162.6Z" transform="translate(-7.94 -8.04)" fill="#ffd36e"/>
            <path d="M149.16,244.44a52.16,52.16,0,1,1,32.55-66.19A52.22,52.22,0,0,1,149.16,244.44Zm-29.24-85.85a38.53,38.53,0,1,0,48.9,24A38.58,38.58,0,0,0,119.92,158.59Z" transform="translate(-7.94 -8.04)" fill="#767676"/>
            <path d="M181,297.32a11.23,11.23,0,0,1-7,14.26h0a11.25,11.25,0,0,1-14.27-7l-12.87-37.78a11.25,11.25,0,0,1,7-14.27h0a11.25,11.25,0,0,1,14.27,7Z" transform="translate(-7.94 -8.04)" fill="#002b4d"/>
            <path d="M168.82,182.64a38.52,38.52,0,0,1-6,36l11.59,7.23a52.13,52.13,0,0,0-58.84-80.21l4.39,12.9A38.58,38.58,0,0,1,168.82,182.64Z" transform="translate(-7.94 -8.04)" fill="#767676"/>
            <path d="M178.31,300.15c1,3-1.46,6.5-5.52,7.88s-8.17.09-9.18-2.88,1.46-6.5,5.51-7.88S177.3,297.18,178.31,300.15Z" transform="translate(-7.94 -8.04)" fill="#767676"/>
          </g>
          <g>
            <path d="M128.26,300.94l-1.17,19.38s-2.75,7-2,23.33h5.06l4.14-23.33,3.06-11.64Z" transform="translate(-7.94 -8.04)" fill="#231f20"/>
            <path d="M136.4,262.36l1-2.35s-2.4-6-.51-7.89,6.7-2.86,8.57-1.56c2.18,1.51,1.1,5.74,1.1,5.74l.42,3c-.33.61-1.29.36-1.29.36s-.07,3.05-1.7,2.73c-1.84-.37-1.67.86-1.67,2.63S135.88,266.17,136.4,262.36Z" transform="translate(-7.94 -8.04)" fill="#ffb6a8"/>
            <path d="M142.59,265.58c1.33,3.83,4.19,5.65,4.41,10.42l0,8.46-1.44,10.7a9.23,9.23,0,0,1-2.49.3c-4.08-.5-14.12,3.28-13.9-.3a196.39,196.39,0,0,1,3.1-26.18c.74-2.53,2.78-7,4.15-6.61Z" transform="translate(-7.94 -8.04)" fill="#005d68"/>
            <path d="M138.3,276.93s1.94-1,6.89-.48v7.15l14.16-1.1-.42,4.12s-12.58,3.77-16.79,3.23S138.3,276.93,138.3,276.93Z" transform="translate(-7.94 -8.04)" fill="#ffb6a8"/>
            <path d="M145.54,295.15H129.15s-2,7.94,0,10.64,8.34,3.66,8.34,3.66l5.37,12.05a75.53,75.53,0,0,0,2.22,11.1,70.1,70.1,0,0,0,4.09,11.06l4.22-.47-3.06-23.07Z" transform="translate(-7.94 -8.04)" fill="#231f20"/>
            <path d="M148.53,251.17a1.66,1.66,0,0,0-1-1.79,4.26,4.26,0,0,0-2.1-.07l-.05,0a4.22,4.22,0,0,0-1.26-.78,4.6,4.6,0,0,0-2.84-.08,3.93,3.93,0,0,1-.83-.19,3.79,3.79,0,0,0-.95,0,5.48,5.48,0,0,0-1.63.66,4.07,4.07,0,0,0-2,3.36,18.19,18.19,0,0,0,.3,4.67,5.83,5.83,0,0,0,.93,2.15,3.88,3.88,0,0,0,.14-.61c.12-.53.81-.94.51-1.41-.84-1.28-.35-3.52.67-1.84.3.5,1.08-.58,1.37-1s.87-.42,1.08-.69a1.84,1.84,0,0,1,1.48-.64c1.46,0,1,.25,1.6.48a4,4,0,0,0,3.29,0,2.79,2.79,0,0,0,1.27-2.26" transform="translate(-7.94 -8.04)" fill="#a5452b"/>
          </g>
          <path d="M158.94,282.54a3.67,3.67,0,0,1,2.13-2.4c.81-.22,1.42-.37,1.81-.46a.58.58,0,0,1,.69.42h0a.58.58,0,0,1-.26.65l-1.11.68v.38l3.75-.33s.8.9-.23,1.34c0,0,.76.82,0,1.44a.52.52,0,0,1,0,.9h-.25s.37.18,0,.61l-6.63.88Z" transform="translate(-7.94 -8.04)" fill="#ffb6a8"/>
        </g>
        <g>
          <g>
            <path d="M59.2,177.36a1.16,1.16,0,0,0,.76-1,6,6,0,0,1,.24-1.82c.17-.26-.69-.25-.77.17a4.28,4.28,0,0,1-.49,1.06l-2.37-1.38a23.08,23.08,0,0,0,.52,2.84C57.31,177.74,59,177.66,59.2,177.36Z" transform="translate(-7.94 -8.04)" fill="#ffb6a8"/>
            <polygon points="50.49 168.5 50.58 168.9 51.78 167.7 50.49 168.5" fill="#ffb6a8"/>
            <path d="M60.49,187.1a4.24,4.24,0,0,0-.29,1.49,1.54,1.54,0,0,0,.69,1.29,2.21,2.21,0,0,0,2.17-.44,22.69,22.69,0,0,0,5.75-5.39,5.33,5.33,0,0,0,1.24-2.68c.16-2-2.21-7.83-3.68-6.36-2,2-3,5.75-4.12,7.35C61.27,183.73,61,185.5,60.49,187.1Z" transform="translate(-7.94 -8.04)" fill="#002b4d"/>
            <path d="M61.33,190.16A2.76,2.76,0,0,1,59,190c-1.11-.69-1.3-2.2-1.38-3.5-.18-3.13-.37-6.26-.55-9.39.13.37.63.43,1,.34a2.06,2.06,0,0,1,1.14-.12,1.46,1.46,0,0,1,.7.9,67.48,67.48,0,0,1,2.41,7.06,11.54,11.54,0,0,1,.82,3.32C63.06,189.49,62.05,189.91,61.33,190.16Z" transform="translate(-7.94 -8.04)" fill="#002b4d"/>
            <g>
              <path d="M59.11,176.12l-.14.09a1.15,1.15,0,0,1-1.59-.37l-1.29-2.08a1.15,1.15,0,0,1,.37-1.59l.14-.09a1.15,1.15,0,0,1,1.59.37l1.29,2.08A1.16,1.16,0,0,1,59.11,176.12Z" transform="translate(-7.94 -8.04)" fill="#fff"/>
              <rect x="56.57" y="172.5" width="2.47" height="3.31" transform="translate(-91.13 48.68) rotate(-31.85)" fill="#58595b"/>
              <rect x="56.47" y="172.37" width="0.58" height="0.11" transform="translate(-90.38 47.87) rotate(-31.85)" fill="#bcbec0"/>
            </g>
            <g>
              <path d="M55.72,173.62s.37-.81.54-.85.75.41-.11,1.54C56.15,174.31,55.38,174.39,55.72,173.62Z" transform="translate(-7.94 -8.04)" fill="#ffb6a8"/>
              <path d="M56,174.25s.37-.81.54-.85.75.41-.11,1.54C56.42,174.94,55.64,175,56,174.25Z" transform="translate(-7.94 -8.04)" fill="#ffb6a8"/>
              <path d="M56.38,174.63s.37-.81.54-.85.75.41-.11,1.54C56.81,175.33,56,175.4,56.38,174.63Z" transform="translate(-7.94 -8.04)" fill="#ffb6a8"/>
              <path d="M56.69,175.32s.37-.81.54-.85.75.41-.11,1.54C57.12,176,56.35,176.09,56.69,175.32Z" transform="translate(-7.94 -8.04)" fill="#ffb6a8"/>
            </g>
            <path d="M57.13,175.61a1.71,1.71,0,0,1,1.34,1.14c.32,1-.81.45-.81.45S57,176,57.13,175.61Z" transform="translate(-7.94 -8.04)" fill="#ffb6a8"/>
          </g>
          <path d="M64.29,238.6v2.91a.4.4,0,0,1-.37.4c-2,.12-11.28.67-12,0s.52-1.64,1.73-1.64,5.51-.75,5.61-2.16Z" transform="translate(-7.94 -8.04)" fill="#231f20"/>
          <path d="M76.05,215.13l3,.94a.32.32,0,0,1,.22.4c-.51,1.8-3.14,10.91-4,11.33s-1.61-1-1.2-2.12,1.4-6.41.11-7Z" transform="translate(-7.94 -8.04)" fill="#231f20"/>
          <path d="M67.49,197s-5.7,14.25-6.3,18.39-1.9,22.71-1.9,22.71,3,1,5,.52c0,0,3.89-16.53,4.58-19.36a40.76,40.76,0,0,1,3.8-9.74c1.73-3,4.46-4.14,6.64-5l-.84-2.89Z" transform="translate(-7.94 -8.04)" fill="#002b4d"/>
          <path d="M85.58,196.56s-1.33,6.3-6.83,8.19-12.94-1.05-12.94-1.05,4.37.83,11.31,11.63c0,0-1.28,3-3.19,3.37,0,0-18.68-13.8-19-17.63S70,195.85,70,195.85H84.9Z" transform="translate(-7.94 -8.04)" fill="#002b4d"/>
          <g>
            <rect x="55.86" y="195.68" width="17.07" height="1.01" transform="translate(-52.22 12.58) rotate(-13.59)" fill="#bcbec0"/>
            <rect x="51.15" y="182.05" width="1.01" height="17.07" transform="translate(-93.81 40.85) rotate(-28.98)" fill="#bcbec0"/>
            <path d="M56.42,197.92a.57.57,0,0,1-.43.68.58.58,0,0,1-.66-.47.56.56,0,1,1,1.09-.21Z" transform="translate(-7.94 -8.04)" fill="#d1d3d4"/>
            <path d="M56.15,198a.29.29,0,0,1-.21.34.27.27,0,0,1-.32-.23.29.29,0,0,1,.21-.34A.28.28,0,0,1,56.15,198Z" transform="translate(-7.94 -8.04)" fill="#fff"/>
          </g>
          <path d="M85.58,196.56l-.68-.72H70s5.27,3.49,14.55,3.49A12.61,12.61,0,0,0,85.58,196.56Z" transform="translate(-7.94 -8.04)" fill="#f1f2f2"/>
          <g>
            <path d="M58.31,168l.53,1.43a.87.87,0,0,0,.9.56h0s.36.79.11,1.09-.4.9.21.83l.85-.09a1.49,1.49,0,0,0,.66,1.15,2.33,2.33,0,0,0,2.89.46c1.33-.71,1.57.07,2,.45a8.79,8.79,0,0,1,1.17,2.29l4-3.8s-3.81-1.44-3.92-2.47-2.29-6.31-6.23-5.91S57.81,166.66,58.31,168Z" transform="translate(-7.94 -8.04)" fill="#ffb6a8"/>
            <path d="M64,168.58l-.42,0a19.43,19.43,0,0,1,.53,2.27c.07.69-.86.42-1.64.5a5.8,5.8,0,0,0-1.58.45,1.49,1.49,0,0,0,.66,1.15,2.33,2.33,0,0,0,2.89.46,2,2,0,0,1,.93-.29c.63-.38.17-1.61-.38-2.06A6.9,6.9,0,0,1,64,168.58Z" transform="translate(-7.94 -8.04)" fill="#58595b"/>
            <path d="M62.38,172.12c-.48.28-1,.22-1.23.41a2.14,2.14,0,0,0,.42.45l.06.05c.6-.19,1.18-.25,1.34-.45S63.29,171.59,62.38,172.12Z" transform="translate(-7.94 -8.04)" fill="#febac7"/>
            <path d="M63.59,168.62s-.81-1.76-1.53-1.68-.85-.91-.85-.91-2.62.47-2.71,2.5c0,0-3.15-1.36-2.12-3.07s5.28-1.81,5.28-1.81,2.47-1.28,4.26-.25,1.68,6.49,1.9,6.76-1.9,1.53-2.63.27a3.49,3.49,0,0,0,.61-2.34c-.29-1-1.93-1-1.76.6C64,168.7,63.62,168.89,63.59,168.62Z" transform="translate(-7.94 -8.04)" fill="#58595b"/>
          </g>
          <path d="M70,171.41l-.56-.43a7.86,7.86,0,0,0-3.27,2.79v1.59s-.75,5.26.49,8.62,4.17,10.29,3.34,11.86a11.88,11.88,0,0,0,9,.47c5-1.74-5.12-21.19-6-22S70,171.41,70,171.41Z" transform="translate(-7.94 -8.04)" fill="#e6e7e8"/>
          <path d="M70.41,172.18l1.34-.24s3.22,0,7.09,3,8.32,13.67,10.3,15.65a7.19,7.19,0,0,0,4.65,2s-4.82,5.89-9.89,5.89-7-1.48-8.75-4.87-1.92-4.46-4.36-6.9c-.79-.79-1.42-3.88-2.22-5C66.72,179.19,67.71,173.79,70.41,172.18Z" transform="translate(-7.94 -8.04)" fill="#002b4d"/>
          <path d="M67.53,194.9a4,4,0,0,1-2.33.37,2.33,2.33,0,0,1-1.73-1.1l-1,.87a.43.43,0,0,1-.47.06h0a.43.43,0,0,1-.19-.6l.66-1.21L61.15,193l-1.21.73a.36.36,0,0,1-.46-.09h0a.35.35,0,0,1,.06-.48L61,191.92a.41.41,0,0,1,.26-.09h1.63l3.45-.25Z" transform="translate(-7.94 -8.04)" fill="#ffb6a8"/>
          <path d="M68.82,179s.24,4.53,3.92,6.43a17.61,17.61,0,0,0,5.61,2.08l-12.17,4.08,1.12,3.62s13.77-3.08,17.78-5.62S77.75,175,73.69,174.21,68.82,179,68.82,179Z" transform="translate(-7.94 -8.04)" fill="#002b4d"/>
          <g>
            <path d="M63.71,193.79l-.77,1.09a.34.34,0,0,0,.07.47h0a.35.35,0,0,0,.44,0l1.2-1Z" transform="translate(-7.94 -8.04)" fill="#ffb6a8"/>
            <path d="M64.59,194l-.77,1.09a.34.34,0,0,0,.07.47h0a.35.35,0,0,0,.44,0l1.2-1Z" transform="translate(-7.94 -8.04)" fill="#ffb6a8"/>
          </g>
        </g>
      </g>
      <path d="M372.05,121.24s.49,2.66-.86,3.3c-.67.32-1.81,3.67,3,3.46,2.64-.12,4.95-1.32,2.84-3.43-1.11-1.12-.59-3.75-.59-3.75Z" transform="translate(-7.94 -8.04)" fill="#ffd485"/>
    </g>
    <path d="M396.38,279.58s6,2.61,6,5.76c.1,6.78-2.17,15.49-.37,15.36s7.53,1.47,9.11.09.76-9.8-.2-15.92c-.6-3.82-2.78-6.63-3.6-8.54-1.14-2.65-.7-1.09-2.16-1.44-3.87-.91-9.34-.19-7.47-4.73L403,257.41l-4.35-1.71s-7.46,15-7.44,18.45S396.38,279.58,396.38,279.58Z" transform="translate(-7.94 -8.04)" fill="#324fff"/>
    <path d="M413.24,274.31a15.47,15.47,0,0,0,3.76-.16c2.22-.33,9.05-3.27,8.76-4.45s-2.52-10.23-2.52-10.23a10.78,10.78,0,0,0,3.67-2.25c.32-.33,5.76,14.52,4.71,15.58s-11.53,7.18-11.81,9.25,1.85,19-1,18.7-4-.2-3.64-1.71,1.24-13,0-17.66S413.24,274.31,413.24,274.31Z" transform="translate(-7.94 -8.04)" fill="#324fff"/>
    <path d="M406,266.51s-2.12,8.52-3.27,9.3,6.44.47,6.44.47a65.36,65.36,0,0,0-.15-7c-.26-.64-1.15-1.48-.56-1.81a.41.41,0,0,1,.67.33V265.6s2.44.26,3.44-1.55,2.61.86,2.61.86.05-3.13-2.21-3.53S407.52,260.15,406,266.51Z" transform="translate(-7.94 -8.04)" fill="#58595b"/>
    <polygon points="357.79 127.78 356.75 130.23 357.79 130.42 357.79 127.78" fill="#fff"/>
    <polygon points="379.38 127.78 378.34 130.23 379.38 130.42 379.38 127.78" fill="#fff"/>
    <path d="M149.33,344.42l-.2,3.45a.35.35,0,0,0,.3.38c1.86.17,11.31,1,12,.27s-.34-2-1.54-2-6.48-1.05-6.55-2.59Z" transform="translate(-7.94 -8.04)" fill="#231f20"/>
    <path d="M125.14,344.26l0,3a.33.33,0,0,0,.23.42c1.8.5,11,3,11.79,2.38s0-2-1.16-2.29-6.2-2.18-6-3.7Z" transform="translate(-7.94 -8.04)" fill="#231f20"/>
  </g>
</svg>
