<svg id="a829fa91-65b8-4a8d-a94e-25dd0f36a569" data-name="Layer 1" xmlns="http://www.w3.org/2000/svg" xmlns:xlink="http://www.w3.org/1999/xlink" viewBox="0 0 447.95 342.1">
  <defs>
    <clipPath id="a445b7e7-8dab-48b4-90ff-6c5cd59cded2" transform="translate(-10.02 -5.34)">
      <polygon points="242.38 262.24 220.98 281.26 196.22 281.26 174.46 262.24 174.46 226.39 240.65 226.39 242.38 262.24" fill="none"/>
    </clipPath>
  </defs>
  <title>pulaa_tyypit</title>
  <path id="pulaa-viiva" d="M18.81,300.8s13.94-46.91,19.11-52.62c4.4-4.85,10.35-9.92,23.76-6s24.72,6,31.56,2.51,35.7-50.85,45.18-54.88,24,2.75,43.21,3.58c11.33.49,43.32-9,58.65-28.91s30.83-39.15,41.85-44c9.31-4.11,11.36-6.35,25.42-7.59,8.64-.76,17.27-.43,22.48-5.91s12.4-35.71,49.17-56.68c45.44-25.92,71.07-34.91,71.07-34.91" transform="translate(-10.02 -5.34)" fill="none" stroke="orange" stroke-miterlimit="10" stroke-width="3"/>
  <g>
    <path d="M416.41,266.22s.37,5.92,1.82,7.4-4.47,0-4.47,0v-4Z" transform="translate(-10.02 -5.34)" fill="#58595b"/>
    <g>
      <g>
        <g>
          <g>
            <circle cx="8.48" cy="295.53" r="8.48" fill="#324fff"/>
            <circle cx="8.5" cy="295.58" r="4.7" fill="#fff"/>
          </g>
          <g>
            <circle cx="32.31" cy="239.5" r="8.48" fill="#324fff"/>
            <circle cx="32.3" cy="239.52" r="4.7" fill="#fff"/>
          </g>
          <g>
            <circle cx="80.18" cy="239.59" r="8.48" fill="#324fff"/>
            <circle cx="80.2" cy="239.52" r="4.7" fill="#fff"/>
          </g>
          <g>
            <circle cx="128.1" cy="183.34" r="8.48" fill="#324fff"/>
            <circle cx="128.1" cy="183.34" r="4.7" fill="#fff"/>
          </g>
          <g>
            <circle cx="175.98" cy="187.19" r="8.48" fill="#324fff"/>
            <circle cx="176.01" cy="187.12" r="4.7" fill="#fff"/>
          </g>
          <g>
            <circle cx="223.91" cy="166.39" r="8.48" fill="#1957c2"/>
            <circle cx="223.91" cy="166.39" r="4.7" fill="#ffcb30"/>
          </g>
          <g>
            <circle cx="271.81" cy="114.2" r="8.48" fill="#324fff"/>
            <circle cx="271.81" cy="114.2" r="4.7" fill="#fff"/>
          </g>
          <g>
            <circle cx="319.71" cy="101.91" r="8.48" fill="#324fff"/>
            <circle cx="319.71" cy="101.91" r="4.7" fill="#fff"/>
          </g>
          <g>
            <circle cx="367.62" cy="44.93" r="8.48" fill="#324fff"/>
            <circle cx="367.62" cy="44.93" r="4.7" fill="#fff"/>
          </g>
          <g>
            <circle cx="439.47" cy="8.48" r="8.48" fill="#324fff"/>
            <circle cx="439.47" cy="8.48" r="4.7" fill="#fff"/>
          </g>
        </g>
        <g>
          <path d="M347,207.09H271.65a10.58,10.58,0,0,1-10.56-10.56V132.39a10.58,10.58,0,0,1,10.56-10.56H347a10.58,10.58,0,0,1,10.56,10.56v64.14A10.58,10.58,0,0,1,347,207.09Zm-75.38-74.7v64.14H347V132.39Z" transform="translate(-10.02 -5.34)" fill="#767676"/>
          <path d="M413.29,288.15a11.74,11.74,0,0,1-11.75,11.74H213a11.75,11.75,0,0,1-11.75-11.74V158A11.75,11.75,0,0,1,213,146.25H401.54A11.75,11.75,0,0,1,413.29,158Z" transform="translate(-10.02 -5.34)" fill="#8ceadc"/>
          <g>
            <rect x="191.17" y="204.19" width="212.1" height="7.72" fill="#f1f2f2"/>
            <rect x="191.17" y="196.47" width="212.1" height="7.72" fill="#005d68"/>
          </g>
          <path d="M326.15,228.84a5.27,5.27,0,0,1-5.28,5.28H293.61a5.27,5.27,0,0,1-5.28-5.28V179a5.27,5.27,0,0,1,5.28-5.28h27.26a5.28,5.28,0,0,1,5.28,5.28Z" transform="translate(-10.02 -5.34)" fill="#005d68"/>
          <path d="M318.24,221.2a3.07,3.07,0,0,1-3.07,3.07H299.31a3.07,3.07,0,0,1-3.07-3.07V190.14a3.07,3.07,0,0,1,3.07-3.07h15.86a3.07,3.07,0,0,1,3.07,3.07Z" transform="translate(-10.02 -5.34)" fill="#a3eee3"/>
          <path d="M296.24,205.67V221.2a3.07,3.07,0,0,0,3.07,3.07h15.86a3.06,3.06,0,0,0,3.07-3.07V205.67Z" transform="translate(-10.02 -5.34)" fill="#fff"/>
          <path d="M271.65,121.84h-.12l.12,10.55H347V121.84H271.65Z" transform="translate(-10.02 -5.34)" fill="#767676"/>
        </g>
        <g>
          <rect x="164.44" y="256.9" width="67.92" height="46.39" fill="orange"/>
          <polygon points="164.44 256.9 172.96 239.46 224.78 239.46 232.36 256.9 164.44 256.9" fill="#ffd36e"/>
          <polygon points="232.36 256.9 210.96 275.92 186.2 275.92 164.44 256.9 232.36 256.9" fill="#ffcb30"/>
          <polygon points="164.44 303.28 186.2 275.62 210.96 275.62 232.36 303.28 164.44 303.28" fill="#ffd36e"/>
          <g clip-path="url(#a445b7e7-8dab-48b4-90ff-6c5cd59cded2)">
            <g>
              <polygon points="220.29 229.01 220.29 289.26 177.79 289.26 177.79 223.71 215.11 223.71 220.29 229.01" fill="#e6e7e8"/>
              <polygon points="215.11 223.71 215.11 229.05 220.29 229.01 215.11 223.71" fill="#9e8fae"/>
              <rect x="183.49" y="238.41" width="32.2" height="2.16" fill="#767676"/>
              <rect x="183.49" y="242.87" width="32.2" height="2.16" fill="#767676"/>
              <rect x="183.49" y="247.33" width="32.2" height="2.16" fill="#767676"/>
              <rect x="183.49" y="251.78" width="32.2" height="2.16" fill="#767676"/>
              <rect x="183.49" y="256.24" width="32.2" height="2.16" fill="#767676"/>
              <rect x="183.49" y="260.69" width="32.2" height="2.16" fill="#767676"/>
              <rect x="183.49" y="265.15" width="32.2" height="2.16" fill="#767676"/>
              <rect x="183.49" y="269.6" width="32.2" height="2.16" fill="#767676"/>
              <rect x="183.49" y="274.06" width="32.2" height="2.16" fill="#767676"/>
              <path d="M206.87,240.41a3.29,3.29,0,1,1,3.29-3.29A3.29,3.29,0,0,1,206.87,240.41Zm0-5.46a2.17,2.17,0,1,0,2.17,2.17A2.17,2.17,0,0,0,206.87,235Z" transform="translate(-10.02 -5.34)" fill="#767676"/>
            </g>
          </g>
          <polygon points="232.36 257.57 210.96 276.59 186.2 276.59 164.44 257.57 164.44 256.9 186.2 275.92 210.96 275.92 232.36 256.9 232.36 257.57" fill="#ffecb4"/>
        </g>
        <g>
          <path d="M363.34,154.79c0,2.18,4,9,5.3,7.4s3-5.69,5.31-5.78,4.34-.75,4,3.4,5.26,2.87,5.67-1.13,5.47-8.17,8.66-8.43c2.95-.24,6.53-3.49,7.05-4H359l5.42,5.07A6.07,6.07,0,0,0,363.34,154.79Z" transform="translate(-10.02 -5.34)" opacity="0.15" style="isolation: isolate"/>
          <g>
            <polygon points="354 134.31 382.25 133.07 380.5 139.46 364.06 146.35 353.58 141.69 354 134.31" fill="#002b4d"/>
            <polygon points="357.02 131.6 357.26 136.62 378.85 136.62 379.39 126.11 357.02 131.6" fill="#ff654d"/>
            <path d="M373.28,121.84s-7.21.83-8.9,2.22-3.51,16-2.94,16.78,31.81,1.17,32.6-.31-6.52-16.82-7.71-17.71S376.2,121.64,373.28,121.84Z" transform="translate(-10.02 -5.34)" fill="#ff5c3e"/>
            <path d="M369.3,139.25l-.44-1.76a.24.24,0,0,1,.16-.28l.6-.18a.24.24,0,0,0,.16-.18l.1-.55a.24.24,0,0,1,.23-.19h.49a.23.23,0,0,0,.2-.11l.3-.48a.24.24,0,0,1,.32-.08l.56.33a.24.24,0,0,0,.23,0l.33-.19a.23.23,0,0,1,.31.08l1.19,1.79a.24.24,0,0,1-.07.33l-.26.16a.24.24,0,0,1-.3,0h0a.24.24,0,0,0-.41.19v.08a.24.24,0,0,1-.13.25l-2.33,1.15-.05,0c-.15,0-.86.19-1.18-.27A.14.14,0,0,1,369.3,139.25Z" transform="translate(-10.02 -5.34)" fill="#febac7"/>
            <path d="M385.69,139.25l.44-1.76a.24.24,0,0,0-.16-.28l-.6-.18a.24.24,0,0,1-.16-.18l-.1-.55a.24.24,0,0,0-.23-.19h-.49a.23.23,0,0,1-.2-.11l-.3-.48a.24.24,0,0,0-.32-.08l-.56.33a.24.24,0,0,1-.23,0l-.33-.19a.23.23,0,0,0-.31.08L381,137.45a.24.24,0,0,0,.07.33l.26.16a.24.24,0,0,0,.3,0h0a.24.24,0,0,1,.41.19v.08a.24.24,0,0,0,.13.25l2.33,1.15.05,0c.15,0,.86.19,1.18-.27A.14.14,0,0,0,385.69,139.25Z" transform="translate(-10.02 -5.34)" fill="#febac7"/>
            <g>
              <g>
                <path d="M372.5,113.5s-.77,6.66,4,6.66c4.31,0,4.16-5.73,4.16-5.73s.43-3.54-2.91-4S372.3,112.3,372.5,113.5Z" transform="translate(-10.02 -5.34)" fill="#ffd485"/>
                <path d="M379.49,111.31s-1.05,2.06,0,3.11a2.71,2.71,0,0,1,.76,2.56v0a6.66,6.66,0,0,0,2.12-4.29c.33-2.88-1-4.68-2.08-4.48,0,0-.44-2.21-3.25-2s-5.12,0-6.14,2.2a4.07,4.07,0,0,0,.76,4.17,13.77,13.77,0,0,0,1.1,4.4l-.37-2.75S375.47,110.15,379.49,111.31Z" transform="translate(-10.02 -5.34)" fill="#a5452b"/>
              </g>
              <path d="M380.58,114.78l-.33,2.25s1.59-.85,1.57-2a.83.83,0,0,0-.31-.71A.62.62,0,0,0,380.58,114.78Z" transform="translate(-10.02 -5.34)" fill="#ffd485"/>
              <path d="M372.51,114.13l.28,2.9s-1.53-.89-1.51-2S372.51,114.13,372.51,114.13Z" transform="translate(-10.02 -5.34)" fill="#ffd485"/>
            </g>
            <g>
              <path d="M383,129.69H371.18a3.35,3.35,0,0,0-3.36,3.36v6.36a3.35,3.35,0,0,0,3.36,3.36H383a3.35,3.35,0,0,0,3.36-3.36v-6.36A3.36,3.36,0,0,0,383,129.69Z" transform="translate(-10.02 -5.34)" fill="#e6e7e8"/>
              <path d="M386,143.38H368.13a.31.31,0,0,1-.31-.31h0a.31.31,0,0,1,.31-.31H386a.31.31,0,0,1,.31.31h0A.31.31,0,0,1,386,143.38Z" transform="translate(-10.02 -5.34)" fill="#746980"/>
              <path d="M383.36,143.05a.13.13,0,1,1-.13-.13A.13.13,0,0,1,383.36,143.05Z" transform="translate(-10.02 -5.34)" fill="#9e8fae"/>
              <rect x="371.7" y="137.58" width="1.06" height="0.26" fill="#9e8fae"/>
            </g>
            <g>
              <path d="M358.08,135.37l24.52,14.89a9.88,9.88,0,0,0-3.51,6.16l-25.54-12.86a4.68,4.68,0,0,1-1.69-6.92h0A4.66,4.66,0,0,1,358.08,135.37Z" transform="translate(-10.02 -5.34)" fill="#324fff"/>
              <path d="M382.6,150.25l4.08,2.3a.64.64,0,0,1,.24.86c-1.08,1.88-4.67,8-6.57,8.77,0,0-1.53-.49-1-2.5a6.39,6.39,0,0,0-.2-3.86S379.34,151.17,382.6,150.25Z" transform="translate(-10.02 -5.34)" fill="#002b4d"/>
              <path d="M380.35,162.19c1.9-.83,5.49-6.9,6.57-8.77a.63.63,0,0,0-.07-.73C386.12,153.12,383,155.32,380.35,162.19Z" transform="translate(-10.02 -5.34)" fill="#2c4b80"/>
            </g>
            <g>
              <path d="M395.47,137.05l-25.9,12.32a9.87,9.87,0,0,1,2.87,6.48l26.71-10.2a4.69,4.69,0,0,0,2.39-6.71h0A4.68,4.68,0,0,0,395.47,137.05Z" transform="translate(-10.02 -5.34)" fill="#324fff"/>
              <path d="M369.56,149.36l-4.3,1.87a.62.62,0,0,0-.32.83c.88,2,3.84,8.38,5.64,9.4,0,0,1.57-.33,1.19-2.39a6.35,6.35,0,0,1,.59-3.82S372.72,150.6,369.56,149.36Z" transform="translate(-10.02 -5.34)" fill="#002b4d"/>
              <path d="M370.59,161.47c-1.8-1-4.76-7.42-5.64-9.4a.63.63,0,0,1,.15-.72C365.77,151.86,368.69,154.36,370.59,161.47Z" transform="translate(-10.02 -5.34)" fill="#2c4b80"/>
            </g>
            <g>
              <path d="M361.48,136.45a16.42,16.42,0,0,0,0,4.39c.16.22,3,.44,7,.62Z" transform="translate(-10.02 -5.34)" fill="#ff5c3e"/>
              <path d="M386.18,140.88c4.52-.06,7.64.16,7.86-.35a11.36,11.36,0,0,0-.19-3.52Z" transform="translate(-10.02 -5.34)" fill="#ff5c3e"/>
            </g>
          </g>
        </g>
        <g>
          <path d="M391.48,322.29l-4.26-1.86a.86.86,0,0,0-1.14.67l-.32,1.9,2.05.21-2.27,1.1-1.26,7.39.87.69s2-5,5-5.8Z" transform="translate(-10.02 -5.34)" fill="#231f20"/>
          <path d="M437.54,328.94l1.06,4.53a.86.86,0,0,0,1.22.51l1.71-.88L441,331l1.72,1.46,6.67-3.42,0-1.11s-5.2,1.46-7.61-.49Z" transform="translate(-10.02 -5.34)" fill="#231f20"/>
          <path d="M419.44,296.34l1.43,1.71a6,6,0,0,0,2.1,1.6,133.14,133.14,0,0,1,13.3,7.49c.87.77,6.61,20.45,6.61,20.45-.91.66-3.3,1.36-5.54,2.05,0,0-6.92-11.25-8.1-17.06l-15.68-6.34-2.43-7.35Z" transform="translate(-10.02 -5.34)" fill="#1a6d77"/>
          <path d="M411,325s-10.19,4.91-20.88,2.34c-1-2.18.06-3.69,1.62-5.47a17.22,17.22,0,0,0,14.94-3.45,33.25,33.25,0,0,0-.15-6c-1-6.35-3-8.34-.11-14.55.43-.92.32-.63.68-1.42a54.55,54.55,0,0,1,13.13-.62s.19,7.68-4.35,10.13C415.91,306,416.4,321.21,411,325Z" transform="translate(-10.02 -5.34)" fill="#1a6d77"/>
          <path d="M407.81,272.19l7.52-.58,4.45.67a23,23,0,0,1,.39,9.18c-.92,5.66.18,12.07.08,14.37a.85.85,0,0,1-.78.87H407.63a.52.52,0,0,1-.49-.48l-2.73-17.49C404.25,277.5,404.07,272.19,407.81,272.19Z" transform="translate(-10.02 -5.34)" fill="#fff"/>
          <path d="M416,260.2s1,.22,1,2.17v4.38c0,1.24-.71,1.59-1.54,2.42s-.17,2.43-.17,2.43h0a3.52,3.52,0,0,1-4.44.48l-.48-.31a5.71,5.71,0,0,0,0-3c-.47-1.24-2-3.35-1.18-5.66S413,257.15,416,260.2Z" transform="translate(-10.02 -5.34)" fill="#ffb6a8"/>
          <g>
            <g>
              <path d="M425,254.51a5.38,5.38,0,0,1-.48-1.84l3.93-.63-.15,2.05S425.17,254.83,425,254.51Z" transform="translate(-10.02 -5.34)" fill="#febac7"/>
              <path d="M428.73,247.61l-.25,4.64-3.92.49a6.45,6.45,0,0,0-1.05-1.59,1.09,1.09,0,0,1-.26-1.28s.6-.5.84.15.24,1,.7,1,.39-2.69.39-2.69Z" transform="translate(-10.02 -5.34)" fill="#febac7"/>
            </g>
            <g>
              <path d="M428.73,247.54s0,1.56-.84,1.77c0,0-.41.14-.31-.34a8,8,0,0,0,.2-1.2C427.78,247.45,428.58,246.89,428.73,247.54Z" transform="translate(-10.02 -5.34)" fill="#febac7"/>
              <path d="M427.86,247.65s0,1.64-.88,1.86c0,0-.43.15-.33-.36a7.62,7.62,0,0,0,.21-1.26C426.86,247.55,427.71,247,427.86,247.65Z" transform="translate(-10.02 -5.34)" fill="#febac7"/>
              <path d="M426.93,247.76s0,1.64-.88,1.86c0,0-.43.15-.33-.36a7.62,7.62,0,0,0,.21-1.26C425.93,247.66,426.77,247.08,426.93,247.76Z" transform="translate(-10.02 -5.34)" fill="#febac7"/>
              <path d="M425.94,248s0,1.64-.88,1.86c0,0-.43.15-.33-.36a7.62,7.62,0,0,0,.21-1.26C424.94,247.93,425.79,247.35,425.94,248Z" transform="translate(-10.02 -5.34)" fill="#febac7"/>
            </g>
          </g>
          <g>
            <path d="M419.76,233.9a11.87,11.87,0,1,1-5.38,21.63,10,10,0,0,0-1.34-.78l-2.68-1.31a7.49,7.49,0,0,0-4.14-.72l-2.43.26-.58-5.35-.58-5.35,2.43-.26a7.52,7.52,0,0,0,3.89-1.59l1.32-1.05c.88-.7,1.72-1.45,2.54-2.23A11.89,11.89,0,0,1,419.76,233.9Z" transform="translate(-10.02 -5.34)" fill="#ffd36e"/>
            <path d="M403.79,253l-1.15-10.71-4.36.47a1.48,1.48,0,0,0-1.11.69L394.31,248a1.3,1.3,0,0,0,.13,1.21L398.2,253a1.49,1.49,0,0,0,1.23.44Z" transform="translate(-10.02 -5.34)" fill="#ddd"/>
            <path d="M404.11,249.24a135.71,135.71,0,0,1,14.69-.3,12.54,12.54,0,0,1-.14-1.3,3.9,3.9,0,0,1,.33-1.83,8.83,8.83,0,0,1-.71-1.76h0a10.86,10.86,0,0,1-.14-1.09c-5.13,1.46-13.88,2.82-14.37,2.9l0-.36s4-.61,8.1-1.44c2.84-.57,4.86-1.05,6.3-1.47a6.42,6.42,0,0,1,.52-3.19,1.8,1.8,0,0,1,1.77-1,2.06,2.06,0,0,1,1.77,1.31,1.67,1.67,0,0,1-.58,1.84,9.6,9.6,0,0,1-3.09,1.32,10.93,10.93,0,0,0,.13,1.12,9.27,9.27,0,0,0,.56,1.44,3.91,3.91,0,0,1,.87-1,1.87,1.87,0,0,1,1.35-.52,2,2,0,0,1,1.69,2,1.7,1.7,0,0,1-1.58,1.78,2.56,2.56,0,0,1-2.31-1.46,3.57,3.57,0,0,0-.2,1.42,11.07,11.07,0,0,0,.16,1.34,8.06,8.06,0,0,1,3.29.7,1.79,1.79,0,0,1,.94,1.84,2,2,0,0,1-1.52,1.52,1.75,1.75,0,0,1-1.87-.66,7.85,7.85,0,0,1-1.15-3.07,141.32,141.32,0,0,0-14.72.3Zm17.72-9.44a1.72,1.72,0,0,0-1.46-1.06,1.42,1.42,0,0,0-1.42.83,6.13,6.13,0,0,0-.48,2.91,8.31,8.31,0,0,0,2.87-1.21,1.44,1.44,0,0,0,.55-1.2A1.07,1.07,0,0,0,421.83,239.8Zm.42,10.16a7.65,7.65,0,0,0-3-.64,7.26,7.26,0,0,0,1.06,2.82,1.38,1.38,0,0,0,1.5.53,1.69,1.69,0,0,0,1.25-1.24,1.22,1.22,0,0,0,0-.33A1.67,1.67,0,0,0,422.25,250Zm-.88-5.74a1.47,1.47,0,0,0-1.08.44,3.52,3.52,0,0,0-.9,1.13c.48.83,1.18,1.62,2.09,1.52a1.34,1.34,0,0,0,1.26-1.42,1.55,1.55,0,0,0,0-.22A1.59,1.59,0,0,0,421.37,244.22Z" transform="translate(-10.02 -5.34)" fill="#fff"/>
          </g>
          <path d="M404.61,254.78l-3-1.14.51-3.35a.7.7,0,0,1,.16-.41l2-2.53a.33.33,0,0,1,.45-.07h0a.34.34,0,0,1,.09.48l-1.24,1.81a.08.08,0,0,0,0,.1l.1.09a.08.08,0,0,0,.11,0l1-1.62,1-1.21c.1-.14.43-.23.55-.12s.31.27,0,.66l-.76,1-1,1.73a.08.08,0,0,0,0,.1h0a.08.08,0,0,0,.1,0l1.31-1.8a.38.38,0,0,1,.56-.06h0a.38.38,0,0,1,.06.5l-1.15,1.64a.08.08,0,0,0,0,.1l0,0a.08.08,0,0,0,.12,0l1-1.29a.3.3,0,0,1,.42-.05h0a.29.29,0,0,1,.07.37l-.94,1.69-.21,1.22a2.77,2.77,0,0,1-.44,1.08Z" transform="translate(-10.02 -5.34)" fill="#ffb6a8"/>
        </g>
        <g>
          <path d="M147,278l12.67.55V282l-11.91,2.82S145.17,280.18,147,278Z" transform="translate(-10.02 -5.34)" fill="#eb8195"/>
          <g>
            <rect x="146.5" y="224.67" width="13.29" height="31.79" transform="translate(-79.4 56.88) rotate(-18.81)" fill="#767676"/>
            <path d="M149.41,236.31a46.42,46.42,0,1,1,29-58.92A46.47,46.47,0,0,1,149.41,236.31Zm-26-76.41a34.3,34.3,0,1,0,43.52,21.4A34.33,34.33,0,0,0,123.38,159.9Z" transform="translate(-10.02 -5.34)" fill="#ffd36e"/>
            <path d="M151.25,241.74a52.16,52.16,0,1,1,32.55-66.19A52.22,52.22,0,0,1,151.25,241.74ZM122,155.89a38.53,38.53,0,1,0,48.9,24.05A38.58,38.58,0,0,0,122,155.89Z" transform="translate(-10.02 -5.34)" fill="#767676"/>
            <path d="M183.11,294.62a11.23,11.23,0,0,1-7,14.26h0a11.25,11.25,0,0,1-14.27-7L149,264.08a11.25,11.25,0,0,1,7-14.27h0a11.25,11.25,0,0,1,14.27,7Z" transform="translate(-10.02 -5.34)" fill="#002b4d"/>
            <path d="M170.91,179.94a38.52,38.52,0,0,1-6,36l11.59,7.23A52.13,52.13,0,0,0,117.62,143l4.39,12.9A38.58,38.58,0,0,1,170.91,179.94Z" transform="translate(-10.02 -5.34)" fill="#767676"/>
            <path d="M180.4,297.45c1,3-1.46,6.5-5.52,7.88s-8.17.09-9.18-2.88,1.46-6.5,5.51-7.88S179.39,294.48,180.4,297.45Z" transform="translate(-10.02 -5.34)" fill="#767676"/>
          </g>
          <g>
            <path d="M130.35,298.24l-1.17,19.38s-2.75,7-2,23.33h5.06l4.14-23.33L139.43,306Z" transform="translate(-10.02 -5.34)" fill="#231f20"/>
            <path d="M138.49,259.66l1-2.35s-2.4-6-.51-7.89,6.7-2.86,8.57-1.56c2.18,1.51,1.1,5.74,1.1,5.74l.42,3c-.33.61-1.29.36-1.29.36s-.07,3.05-1.7,2.73c-1.84-.37-1.67.86-1.67,2.63S138,263.47,138.49,259.66Z" transform="translate(-10.02 -5.34)" fill="#ffb6a8"/>
            <path d="M144.68,262.88c1.33,3.83,4.19,5.65,4.41,10.42l0,8.46-1.44,10.7a9.23,9.23,0,0,1-2.49.3c-4.08-.5-14.12,3.28-13.9-.3a196.39,196.39,0,0,1,3.1-26.18c.74-2.53,2.78-7,4.15-6.61Z" transform="translate(-10.02 -5.34)" fill="#005d68"/>
            <path d="M140.39,274.23s1.94-1,6.89-.48v7.15l14.16-1.1-.42,4.12s-12.58,3.77-16.79,3.23S140.39,274.23,140.39,274.23Z" transform="translate(-10.02 -5.34)" fill="#ffb6a8"/>
            <path d="M147.63,292.45H131.24s-2,7.94,0,10.64,8.34,3.66,8.34,3.66L145,318.8a75.53,75.53,0,0,0,2.22,11.1A70.1,70.1,0,0,0,151.26,341l4.22-.47-3.06-23.07Z" transform="translate(-10.02 -5.34)" fill="#231f20"/>
            <path d="M150.62,248.47a1.66,1.66,0,0,0-1-1.79,4.26,4.26,0,0,0-2.1-.07l-.05,0a4.22,4.22,0,0,0-1.26-.78,4.6,4.6,0,0,0-2.84-.08,3.93,3.93,0,0,1-.83-.19,3.79,3.79,0,0,0-.95,0,5.48,5.48,0,0,0-1.63.66,4.07,4.07,0,0,0-2,3.36,18.19,18.19,0,0,0,.3,4.67,5.83,5.83,0,0,0,.93,2.15,3.88,3.88,0,0,0,.14-.61c.12-.53.81-.94.51-1.41-.84-1.28-.35-3.52.67-1.84.3.5,1.08-.58,1.37-1s.87-.42,1.08-.69a1.84,1.84,0,0,1,1.48-.64c1.46,0,1,.25,1.6.48a4,4,0,0,0,3.29,0,2.79,2.79,0,0,0,1.27-2.26" transform="translate(-10.02 -5.34)" fill="#a5452b"/>
          </g>
          <path d="M161,279.84a3.67,3.67,0,0,1,2.13-2.4c.81-.22,1.42-.37,1.81-.46a.58.58,0,0,1,.69.42h0a.58.58,0,0,1-.26.65l-1.11.68v.38l3.75-.33s.8.9-.23,1.34c0,0,.76.82,0,1.44a.52.52,0,0,1,0,.9h-.25s.37.18,0,.61l-6.63.88Z" transform="translate(-10.02 -5.34)" fill="#ffb6a8"/>
        </g>
        <g>
          <g>
            <path d="M61.29,174.66a1.16,1.16,0,0,0,.76-1,6,6,0,0,1,.24-1.82c.17-.26-.69-.25-.77.17a4.1,4.1,0,0,1-.49,1.06l-2.37-1.38a23.08,23.08,0,0,0,.52,2.84C59.41,175,61.1,175,61.29,174.66Z" transform="translate(-10.02 -5.34)" fill="#ffb6a8"/>
            <polygon points="50.5 168.5 50.59 168.9 51.79 167.7 50.5 168.5" fill="#ffb6a8"/>
            <path d="M62.59,184.4a4.24,4.24,0,0,0-.29,1.49,1.54,1.54,0,0,0,.69,1.29,2.21,2.21,0,0,0,2.17-.44,22.69,22.69,0,0,0,5.75-5.39,5.33,5.33,0,0,0,1.24-2.68c.16-1.95-2.21-7.83-3.68-6.36-2,2-3,5.75-4.12,7.35C63.36,181,63.11,182.8,62.59,184.4Z" transform="translate(-10.02 -5.34)" fill="#002b4d"/>
            <path d="M63.42,187.46a2.76,2.76,0,0,1-2.35-.14c-1.11-.69-1.3-2.2-1.38-3.5-.18-3.13-.37-6.26-.55-9.39.13.37.63.43,1,.34a2.06,2.06,0,0,1,1.14-.12,1.46,1.46,0,0,1,.7.9,67.48,67.48,0,0,1,2.41,7.06,11.54,11.54,0,0,1,.82,3.32C65.15,186.79,64.14,187.21,63.42,187.46Z" transform="translate(-10.02 -5.34)" fill="#002b4d"/>
            <g>
              <path d="M61.2,173.42l-.14.09a1.15,1.15,0,0,1-1.59-.37l-1.29-2.08a1.15,1.15,0,0,1,.37-1.59l.14-.09a1.15,1.15,0,0,1,1.59.37l1.29,2.08A1.15,1.15,0,0,1,61.2,173.42Z" transform="translate(-10.02 -5.34)" fill="#fff"/>
              <rect x="58.6" y="169.9" width="2.47" height="3.31" transform="translate(-91.53 52.06) rotate(-31.85)" fill="#58595b"/>
              <rect x="58.51" y="169.77" width="0.58" height="0.11" transform="translate(-90.78 51.25) rotate(-31.85)" fill="#bcbec0"/>
            </g>
            <g>
              <path d="M57.81,170.92s.37-.81.54-.85.75.41-.11,1.54C58.24,171.61,57.47,171.69,57.81,170.92Z" transform="translate(-10.02 -5.34)" fill="#ffb6a8"/>
              <path d="M58.08,171.55s.37-.81.54-.85.75.41-.11,1.54C58.51,172.24,57.73,172.31,58.08,171.55Z" transform="translate(-10.02 -5.34)" fill="#ffb6a8"/>
              <path d="M58.47,171.93s.37-.81.54-.85.75.41-.11,1.54C58.9,172.63,58.13,172.7,58.47,171.93Z" transform="translate(-10.02 -5.34)" fill="#ffb6a8"/>
              <path d="M58.78,172.63s.37-.81.54-.85.75.41-.11,1.54C59.21,173.32,58.44,173.39,58.78,172.63Z" transform="translate(-10.02 -5.34)" fill="#ffb6a8"/>
            </g>
            <path d="M59.22,172.91a1.71,1.71,0,0,1,1.34,1.14c.32,1-.81.45-.81.45S59.07,173.32,59.22,172.91Z" transform="translate(-10.02 -5.34)" fill="#ffb6a8"/>
          </g>
          <path d="M66.38,235.9v2.91a.4.4,0,0,1-.37.4c-2,.12-11.28.67-12,0s.52-1.64,1.73-1.64,5.51-.75,5.61-2.16Z" transform="translate(-10.02 -5.34)" fill="#231f20"/>
          <path d="M78.14,212.43l3,.94a.32.32,0,0,1,.22.4c-.51,1.8-3.14,10.91-4,11.33s-1.61-1-1.2-2.12,1.4-6.41.11-7Z" transform="translate(-10.02 -5.34)" fill="#231f20"/>
          <path d="M69.58,194.28s-5.7,14.25-6.3,18.39-1.9,22.71-1.9,22.71,3,1,5,.52c0,0,3.89-16.53,4.58-19.36a40.76,40.76,0,0,1,3.8-9.74c1.73-3,4.46-4.14,6.64-5L80.57,199Z" transform="translate(-10.02 -5.34)" fill="#002b4d"/>
          <path d="M87.67,193.86s-1.33,6.3-6.83,8.19S67.9,201,67.9,201s4.37.83,11.31,11.63c0,0-1.28,3-3.19,3.37,0,0-18.68-13.8-19-17.63s15.07-5.24,15.07-5.24H87Z" transform="translate(-10.02 -5.34)" fill="#002b4d"/>
          <g>
            <rect x="58.01" y="193.01" width="17.07" height="1.01" transform="translate(-53.62 15.71) rotate(-13.59)" fill="#bcbec0"/>
            <rect x="53.28" y="179.32" width="1.01" height="17.07" transform="translate(-94.3 44.24) rotate(-28.98)" fill="#bcbec0"/>
            <path d="M58.51,195.22a.57.57,0,0,1-.43.68.58.58,0,0,1-.66-.47.56.56,0,0,1,.43-.68A.57.57,0,0,1,58.51,195.22Z" transform="translate(-10.02 -5.34)" fill="#d1d3d4"/>
            <path d="M58.24,195.27a.29.29,0,0,1-.21.34.27.27,0,0,1-.32-.23.29.29,0,0,1,.21-.34A.28.28,0,0,1,58.24,195.27Z" transform="translate(-10.02 -5.34)" fill="#fff"/>
          </g>
          <path d="M87.67,193.86l-.68-.72H72.1s5.27,3.49,14.55,3.49A12.86,12.86,0,0,0,87.67,193.86Z" transform="translate(-10.02 -5.34)" fill="#f1f2f2"/>
          <g>
            <path d="M60.4,165.31l.53,1.43a.87.87,0,0,0,.9.56h0s.36.79.11,1.09-.4.9.21.83l.85-.09a1.49,1.49,0,0,0,.66,1.15,2.33,2.33,0,0,0,2.89.46c1.33-.71,1.57.07,2,.45a8.79,8.79,0,0,1,1.17,2.29l4-3.8s-3.81-1.44-3.92-2.47-2.29-6.31-6.23-5.91S59.91,164,60.4,165.31Z" transform="translate(-10.02 -5.34)" fill="#ffb6a8"/>
            <path d="M66.1,165.88l-.42,0a19.43,19.43,0,0,1,.53,2.27c.07.69-.86.42-1.64.5a5.8,5.8,0,0,0-1.58.45,1.49,1.49,0,0,0,.66,1.15,2.33,2.33,0,0,0,2.89.46,2,2,0,0,1,.93-.29c.63-.38.17-1.61-.38-2.06A6.9,6.9,0,0,1,66.1,165.88Z" transform="translate(-10.02 -5.34)" fill="#58595b"/>
            <path d="M64.47,169.42c-.48.28-1,.22-1.23.41a2.14,2.14,0,0,0,.42.45l.06.05c.6-.19,1.18-.25,1.34-.45S65.38,168.89,64.47,169.42Z" transform="translate(-10.02 -5.34)" fill="#febac7"/>
            <path d="M65.68,165.92s-.81-1.76-1.53-1.68-.85-.91-.85-.91-2.62.47-2.71,2.5c0,0-3.15-1.36-2.12-3.07S63.75,161,63.75,161s2.47-1.28,4.26-.25,1.68,6.49,1.9,6.76-1.9,1.53-2.63.27a3.49,3.49,0,0,0,.61-2.34c-.28-1-1.93-1-1.76.6C66.13,166,65.71,166.19,65.68,165.92Z" transform="translate(-10.02 -5.34)" fill="#58595b"/>
          </g>
          <path d="M72.09,168.71l-.56-.43a7.86,7.86,0,0,0-3.27,2.79v1.59s-.75,5.26.49,8.62,4.17,10.29,3.34,11.86a11.88,11.88,0,0,0,9,.47c5-1.74-5.12-21.19-6-22S72.09,168.71,72.09,168.71Z" transform="translate(-10.02 -5.34)" fill="#e6e7e8"/>
          <path d="M72.5,169.48l1.34-.24s3.22,0,7.09,3,8.32,13.67,10.3,15.65a7.19,7.19,0,0,0,4.65,2s-4.82,5.89-9.89,5.89-7-1.48-8.75-4.87-1.92-4.46-4.36-6.9c-.79-.79-1.42-3.88-2.22-5C68.81,176.49,69.8,171.09,72.5,169.48Z" transform="translate(-10.02 -5.34)" fill="#002b4d"/>
          <path d="M69.62,192.2a4,4,0,0,1-2.33.37,2.33,2.33,0,0,1-1.73-1.1l-1,.87a.43.43,0,0,1-.47.06h0a.43.43,0,0,1-.19-.6l.66-1.21-1.31-.29L62,191a.36.36,0,0,1-.46-.09h0a.35.35,0,0,1,.06-.48l1.49-1.24a.41.41,0,0,1,.26-.09H65l3.45-.25Z" transform="translate(-10.02 -5.34)" fill="#ffb6a8"/>
          <path d="M70.91,176.33s.24,4.53,3.92,6.43a17.61,17.61,0,0,0,5.61,2.08l-12.17,4.08,1.12,3.62s13.77-3.08,17.78-5.62-7.33-14.59-11.39-15.4S70.91,176.33,70.91,176.33Z" transform="translate(-10.02 -5.34)" fill="#002b4d"/>
          <g>
            <path d="M65.8,191.09,65,192.18a.34.34,0,0,0,.07.47h0a.35.35,0,0,0,.44,0l1.2-1Z" transform="translate(-10.02 -5.34)" fill="#ffb6a8"/>
            <path d="M66.69,191.29l-.77,1.09a.34.34,0,0,0,.07.47h0a.35.35,0,0,0,.44,0l1.2-1Z" transform="translate(-10.02 -5.34)" fill="#ffb6a8"/>
          </g>
        </g>
      </g>
      <path d="M374.14,118.54s.49,2.66-.86,3.3c-.67.32-1.81,3.67,3,3.46,2.64-.12,4.95-1.32,2.84-3.43-1.11-1.12-.59-3.75-.59-3.75Z" transform="translate(-10.02 -5.34)" fill="#ffd485"/>
    </g>
    <path d="M398.47,276.88s6,2.61,6,5.76c.1,6.78-2.17,15.49-.37,15.36s7.53,1.47,9.11.09.76-9.8-.2-15.92c-.6-3.82-2.78-6.63-3.6-8.54-1.14-2.65-.7-1.09-2.16-1.44-3.87-.91-9.34-.19-7.47-4.73l5.26-12.75L400.71,253s-7.46,15-7.44,18.45S398.47,276.88,398.47,276.88Z" transform="translate(-10.02 -5.34)" fill="#324fff"/>
    <path d="M415.33,271.61a15.47,15.47,0,0,0,3.76-.16c2.22-.33,9.05-3.27,8.76-4.45l-2.52-10.23a10.78,10.78,0,0,0,3.67-2.25c.32-.33,5.76,14.52,4.71,15.58s-11.53,7.18-11.81,9.25,1.85,19-1,18.7-4-.2-3.64-1.71,1.24-13,0-17.66S415.33,271.61,415.33,271.61Z" transform="translate(-10.02 -5.34)" fill="#324fff"/>
    <path d="M408,263.81s-2.12,8.52-3.27,9.3,6.44.47,6.44.47a65.36,65.36,0,0,0-.15-7c-.26-.64-1.15-1.48-.56-1.81a.41.41,0,0,1,.67.33V262.9s2.44.26,3.44-1.55,2.61.86,2.61.86,0-3.13-2.21-3.53S409.61,257.45,408,263.81Z" transform="translate(-10.02 -5.34)" fill="#58595b"/>
    <polygon points="357.8 127.78 356.76 130.23 357.8 130.42 357.8 127.78" fill="#fff"/>
    <polygon points="379.39 127.78 378.35 130.23 379.39 130.42 379.39 127.78" fill="#fff"/>
    <path d="M151.42,341.72l-.2,3.45a.35.35,0,0,0,.3.38c1.86.17,11.31,1,12,.27s-.34-2-1.54-2.05-6.48-1-6.55-2.59Z" transform="translate(-10.02 -5.34)" fill="#231f20"/>
    <path d="M127.23,341.56l0,3a.33.33,0,0,0,.23.42c1.8.5,11,3,11.79,2.38s0-2-1.16-2.29-6.2-2.18-6-3.7Z" transform="translate(-10.02 -5.34)" fill="#231f20"/>
  </g>
</svg>
