<svg id="af279aff-e578-4137-b677-bb27b80957d3" data-name="Layer 1" xmlns="http://www.w3.org/2000/svg" viewBox="0 0 54.68 31.45">
  <title>pulaa_raketti_web</title>
  <g>
    <g>
      <path d="M44.21,27.76c-1.18-3.1-11.53.64-11.53.64l.72,9.53a.68.68,0,0,0,.81.61l5.86-1.22a2.08,2.08,0,0,0,1.32-.9C42.52,34.66,45.14,30.21,44.21,27.76Z" transform="translate(-8.54 -7.1)" fill="#ff5c3e"/>
      <path d="M35.73,27.46c-1.74.47-3,.94-3,.94l.72,9.53a.68.68,0,0,0,.81.61l1.2-.25C35.63,34.63,35.87,29.56,35.73,27.46Z" transform="translate(-8.54 -7.1)" fill="#031162"/>
      <path d="M44.26,30.21a4.48,4.48,0,0,0,0-2.45c-1.18-3.1-11.53.64-11.53.64l.19,2.5C37.37,32.7,42,31.19,44.26,30.21Z" transform="translate(-8.54 -7.1)" fill="#c94646" opacity="0.5" style="isolation: isolate"/>
    </g>
    <g>
      <path d="M36.83,13.56C35.35,11.37,30.2,11,28.16,11a2.09,2.09,0,0,0-1.45.54l-4.42,4a.68.68,0,0,0,0,1l7.37,6.06S38.69,16.31,36.83,13.56Z" transform="translate(-8.54 -7.1)" fill="#ff5c3e"/>
      <path d="M22.31,16.56l7.37,6.06s1.2-.84,2.62-2c-1.37-1.19-5.72-4-9-6l-1,.94A.7.7,0,0,0,22.31,16.56Z" transform="translate(-8.54 -7.1)" fill="#031162"/>
      <path d="M27.75,21l1.93,1.59s9-6.31,7.15-9.06a4.4,4.4,0,0,0-2-1.45C32.76,13.39,28.86,16.32,27.75,21Z" transform="translate(-8.54 -7.1)" fill="#c94646" opacity="0.5" style="isolation: isolate"/>
    </g>
    <path d="M49,26.16c8.54-4.44,13.65-11.54,11.4-15.87s-11-4.24-19.54.2S27.22,22,29.47,26.36,40.46,30.6,49,26.16Z" transform="translate(-8.54 -7.1)" fill="#fff"/>
    <path d="M31.06,28.2,30,26.1,28.88,24h0a7.6,7.6,0,0,0-7.51,3.31l-.41.61A12.08,12.08,0,0,1,18,31l-9.47,6.2L19.06,33a12.17,12.17,0,0,1,4.23-.63l.74,0a7.59,7.59,0,0,0,7-4.23Z" transform="translate(-8.54 -7.1)" fill="#ffd36e"/>
    <path d="M29,23.37a4.83,4.83,0,0,0,2.65,5.11Z" transform="translate(-8.54 -7.1)" fill="#ffcb30"/>
    <path d="M60.41,10.3C58.66,6.93,53,6.24,46.49,8.2l7.63,14.7C59.44,18.72,62.16,13.67,60.41,10.3Z" transform="translate(-8.54 -7.1)" fill="#ff5c3e"/>
    <path d="M46.49,8.19l2.57,5A71.11,71.11,0,0,1,59.83,9.43C57.6,6.82,52.37,6.41,46.49,8.19Z" transform="translate(-8.54 -7.1)" fill="#c94646" opacity="0.5" style="isolation: isolate"/>
    <path d="M45.54,22.92a4.35,4.35,0,1,0-5.87-1.86A4.37,4.37,0,0,0,45.54,22.92Z" transform="translate(-8.54 -7.1)" fill="#ff5c3e"/>
    <path d="M44.77,21.43a2.68,2.68,0,1,0-3.61-1.14A2.68,2.68,0,0,0,44.77,21.43Z" transform="translate(-8.54 -7.1)" fill="#fff"/>
    <path d="M63.15,9.26a.74.74,0,0,0-.57-1L55.9,7.36a15.84,15.84,0,0,0,4.32,8.27Z" transform="translate(-8.54 -7.1)" fill="#031162"/>
    <path d="M59.19,12.75a1,1,0,0,0,1.69-.18l1.41-2.9a.23.23,0,0,0-.35-.29L59.36,11.3a1,1,0,0,0-.19,1.43Z" transform="translate(-8.54 -7.1)" fill="#2b3da1"/>
  </g>
</svg>
