<svg id="acdabeb5-fb10-4644-abd5-8b68a2406909" data-name="Layer 1" xmlns="http://www.w3.org/2000/svg" viewBox="0 0 128.13 90.91">
  <title>pulaa_katkoviiva_web</title>
  <path d="M119.23,95.61l-.29-.24c.4-.49.79-1,1.17-1.48l.3.23C120,94.62,119.64,95.12,119.23,95.61ZM122,92l-.31-.22c.36-.52.71-1.05,1-1.57l.32.2C122.7,90.92,122.34,91.45,122,92Zm2.43-3.85-.33-.19c.31-.54.62-1.1.91-1.65l.33.18C125,87,124.73,87.58,124.41,88.13Zm2.09-4-.34-.16c.26-.57.52-1.15.75-1.73l.35.14C127,82.92,126.77,83.51,126.5,84.08Zm1.71-4.22-.36-.12c.2-.59.4-1.19.58-1.79l.36.11C128.61,78.66,128.41,79.27,128.21,79.86Zm1.28-4.37-.37-.09c.15-.61.28-1.23.4-1.84l.37.07C129.77,74.25,129.64,74.87,129.49,75.49Zm.83-4.48-.38-.05c.08-.62.15-1.25.21-1.87l.38,0C130.47,69.74,130.4,70.38,130.32,71Zm.36-4.55h-.38c0-.4,0-.8,0-1.19,0-.23,0-.46,0-.69h.38c0,.23,0,.46,0,.69C130.7,65.66,130.69,66.06,130.68,66.46Zm-.48-4.52c0-.62-.1-1.25-.18-1.87l.38,0q.1.94.18,1.89Zm-.55-4.49c-.11-.62-.22-1.24-.35-1.85l.37-.08c.13.61.25,1.24.36,1.87Zm-1-4.42c-.16-.6-.34-1.21-.52-1.81l.36-.11c.18.6.36,1.22.52,1.83Zm-1.35-4.31c-.21-.59-.44-1.18-.67-1.76l.35-.14c.24.59.46,1.18.68,1.77Zm-1.72-4.19c-.26-.56-.53-1.14-.81-1.7l.34-.17c.28.57.56,1.14.82,1.71Zm-2-4c-.31-.55-.62-1.1-1-1.63l.32-.2c.32.54.64,1.09.95,1.64Zm-2.35-3.87c-.35-.52-.71-1-1.07-1.55l.31-.22c.37.51.73,1,1.08,1.56ZM118.56,33c-.38-.49-.78-1-1.18-1.47l.29-.24c.4.49.8,1,1.19,1.48Zm-2.91-3.46q-.63-.69-1.29-1.38l.27-.26c.44.46.88.92,1.3,1.39Zm-3.16-3.24c-.45-.43-.92-.86-1.39-1.28l.25-.28,1.4,1.28Zm-3.39-3c-.5-.41-1-.8-1.48-1.17l.23-.3c.49.38,1,.77,1.47,1.16Zm-3.61-2.74-1.55-1.07.21-.31c.52.35,1,.71,1.56,1.07Zm-3.78-2.49-1.62-1,.19-.33,1.63,1ZM97.78,15.8c-.55-.3-1.11-.58-1.68-.87l.17-.34q.86.42,1.68.87Zm-4-2L92,13l.15-.35,1.73.77ZM89.56,12c-.58-.23-1.17-.46-1.76-.67l.13-.36c.59.22,1.18.44,1.77.68ZM85.3,10.47l-1.8-.58.11-.36,1.8.58ZM2.62,9.71l-.05-.38,1.87-.28.06.37ZM81,9.13c-.61-.17-1.21-.34-1.82-.49l.1-.37,1.83.5ZM7.11,9l-.05-.38,1.87-.28L9,8.75Zm4.49-.66,0-.37,1.87-.27.05.37Zm65-.37L74.74,7.6l.08-.37,1.85.41ZM16.1,7.75l-.05-.37,1.88-.25L18,7.5Zm4.5-.59-.05-.38,1.88-.23.05.38Zm51.55-.08-1.86-.33.06-.37,1.87.33ZM25.1,6.61l0-.38L26.94,6l0,.38Zm42.58-.28-1.87-.25,0-.38L67.74,6Zm-38.07-.2,0-.38,1.88-.18,0,.38Zm33.57-.36c-.63-.07-1.25-.13-1.88-.18l0-.38,1.89.18Zm-29,0,0-.38L36,5.21l0,.38C35.39,5.63,34.76,5.67,34.13,5.73Zm4.52-.32,0-.38,1.89-.1,0,.38Zm20,0-1-.06-.94,0,0-.38.94,0,.95.06Zm-15.49-.2V4.81l1.89-.06v.38Zm11,0-1.89,0V4.73l1.89,0Zm-6.42-.07V4.71h1.89v.38H47.72Z" transform="translate(-2.57 -4.7)" fill="#9e8fae"/>
</svg>
