<svg id="a24219aa-b9a8-4087-9dd8-857b7adf2082" data-name="Layer 1" xmlns="http://www.w3.org/2000/svg" xmlns:xlink="http://www.w3.org/1999/xlink" viewBox="0 0 56.08 158.32">
  <defs>
    <clipPath id="fc1b3fe4-f877-426d-8227-d42c99d76e16" transform="translate(-4.6 -26.61)">
      <rect x="4.6" y="26.6" width="56.08" height="158.34" fill="none"/>
    </clipPath>
  </defs>
  <title>puuttuuko_yksi_web</title>
  <g>
    <g clip-path="url(#fc1b3fe4-f877-426d-8227-d42c99d76e16)">
      <path d="M52.12,152.12c3-25-1.91-38.6-4.24-42H17.51c-6.34,12.64-5.82,29.8-4.28,42,.54,4.26.93,9.06,1.34,14.14.48,5.92,1,12,1.77,18.24H30.61c.3-44.25,1.11-45,1.54-45.42a.42.42,0,0,1,.3-.12h.45a.42.42,0,0,1,.3.12c.41.38,1.25,1.17,1.54,45.42H49.07c.81-6.36,1.31-12.61,1.79-18.67.39-4.91.76-9.56,1.26-13.7" transform="translate(-4.6 -26.61)" fill="#fff"/>
    </g>
    <g clip-path="url(#fc1b3fe4-f877-426d-8227-d42c99d76e16)">
      <path d="M52.12,152.12c3-25-1.91-38.6-4.24-42H17.51c-6.34,12.64-5.82,29.8-4.28,42,.54,4.26.93,9.06,1.34,14.14.48,5.92,1,12,1.77,18.24H30.61c.3-44.25,1.11-45,1.54-45.42a.42.42,0,0,1,.3-.12h.45a.42.42,0,0,1,.3.12c.41.38,1.25,1.17,1.54,45.42H49.07c.81-6.36,1.31-12.61,1.79-18.67C51.25,160.91,51.62,156.26,52.12,152.12Z" transform="translate(-4.6 -26.61)" fill="none" stroke="#324fff" stroke-linecap="round" stroke-linejoin="round" stroke-width="0.88"/>
    </g>
    <g clip-path="url(#fc1b3fe4-f877-426d-8227-d42c99d76e16)">
      <path d="M14.82,90c-3.19-.65-6.38-.68-9.3-1.51-.32,3.71,0,9.53,0,11.21A141.89,141.89,0,0,0,7.81,121.6H7.75c-.69,3.61-.9,9.53-.64,10.3a12.53,12.53,0,0,0,3.09,3.22c.52.26,2.45,1.16,2.57.64s-.39-1.29-1.8-2.19-1.25-2.16-1.08-3.91.69-2.91,1.21-2a5.36,5.36,0,0,1,.39,3.09c-.13.64.94,1.67,1.31-.39a12.18,12.18,0,0,0,0-5.28,13.14,13.14,0,0,0-1.45-3.3c-.09-4.94-.33-18.31,0-20.54.17-1.09,3-8.89,3.44-11.22" transform="translate(-4.6 -26.61)" fill="#fff"/>
    </g>
    <g clip-path="url(#fc1b3fe4-f877-426d-8227-d42c99d76e16)">
      <path d="M14.82,90c-3.19-.65-6.38-.68-9.3-1.51-.32,3.71,0,9.53,0,11.21A141.89,141.89,0,0,0,7.81,121.6H7.75c-.69,3.61-.9,9.53-.64,10.3a12.53,12.53,0,0,0,3.09,3.22c.52.26,2.45,1.16,2.57.64s-.39-1.29-1.8-2.19-1.25-2.16-1.08-3.91.69-2.91,1.21-2a5.36,5.36,0,0,1,.39,3.09c-.13.64.94,1.67,1.31-.39a12.18,12.18,0,0,0,0-5.28,13.14,13.14,0,0,0-1.45-3.3c-.09-4.94-.33-18.31,0-20.54C11.55,100.14,14.35,92.34,14.82,90Z" transform="translate(-4.6 -26.61)" fill="none" stroke="#324fff" stroke-linecap="round" stroke-linejoin="round" stroke-width="0.88"/>
    </g>
    <g clip-path="url(#fc1b3fe4-f877-426d-8227-d42c99d76e16)">
      <path d="M52.52,89.7c3.19-.65,2.83-.11,5.75-.94.32,3.71,0,9.92,0,11.6a131.86,131.86,0,0,1-1.88,21.23h.06c.69,3.61.9,9.53.64,10.3A12.53,12.53,0,0,1,54,135.11c-.52.26-2.45,1.16-2.58.64s.39-1.29,1.8-2.19,1.25-2.16,1.08-3.91-.69-2.91-1.21-2a5.45,5.45,0,0,0-.39,3.09c.13.64-.94,1.67-1.31-.39a12.18,12.18,0,0,1,0-5.28,12.91,12.91,0,0,1,1.46-3.3c.09-4.94,1-18.78.66-21-.16-1.08-.51-8.71-1-11" transform="translate(-4.6 -26.61)" fill="#fff"/>
    </g>
    <g clip-path="url(#fc1b3fe4-f877-426d-8227-d42c99d76e16)">
      <path d="M52.52,89.7c3.19-.65,2.83-.11,5.75-.94.32,3.71,0,9.92,0,11.6a131.86,131.86,0,0,1-1.88,21.23h.06c.69,3.61.9,9.53.64,10.3A12.53,12.53,0,0,1,54,135.11c-.52.26-2.45,1.16-2.58.64s.39-1.29,1.8-2.19,1.25-2.16,1.08-3.91-.69-2.91-1.21-2a5.45,5.45,0,0,0-.39,3.09c.13.64-.94,1.67-1.31-.39a12.18,12.18,0,0,1,0-5.28,12.91,12.91,0,0,1,1.46-3.3c.09-4.94,1-18.78.66-21C53.35,99.67,53,92,52.52,89.7Z" transform="translate(-4.6 -26.61)" fill="none" stroke="#324fff" stroke-linecap="round" stroke-linejoin="round" stroke-width="0.88"/>
    </g>
    <g clip-path="url(#fc1b3fe4-f877-426d-8227-d42c99d76e16)">
      <path d="M40.16,29c-8.51-4.14-16.61-1-19.25,4.27C18,39.09,17,53.34,19.25,57.82c.38.76.81,1.19,1.3,1.28,2.93.45,22.49.37,24.61.26.68-1.65,2.14-14.76-.28-23.33-1-3.67-2.62-6.05-4.72-7.07" transform="translate(-4.6 -26.61)" fill="#fff"/>
    </g>
    <g clip-path="url(#fc1b3fe4-f877-426d-8227-d42c99d76e16)">
      <path d="M40.16,29c-8.51-4.14-16.61-1-19.25,4.27C18,39.09,17,53.34,19.25,57.82c.38.76.81,1.19,1.3,1.28,2.93.45,22.49.37,24.61.26.68-1.65,2.14-14.76-.28-23.33C43.85,32.36,42.26,30,40.16,29Z" transform="translate(-4.6 -26.61)" fill="none" stroke="#324fff" stroke-linecap="round" stroke-linejoin="round" stroke-width="0.88"/>
    </g>
    <g clip-path="url(#fc1b3fe4-f877-426d-8227-d42c99d76e16)">
      <path d="M41.86,62.64a8.73,8.73,0,0,1-4.09-8,.44.44,0,0,1,.16-.34l.43-.35.52-.48c1.43-1.38,2-3.82,2.31-5.28.25-1.1.35-1.55.74-1.7a.7.7,0,0,1,.51.07c.41.28.64.17.71.14a2.74,2.74,0,0,0,.92-2.08c.18-1.68-.14-2.11-.25-2.2s-.13-.11-.4-.05a1.54,1.54,0,0,1-1.42,0c-.67-.4-.77-1.33-.85-2.07a1.65,1.65,0,0,1,0-.21c-.45,0-.91,0-1.39,0-2.61,0-5.85,0-12.26-4.37A38.41,38.41,0,0,0,23,40.22c0,.1,0,.34-.07.58-.11.84-.21,1.57-.73,1.74a.73.73,0,0,1-.78-.25.36.36,0,0,0-.23-.13c-.12.06-.35.47-.25,1.36.14,1.29.67,2.86,1.26,3.13a.41.41,0,0,0,.43-.07.68.68,0,0,1,.5-.07c.39.15.49.6.74,1.7.33,1.46.89,3.9,2.31,5.28.31.3.63.58,1,.85a.45.45,0,0,1,.16.35,8.73,8.73,0,0,1-4.09,7.94c-3,1.82-2.92,2.36-2.84,2.72a1.32,1.32,0,0,1,0,.85c.08.43,2.07,4.29,4,8,3.06,5.91,6.81,13.14,8.22,17.2,1.44-4.18,5.19-11.61,8.27-17.7,2-4,4.11-8.12,4.16-8.71a.81.81,0,0,1,0-.55c-.11,0-1.4-.81-3.06-1.81" transform="translate(-4.6 -26.61)" fill="#fff"/>
    </g>
    <g clip-path="url(#fc1b3fe4-f877-426d-8227-d42c99d76e16)">
      <path d="M41.86,62.64a8.73,8.73,0,0,1-4.09-8,.44.44,0,0,1,.16-.34l.43-.35.52-.48c1.43-1.38,2-3.82,2.31-5.28.25-1.1.35-1.55.74-1.7a.7.7,0,0,1,.51.07c.41.28.64.17.71.14a2.74,2.74,0,0,0,.92-2.08c.18-1.68-.14-2.11-.25-2.2s-.13-.11-.4-.05a1.54,1.54,0,0,1-1.42,0c-.67-.4-.77-1.33-.85-2.07a1.65,1.65,0,0,1,0-.21c-.45,0-.91,0-1.39,0-2.61,0-5.85,0-12.26-4.37A38.41,38.41,0,0,0,23,40.22c0,.1,0,.34-.07.58-.11.84-.21,1.57-.73,1.74a.73.73,0,0,1-.78-.25.36.36,0,0,0-.23-.13c-.12.06-.35.47-.25,1.36.14,1.29.67,2.86,1.26,3.13a.41.41,0,0,0,.43-.07.68.68,0,0,1,.5-.07c.39.15.49.6.74,1.7.33,1.46.89,3.9,2.31,5.28.31.3.63.58,1,.85a.45.45,0,0,1,.16.35,8.73,8.73,0,0,1-4.09,7.94c-3,1.82-2.92,2.36-2.84,2.72a1.32,1.32,0,0,1,0,.85c.08.43,2.07,4.29,4,8,3.06,5.91,6.81,13.14,8.22,17.2,1.44-4.18,5.19-11.61,8.27-17.7,2-4,4.11-8.12,4.16-8.71a.81.81,0,0,1,0-.55C44.81,64.41,43.52,63.64,41.86,62.64Z" transform="translate(-4.6 -26.61)" fill="none" stroke="#324fff" stroke-linecap="round" stroke-linejoin="round" stroke-width="0.88"/>
    </g>
    <g clip-path="url(#fc1b3fe4-f877-426d-8227-d42c99d76e16)">
      <path d="M54.29,66.56S43.77,63.18,42.52,62.7c0,0-7.47,15-9.94,15.06S22.52,62.7,22.52,62.7c-1.29.5-7.26,2-11,3.5-9,2.21-6,37-6,45.5,0,.24,6.11.32,6.27-.14,0-.11.73-5.86,2.73-16.44A78.61,78.61,0,0,0,15.87,83c-.35,1.68-.2,8.75,1.65,12.68,1.15,4.07-.74,5-2,12.5-.35,2.1-4.33,12.52-4.33,12.52,19.33,5.76,41.33,1,41.33,1s-2.57-11.41-3-13.5c-1.52-7.32-2.93-9.69-2-12.25,1.49-4.18,2-11.25,1.52-13.25,0,.12,1.42,7.73,2.48,13.77a100.52,100.52,0,0,1,1,15.23c.16.46,5.51.81,5.75.81s6.25-41.36-4-46" transform="translate(-4.6 -26.61)" fill="#fff"/>
    </g>
    <g clip-path="url(#fc1b3fe4-f877-426d-8227-d42c99d76e16)">
      <path d="M54.29,66.56S43.77,63.18,42.52,62.7c0,0-7.47,15-9.94,15.06S22.52,62.7,22.52,62.7c-1.29.5-7.26,2-11,3.5-9,2.21-6,37-6,45.5,0,.24,6.11.32,6.27-.14,0-.11.73-5.86,2.73-16.44A78.61,78.61,0,0,0,15.87,83c-.35,1.68-.2,8.75,1.65,12.68,1.15,4.07-.74,5-2,12.5-.35,2.1-4.33,12.52-4.33,12.52,19.33,5.76,41.33,1,41.33,1s-2.57-11.41-3-13.5c-1.52-7.32-2.93-9.69-2-12.25,1.49-4.18,2-11.25,1.52-13.25,0,.12,1.42,7.73,2.48,13.77a100.52,100.52,0,0,1,1,15.23c.16.46,5.51.81,5.75.81S64.52,71.16,54.29,66.56Z" transform="translate(-4.6 -26.61)" fill="none" stroke="#324fff" stroke-linecap="round" stroke-linejoin="round" stroke-width="0.88"/>
    </g>
  </g>
</svg>
