<svg id="afaf0085-82be-4a3d-8c31-f6507d1121a0" data-name="Layer 1" xmlns="http://www.w3.org/2000/svg" xmlns:xlink="http://www.w3.org/1999/xlink" viewBox="0 0 416.11 168.62">
  <defs>
    <clipPath id="e4172d87-8192-4e1a-9b1e-83e09cd604a5" transform="translate(-7.16 -16.33)">
      <rect x="7.16" y="16.33" width="416.1" height="168.61" fill="none"/>
    </clipPath>
    <clipPath id="ee0e6836-3642-4254-9417-84635af90335" transform="translate(-7.16 -16.33)">
      <path d="M94.53,71.86c-2.64-.23-9.29-15.55-9.29-15.55s-13,7.87-15.79,10.87c-5.39,5.79-5,16.53-6.89,26.59s-1.69,26.32,1.51,29.15,9.39,3.06,9.73,4.61c.66,3.06,3.31,3.41,6.72,3.06,1.76-.18,6.11.25,10.65.68a106.1,106.1,0,0,0,11.25.71c5.37-.21,14.26-4,16.12-6.72s6.31-3.31,9-3.1,2.58-.52,4.24-4,4.34-10,3.62-15.09-9.61-31.34-14.65-36.89c-4.28-4.72-18.32-9.84-18.32-9.84s-5.74,15.74-7.89,15.55" fill="none"/>
    </clipPath>
    <clipPath id="fb721f49-a3cd-447c-bf47-3dc4520a25b5" transform="translate(-7.16 -16.33)">
      <path d="M388.09,82.55a20.08,20.08,0,0,0-3.88,5,50.7,50.7,0,0,0-3.07-5c-2-2.83-.89-8.68-.89-8.68s-8.13,6.77-9.35,15.61c-.36,2.59-.88,9.12-1.08,14.28A139.4,139.4,0,0,1,366.9,123c-.64,2.54,8.79,6.54,18.38,6.46s20.15-4.85,20.15-4.85-3.47-8.87-4.79-13.06-3.13-25.58-3.13-25.58l-3.66-13.21a17.81,17.81,0,0,1-5.76,9.84" fill="none"/>
    </clipPath>
  </defs>
  <title>puuttuuko_ryhma_web</title>
  <g>
    <g>
      <g clip-path="url(#e4172d87-8192-4e1a-9b1e-83e09cd604a5)">
        <path d="M25.84,128.88a154.11,154.11,0,0,0-1.69,20.46c0,6.1,1.56,35.6,1.56,35.6H41.92s.41-10.28.31-12.34,2.3-16.74,3.14-17,2.24,6.37,2.57,9c.63,5.17.66,20.3.66,20.3H65.28s.7-16.68.89-24.18,1.63-22.69,1.45-24.55a81.58,81.58,0,0,0-2.44-11.57Z" transform="translate(-7.16 -16.33)" fill="#ffc2b7"/>
      </g>
      <g clip-path="url(#e4172d87-8192-4e1a-9b1e-83e09cd604a5)">
        <path d="M323.81,30.21s.5,11.77,1.35,14.17,6.95,6.69,8.56,6.75c2.49.11,7.77-4.41,8.5-6.14.91-2.14,1.83-13.27,1.83-13.27l-1.49-9.1L325.1,24.17Z" transform="translate(-7.16 -16.33)" fill="#ffdb8a"/>
      </g>
      <g clip-path="url(#e4172d87-8192-4e1a-9b1e-83e09cd604a5)">
        <path d="M348,61.44s-8,14.65-8.8,15.55-4.17,1.41-5.18,1.43-4.64-3.15-5-3.78S319,61.79,319,61.79s5.33-4.32,7.48-7.2a5.35,5.35,0,0,0,.81-1.64,14.55,14.55,0,0,0,.3-5.65c-.11-.92-.24-1.53-.24-1.53L340,45.16a36.71,36.71,0,0,0,.77,8.66c.94,3.56,7.21,7.62,7.21,7.62" transform="translate(-7.16 -16.33)" fill="#ffdb8a"/>
      </g>
      <g clip-path="url(#e4172d87-8192-4e1a-9b1e-83e09cd604a5)">
        <path d="M324.38,33.84a3,3,0,0,0-2.15,0c-1,.47-.61,3,0,4.07A4,4,0,0,0,325.17,40Z" transform="translate(-7.16 -16.33)" fill="#ffdb8a"/>
      </g>
      <g clip-path="url(#e4172d87-8192-4e1a-9b1e-83e09cd604a5)">
        <path d="M343.15,33.6a3,3,0,0,1,2.15,0c1,.47.61,3,0,4.07a4,4,0,0,1-2.94,2Z" transform="translate(-7.16 -16.33)" fill="#ffdb8a"/>
      </g>
      <g clip-path="url(#e4172d87-8192-4e1a-9b1e-83e09cd604a5)">
        <path d="M326.49,54.59s6.37,5.88,7.44,5.49,7.41-5,7.41-5l7.23,5.48s-3.1,35.48-3.18,38.35.31,30.62.31,30.62-8.76,4.49-9,4.49-10.21-4.49-10.21-4.49-2.5-41.16-4.36-48.21-5.5-18.6-5.5-18.6Z" transform="translate(-7.16 -16.33)" fill="#fff"/>
      </g>
      <g clip-path="url(#e4172d87-8192-4e1a-9b1e-83e09cd604a5)">
        <path d="M344.2,30.34a26.72,26.72,0,0,1-.29-3c0-.73-.55,0-.62.18a8.56,8.56,0,0,0-.06,2.27c-.07,1.57-.2,3.14-.4,4.7A18.52,18.52,0,0,1,342,38c-.25.75-.32,1.78-1,2.3a2.1,2.1,0,0,1-.58.29,16.77,16.77,0,0,1-5.64.68,46.81,46.81,0,0,1-5.68.06c-1.84-.21-2.45-1.27-3.12-2.83a23.42,23.42,0,0,1-1-3,25.21,25.21,0,0,1-.78-6.35.31.31,0,0,0-.62,0c0,1.5-.39,3-.3,4.47.07,1.14.07,2.28.18,3.42a41.3,41.3,0,0,0,1.76,8.5,13.64,13.64,0,0,0,3.8,5.59,8,8,0,0,0,8.68,1.77c6.39-2.56,5.88-11.47,6.33-17.05.1-1.22.18-2.45.28-3.67a8.9,8.9,0,0,0-.05-1.86" transform="translate(-7.16 -16.33)" fill="#a5452b"/>
      </g>
      <g clip-path="url(#e4172d87-8192-4e1a-9b1e-83e09cd604a5)">
        <path d="M347.22,21a5.93,5.93,0,0,0-.2-1.13,3.54,3.54,0,0,0-2.24-2.16c-1.49-.58-3,0-4.47.3-4.14.72-7.86-2.19-12-1.18a7.25,7.25,0,0,0-5,4.67,4.15,4.15,0,0,0,0,2.29c-1.28.17-1.43,1.81-1.36,2.82a45.86,45.86,0,0,0,1.33,7c.09.39.69.22.6-.17h0a.29.29,0,0,0,.25-.29c0-2.37.92-4.68.94-7.07a5.22,5.22,0,0,0,2.74.47,23,23,0,0,0,3-1,11.62,11.62,0,0,1,4.58.29c2,.37,5.41,1.49,7.74.78,0,.88.16,1.74.17,2.62a.28.28,0,0,0,.15.25c0,.15,0,.3,0,.45a.29.29,0,0,0,.15.26v2c-.07.31-.14.63-.22.94a.31.31,0,0,0,.6.17,19,19,0,0,0,.62-7.23,5.25,5.25,0,0,0,2.27-2.56,5.66,5.66,0,0,0,.41-2.58" transform="translate(-7.16 -16.33)" fill="#a5452b"/>
      </g>
      <g clip-path="url(#e4172d87-8192-4e1a-9b1e-83e09cd604a5)">
        <path d="M310.81,136.12s-1.09,29.45-1.24,33.79-.07,15-.07,15h22.28s3-24.64,4.73-24.8,3.74,24.8,3.74,24.8h23.2s-1.34-29.45-2.11-37-1.55-19.86-1.55-19.86H312.2Z" transform="translate(-7.16 -16.33)" fill="#231f20"/>
      </g>
      <g clip-path="url(#e4172d87-8192-4e1a-9b1e-83e09cd604a5)">
        <path d="M323.51,57.05a130.45,130.45,0,0,1,4,24.19c.79,12.71,2.7,59.22,1,60.54s-6.84,1.32-11.88-1-9.69-4.19-9.22-7.75-1.61-61.53,0-63.4,16.13-12.57,16.13-12.57" transform="translate(-7.16 -16.33)" fill="#002b4d"/>
      </g>
      <g clip-path="url(#e4172d87-8192-4e1a-9b1e-83e09cd604a5)">
        <path d="M344.28,57.32s-2.31,5.84-2.62,18.6-3.45,66-1.65,66.75,13.43-1.43,17.46-4.38,5.89-3.93,6-6.15-1.39-62.37-2.17-64.23-17.07-10.59-17.07-10.59" transform="translate(-7.16 -16.33)" fill="#002b4d"/>
      </g>
      <g clip-path="url(#e4172d87-8192-4e1a-9b1e-83e09cd604a5)">
        <path d="M316.63,62.19s-10.89,6.74-14,13.73c-2.21,4.92-5.27,44.85-1.39,48.19s27.82-3,27.82-3Z" transform="translate(-7.16 -16.33)" fill="#002b4d"/>
      </g>
      <g clip-path="url(#e4172d87-8192-4e1a-9b1e-83e09cd604a5)">
        <path d="M333.77,60.43c-.81.14-2.52,3.17-2,4.6.44,1.19,4.14.93,4.29.07.3-1.69-1.5-4.81-2.3-4.67" transform="translate(-7.16 -16.33)" fill="#ff5c3e"/>
      </g>
      <g clip-path="url(#e4172d87-8192-4e1a-9b1e-83e09cd604a5)">
        <path d="M335.15,65.41l-2.34.08s-2.73,32.75-2.52,34.15,2.66,6,3.22,6,4.48-4.81,4.43-6-2.79-34.18-2.79-34.18" transform="translate(-7.16 -16.33)" fill="#ff5c3e"/>
      </g>
      <g clip-path="url(#e4172d87-8192-4e1a-9b1e-83e09cd604a5)">
        <path d="M324.26,104.7c-.23-1.45-1.36-2.75-2.23-3.87a14.5,14.5,0,0,0-3.5-3.49,13.53,13.53,0,0,0-5.21-1.72,10.47,10.47,0,0,0-2.5-.13,4,4,0,0,0-1,.18c-.15,0-.5.33-.63.33a5.06,5.06,0,0,0-2.7.66c-.87.57-1.07,1.46-.31,2a2.12,2.12,0,0,0-1.53,1.6,1.46,1.46,0,0,0,1.32,1.35.83.83,0,0,0-.09.92c.34.78,1.37.83,2.1.86a15.94,15.94,0,0,1,4.76.64,5.91,5.91,0,0,0,2.43,2.92,7.35,7.35,0,0,0,8.08-.23,2,2,0,0,0,1-2" transform="translate(-7.16 -16.33)" fill="#ffdb8a"/>
      </g>
      <g clip-path="url(#e4172d87-8192-4e1a-9b1e-83e09cd604a5)">
        <path d="M326.63,101.73c-.23,0-3.31-1.88-3.95-1.39s-1.71,3.56-2,5.29-.59,4.92,0,5.45,3.63.93,3.63.93Z" transform="translate(-7.16 -16.33)" fill="#fff"/>
      </g>
      <g clip-path="url(#e4172d87-8192-4e1a-9b1e-83e09cd604a5)">
        <path d="M361.35,67.91s4.18,3.72,5.74,12.4,3.1,38.25-.77,42.17c-6.24,6.31-45.65-8.53-45.65-8.53L324.3,99.6l27.21,2.57,9.54-33.48Z" transform="translate(-7.16 -16.33)" fill="#002b4d"/>
      </g>
      <g clip-path="url(#e4172d87-8192-4e1a-9b1e-83e09cd604a5)">
        <path d="M351.16,93.63s-.81-.12-4.34,2a12.26,12.26,0,0,0-2.48,2.12s-.36.6-.51.94c-.52,1.15.48,2.75.86,3.82.19.54.39,1.48,1,1.67.29.09,1,2,1.26,1.92a14.05,14.05,0,0,0,2.68-.81Z" transform="translate(-7.16 -16.33)" fill="#ffdb8a"/>
      </g>
      <g clip-path="url(#e4172d87-8192-4e1a-9b1e-83e09cd604a5)">
        <path d="M342.92,108.26c.2-.11,3.8.06,4.14-.67s-.2-3.94-.76-5.61-1.83-4.6-2.61-4.79-3.63.92-3.63.92Z" transform="translate(-7.16 -16.33)" fill="#fff"/>
      </g>
    </g>
    <polygon points="321.86 104.73 340.86 97.31 335.2 79.93 304.72 90.89 321.86 104.73" fill="#002b4d"/>
    <g>
      <g clip-path="url(#e4172d87-8192-4e1a-9b1e-83e09cd604a5)">
        <path d="M111,90.44a9.18,9.18,0,0,0-2.25,2.27c-.85,1.32-.81,2.51-1.81,3.73a2.77,2.77,0,0,1-2,1.2L102.25,94s1.3-3.35,1.83-3.73a12.18,12.18,0,0,1,3.28-1.65c.61,0,3.68,1.87,3.68,1.87" transform="translate(-7.16 -16.33)" fill="#00ff7d"/>
      </g>
      <g clip-path="url(#e4172d87-8192-4e1a-9b1e-83e09cd604a5)">
        <path d="M71.61,118c-1.17,1.64-2.22,3.35-3.37,5s-1.94,3.17-3,4.69c-.23.33.31.64.54.31,1-1.53,1.92-3.16,3-4.69s2.2-3.36,3.37-5c.23-.33-.31-.64-.54-.31" transform="translate(-7.16 -16.33)" fill="#324fff"/>
      </g>
      <g clip-path="url(#e4172d87-8192-4e1a-9b1e-83e09cd604a5)">
        <path d="M72.11,156.65a27.08,27.08,0,0,1-.47-3.83,5.86,5.86,0,0,1,1-1l.15-.12c1,0,.44-4.42.55-5.09l3.26-19.78-11.75-3.84L68,144.13c-.05,1.69,0,3.38,0,5.07,0,2-.77,4.08-.1,6a12.4,12.4,0,0,0,1.93,3.6c.4.52,3,3.62,3.14,1.78,0,.53.94,0,1.05-.22.21-.52-.36-1.35-.64-1.77a15.77,15.77,0,0,1-1.26-1.95" transform="translate(-7.16 -16.33)" fill="#ffd485"/>
      </g>
      <g clip-path="url(#e4172d87-8192-4e1a-9b1e-83e09cd604a5)">
        <path d="M74.71,128.88a139,139,0,0,0-1.86,20.46c0,6.1,1.71,35.6,1.71,35.6h20s.45-10.28.34-12.34.41-16.74,1.34-17,2.47,6.37,2.82,9c.69,5.17.73,20.3.73,20.3h20.47s.78-16.68,1-24.18-.32-22.69-.52-24.55A75.35,75.35,0,0,0,118,124.64Z" transform="translate(-7.16 -16.33)" fill="#545454"/>
      </g>
      <g clip-path="url(#e4172d87-8192-4e1a-9b1e-83e09cd604a5)">
        <path d="M128.35,122.2s-6.25,10.25-6.61,11.18-2.58,5-2.58,5-1.7-3.41-2.74-5.11a13.7,13.7,0,0,0-1.29-2s2.22-7.34,4.65-8.38,8.58-1.09,8.58-1.09v.35Z" transform="translate(-7.16 -16.33)" fill="#ffd485"/>
      </g>
      <g clip-path="url(#e4172d87-8192-4e1a-9b1e-83e09cd604a5)">
        <path d="M84.28,30.59s.65,11.79,1.59,14.09C87.2,48,92.39,51,94,51c2.43.1,7.21-3.59,8.22-6,.87-2.1,1.88-13,1.88-13l-9-8.22-9.49.84Z" transform="translate(-7.16 -16.33)" fill="#ffd485"/>
      </g>
      <g clip-path="url(#e4172d87-8192-4e1a-9b1e-83e09cd604a5)">
        <path d="M108.25,61.44s-8,14.65-8.8,15.55-4.17,1.41-5.18,1.43-4.64-3.15-5-3.78S79.23,61.79,79.23,61.79s5.33-4.32,7.48-7.2A5.35,5.35,0,0,0,87.52,53a14.55,14.55,0,0,0,.3-5.65c-.11-.92-.24-1.53-.24-1.53l12.69-.61a36.71,36.71,0,0,0,.77,8.66c.93,3.56,7.21,7.62,7.21,7.62" transform="translate(-7.16 -16.33)" fill="#ffd485"/>
      </g>
      <g clip-path="url(#e4172d87-8192-4e1a-9b1e-83e09cd604a5)">
        <path d="M85.15,34.14a2.88,2.88,0,0,0-2.1,0c-.94.46-.6,3,0,4a3.9,3.9,0,0,0,2.87,2Z" transform="translate(-7.16 -16.33)" fill="#ffd485"/>
      </g>
      <g clip-path="url(#e4172d87-8192-4e1a-9b1e-83e09cd604a5)">
        <path d="M102.88,34.14a2.88,2.88,0,0,1,2.1,0c.94.46.6,3,0,4a3.9,3.9,0,0,1-2.87,2Z" transform="translate(-7.16 -16.33)" fill="#ffd485"/>
      </g>
      <g clip-path="url(#e4172d87-8192-4e1a-9b1e-83e09cd604a5)">
        <path d="M107,25.78a8.47,8.47,0,0,0-1.11-.89c0-2.91-2.75-5.59-5.53-6.64a20.23,20.23,0,0,0-3.53-1,12.5,12.5,0,0,0-6.13-.87,10,10,0,0,0-5.59,2.23c-1,.88-2,2.58-1.45,3.86a.38.38,0,0,0,0,.1c-2.44-.08-2.58,4.33-2.47,5.78s.29,3.86,1.43,5.13a2,2,0,0,0,2,.59,1.73,1.73,0,0,0,.77-1.71,6.64,6.64,0,0,1,0-2.59,14.93,14.93,0,0,1,1-1.87,3.88,3.88,0,0,0,.39-1.21h0a13,13,0,0,0,3.45,1.46,32.25,32.25,0,0,0,4.22,1.2c1.07.19,2.32.13,3.19.84.68.55.89,1.34,1.42,2a6.87,6.87,0,0,0,4,2.61c4.66.81,6.79-4.73,4.88-7.93a5.18,5.18,0,0,0-.91-1.14" transform="translate(-7.16 -16.33)" fill="#231f20"/>
      </g>
      <g clip-path="url(#e4172d87-8192-4e1a-9b1e-83e09cd604a5)">
        <path d="M101.63,36a2.45,2.45,0,0,1-2.2,1.8,2.17,2.17,0,0,1-1-.25A3.3,3.3,0,0,1,96.78,35a4.27,4.27,0,0,1,2.61-.63,4.84,4.84,0,0,1,2.48.56c.12.06-.21,1-.24,1.11M89.85,37.55a2.17,2.17,0,0,1-1,.25,2.45,2.45,0,0,1-2.2-1.8c0-.09-.36-1.13-.24-1.19a5.87,5.87,0,0,1,2.74-.57,5.46,5.46,0,0,1,1.39.23c.17.05,1,.24,1,.49a3.35,3.35,0,0,1-1.63,2.59m12.9-3.32c-.1-.2-.34-.26-.59-.34a6.1,6.1,0,0,0-1-.22,13.51,13.51,0,0,0-3.81,0,23.23,23.23,0,0,1-3.81.4c-1.23,0-2.42-.39-3.63-.5a10.05,10.05,0,0,0-3.86.26c-.91.29-.48,1.38-.3,2a4.35,4.35,0,0,0,.64,1.38,3.16,3.16,0,0,0,3.57,1.21c1.84-.75,2.13-2,2.52-3.23.56,0,1.11,0,1.67-.06a11.8,11.8,0,0,1,1.68.06c.19,0,.28.65.32.79a3.86,3.86,0,0,0,2.2,2.45,3.15,3.15,0,0,0,3.57-1.21,4.76,4.76,0,0,0,.8-1.83,3.31,3.31,0,0,0,.11-1,.53.53,0,0,0,0-.2" transform="translate(-7.16 -16.33)" fill="#231f20"/>
      </g>
    </g>
    <g clip-path="url(#ee0e6836-3642-4254-9417-84635af90335)">
      <path d="M85.23,56.32s6.66,15.31,9.29,15.55c2.15.19,7.87-15.55,7.87-15.55s14,5.12,18.32,9.84c5,5.55,13.93,31.83,14.65,36.89s-2,11.57-3.62,15.09-1.55,4.24-4.24,4-7.13.41-9,3.1-10.75,6.51-16.12,6.72-18.5-1.74-21.91-1.39-6.06,0-6.72-3.06c-.33-1.54-6.53-1.77-9.73-4.61s-3.44-19.1-1.51-29.15S64,73,69.41,67.19c2.83-3,15.82-10.87,15.82-10.87" transform="translate(-7.16 -16.33)" fill="#ff5c3e"/>
    </g>
    <g>
      <g clip-path="url(#e4172d87-8192-4e1a-9b1e-83e09cd604a5)">
        <path d="M270.65,64.91s.67,9.47,0,14.12-4.18,20-4.1,25-.16,8.76,2.21,10.39,4.54-.54,4.54-.54L280,83l-2.48-17.13Z" transform="translate(-7.16 -16.33)" fill="#ff5c3e"/>
      </g>
      <g clip-path="url(#e4172d87-8192-4e1a-9b1e-83e09cd604a5)">
        <path d="M250.4,145.56a28.54,28.54,0,0,1-.53-3.82,5.8,5.8,0,0,1,.95-1.06l.15-.13c1,0,.38-4.42.48-5.09l3-19.83L245.48,112l.65,21.08c0,1.69.06,3.38.06,5.07,0,2-.71,4.09,0,6a12.36,12.36,0,0,0,2,3.57c.41.51,3,3.58,3.17,1.73,0,.53.94,0,1-.24.2-.52-.38-1.35-.67-1.76a13.23,13.23,0,0,1-1.3-1.92" transform="translate(-7.16 -16.33)" fill="#a5452b"/>
      </g>
      <g clip-path="url(#e4172d87-8192-4e1a-9b1e-83e09cd604a5)">
        <path d="M243.61,129.61a74.93,74.93,0,0,0-1.6,11c-.36,5.68-.33,19.12,0,24.91s.65,19.47.65,19.47h19.58s.88-12.65.59-15.86.29-14.47.59-14.57S266.16,171,267.24,174s1.57,11,1.57,11h19.92a175.64,175.64,0,0,0-1.23-19.16c-1.2-9.2-2.18-17.88-2.48-23s-1.08-11.89-1.08-11.89Z" transform="translate(-7.16 -16.33)" fill="#ff5c3e"/>
      </g>
      <g clip-path="url(#e4172d87-8192-4e1a-9b1e-83e09cd604a5)">
        <path d="M272.19,33.56l-1.35,7.92s-.47,3.14-2,4.58c-.28.26-.67.62-1.14,1-2.13,1.87-5.84,4.83-7.83,4.68-.53,0-3-2-4.52-3.76a5.51,5.51,0,0,1-1-1.56,17,17,0,0,1-.84-4.06c-.33-2.69-.42-4.18-.5-6.23l0-1c0-.5,0-1,0-1.54s0-1.46,0-2.21c0-.11,0-.23,0-.34a4.6,4.6,0,0,1,.42-2.09c.5-.67,2.15-1.43,2.65-2.1.15-.2,1.32-1.8,1.48-1.74,0,0,6.85,2.72,9.27,3.41s5.43,5,5.43,5" transform="translate(-7.16 -16.33)" fill="#a5452b"/>
      </g>
      <g clip-path="url(#e4172d87-8192-4e1a-9b1e-83e09cd604a5)">
        <path d="M254.6,59.27s9,11.49,9.29,11.39,12.05-13.5,12.05-13.5-4.16-2.36-4.41-3.12-1-11.09-1-11.09-5.35,2.1-5.62,2.12-5.73,4.06-5.73,4.06,0,.42.08,1.06c0,.4.06.89.1,1.42.06.86.13,1.81.17,2.64,0,.36,0,.69.05,1,0,.62,0,.45,0,.54-.12.42-5,3.5-5,3.5" transform="translate(-7.16 -16.33)" fill="#a5452b"/>
      </g>
      <g clip-path="url(#e4172d87-8192-4e1a-9b1e-83e09cd604a5)">
        <path d="M256.41,58s1.17-2.68,2.16-2.82,4.79,3.74,4.79,3.74-3.26,1.2-3.51,1.2S256.41,58,256.41,58" transform="translate(-7.16 -16.33)" fill="#fff"/>
      </g>
      <g clip-path="url(#e4172d87-8192-4e1a-9b1e-83e09cd604a5)">
        <path d="M263.37,58.88s6.4-5.43,8.59-5.49c1,0,3.62,3.43,3.62,3.43s-4.5,1.62-4.69,1.78-7.52.28-7.52.28" transform="translate(-7.16 -16.33)" fill="#fff"/>
      </g>
      <g clip-path="url(#e4172d87-8192-4e1a-9b1e-83e09cd604a5)">
        <path d="M242.29,133.88s1.76,2.91,3.41,5.46,3.52,3,5,4.76,2.78-.83,3.58-1.88,4-5.3,4-5.3Z" transform="translate(-7.16 -16.33)" fill="#fff"/>
      </g>
      <g clip-path="url(#e4172d87-8192-4e1a-9b1e-83e09cd604a5)">
        <path d="M258.67,136.3s2.63,5.1,3.07,6.34.62,2.53,2,2.81,4.61-2.41,6.5-3.22,5.63-2.9,7.58-3.86,5.68-5.58,5.68-5.58Z" transform="translate(-7.16 -16.33)" fill="#fff"/>
      </g>
      <g clip-path="url(#e4172d87-8192-4e1a-9b1e-83e09cd604a5)">
        <path d="M251.59,31.67s0,0,0,0h0" transform="translate(-7.16 -16.33)" fill="#231f20"/>
      </g>
      <g clip-path="url(#e4172d87-8192-4e1a-9b1e-83e09cd604a5)">
        <path d="M252.89,31.44a4.65,4.65,0,0,1,3.26-1.25c1.14,0,1.87,1.21,4.28,1.09,2.6-.13,4.47-1.09,5.47-1.09,1.57,0,2.5,1.19,3,2.58s1.61,10.17,1.61,10.17a64.39,64.39,0,0,0,2.12-7.27c.77-4,.1-8.53-3.16-11.11s-8.37-3-11.11-1.71-5.32,3.46-5.49,6.1c-.07,1,0,2.49,0,2.49" transform="translate(-7.16 -16.33)" fill="#231f20"/>
      </g>
      <g clip-path="url(#e4172d87-8192-4e1a-9b1e-83e09cd604a5)">
        <path d="M269.05,35.87c-.24.13-.1.45.13.47h0a.86.86,0,0,0,.1.42c.28.66.56,1,.41,1.76s-.6,1.68-.35,2.47a20.45,20.45,0,0,0-1.18,2.2c-.08.23.19.39.38.3,1.7-.82,2.9-3.74,2.87-5.58,0-1.35-.9-2.82-2.37-2" transform="translate(-7.16 -16.33)" fill="#a5452b"/>
      </g>
      <g clip-path="url(#e4172d87-8192-4e1a-9b1e-83e09cd604a5)">
        <path d="M269.47,40.47c-.45,4-1.41,7-2.77,8.47-2.13,2.33-3.88,3.22-6.85,2.82-1.56-.21-3-2-4.52-3.76.12.14.71.19.89.22a3.1,3.1,0,0,0,2.11-.36,6,6,0,0,0,1.59-1.79c.18-.25.56-.16.8-.07a1.61,1.61,0,0,1,.72.57c1.59,1.76,3.95.54,5.19-1a12.72,12.72,0,0,0,2.22-5.83c.28-1.65.31-3.33.56-5a.07.07,0,0,1,.13,0,29,29,0,0,1-.07,5.72" transform="translate(-7.16 -16.33)" fill="#231f20"/>
      </g>
      <g clip-path="url(#e4172d87-8192-4e1a-9b1e-83e09cd604a5)">
        <path d="M287.8,82.75h0c-.05.45-.09.82-.13,1.12s-.11.76-.18,1.29-.12.9-.2,1.43c-.11.86-.25,1.84-.39,2.9-.06.45-.12.91-.18,1.39-.16,1.26-.34,2.6-.51,4-.28,2.15-.56,4.33-.8,6.25,0,.14,0,.28-.05.42h0c-.17,1.4-.32,2.65-.43,3.62-.13,1.14-.21,1.92-.21,2.16,0,.51.24,4,.53,8.23.45,6.66,3.48,11-.38,16.33-2,2.81-6.51,4.74-15.65,5-16.31.55-17.46,1.09-24.77-1.44a9.43,9.43,0,0,1-3.93-2.9c-.28-.28.71-9.26,1.49-16.41h0c.41-3.79.83-7.65,1.12-10.65,0-.43.08-.85.12-1.24.15-1.69.25-3,.25-3.69,0-.17,0-.39,0-.64,0-1.24-.05-3.38-.1-6,0-.53,0-1.08,0-1.64q0-1.3-.06-2.7c0-.36,0-.72,0-1.09,0-1.42-.06-2.88-.09-4.34-.06-2.85-.1-5.69-.14-8.18-.06-4.52-.06-7.91.07-8.22s3.07-2.52,6.39-4.9c4.63-3.31,6.92-4.87,6.92-4.87a26.86,26.86,0,0,0,8.16.92c3.31,0,11-2.06,11-2.06s11.49,5.48,11.78,5.9.16,3.46,0,7.28c-.1,2.35-.23,4.94-.38,7.27-.15,2,.94,4.18.81,5.47" transform="translate(-7.16 -16.33)" fill="#8be9db"/>
      </g>
      <g clip-path="url(#e4172d87-8192-4e1a-9b1e-83e09cd604a5)">
        <path d="M299.21,113a6,6,0,0,0-.47-1,9.5,9.5,0,0,0-1.26-2.81c-.28-.39-1.08-1.32-1.68-1.4a.13.13,0,0,0-.14-.07c-1.29.29-2.14,1.62-2.94,2.55-1.16,1.34-2.44,2.51-3.71,3.72s-2.47,2.47-3.83,3.55a9.31,9.31,0,0,1-4,1.5c-3.48.85-5.6,3.18-7.62,6l-.23.34c-.65,1-1.87,3.48-.33,3.66,1.28.15,1.74-1.84,2.29-2.67s1.14-1.39,1.58-2.17c-.56,1-1,2-1.53,3l-.1.19a6.35,6.35,0,0,0-1,3.47c.12,1.23,1.08,1,1.69.23a6.44,6.44,0,0,0,.76-1.83,10.59,10.59,0,0,1,1-2.07,22.42,22.42,0,0,0,1.45-2.19c-.36.86-2.92,7.83-1.41,7.78,1.14,0,1.32-1.68,1.57-2.49a17.11,17.11,0,0,1,1.42-3.36,4.36,4.36,0,0,1,.95-1.26l-.84,3.09a10.06,10.06,0,0,0-.61,2.74c0,.57.33,1.23,1,1.07s.82-.79,1-1.28c.43-1.22.77-2.53,1.31-3.7.45-1,.53-1.72,1.44-2.29s1.55.43,3.32-1.71a5,5,0,0,1,1.42-1c.85-.49,1.71-1,2.55-1.49a41.89,41.89,0,0,0,4-2.88l1.89-1.52c.49-.39,1.28-.81,1.54-1.4s-.23-1.65-.44-2.28" transform="translate(-7.16 -16.33)" fill="#a5452b"/>
      </g>
      <g clip-path="url(#e4172d87-8192-4e1a-9b1e-83e09cd604a5)">
        <path d="M287.36,62.72s5.95,3.32,8.3,6.64c3.48,4.91,8.56,15.51,10.34,20.23s3,24.78-2.52,29.37-7,7.38-10.39,7.54-2.63-3.81-3.87-5.2-4.23-4.43-3.22-7c2.1-5.3,3.94-7.57,5.12-10.75s-5.86-20.46-5.86-20.46Z" transform="translate(-7.16 -16.33)" fill="#8be9db"/>
      </g>
      <g clip-path="url(#e4172d87-8192-4e1a-9b1e-83e09cd604a5)">
        <path d="M67.77,93.78s-.67,9.47,0,14.12,4.18,20,4.1,25,.16,8.76-2.21,10.39-4.54-.54-4.54-.54L58.4,111.86l2.48-17.13Z" transform="translate(-7.16 -16.33)" fill="#324fff"/>
      </g>
      <g clip-path="url(#e4172d87-8192-4e1a-9b1e-83e09cd604a5)">
        <path d="M61.77,64.36c1-1.35,1.72-2.68,1-4.38a7.92,7.92,0,0,0-1.58-2.27,9.37,9.37,0,0,1-2-3.5c-.61-2-.73-4.2-1.61-6.15-2.14-4.75-7.9-5.41-12.3-3.73a.14.14,0,0,0-.09.17c-2.51,1-4.28,4-5.08,6.36A24.56,24.56,0,0,0,39,57.12c-.16,2.23-.44,4.61.34,6.76a.3.3,0,0,0,.38.18,11,11,0,0,0,.74,1.6,7.07,7.07,0,0,0,1.32,1.81c1.46,1.88,3.21,1.38,5.31.51,1.25-.52,2.5-1.06,3.78-1.52.32-.11.64-.21,1-.29-.12,3,.51,6,3,7.65s7.07.32,6.47-3.34c-.19-1.16-1-2.22-1-3.42a5.19,5.19,0,0,1,1.4-2.7" transform="translate(-7.16 -16.33)" fill="#002b4d"/>
      </g>
      <g clip-path="url(#e4172d87-8192-4e1a-9b1e-83e09cd604a5)">
        <path d="M56,65c-1.18,2.52-3.91,4.52-4.55,4.62-2.28.33-7.56-2.06-9.1-3.32s-2.17-4.19-2.17-4.19L38.47,54.7s2.6-4.19,4.84-5S51.84,46,51.84,46s3.76,3.47,4.77,7.51l.06.26a9,9,0,0,1,.17.93A25.54,25.54,0,0,1,56,65" transform="translate(-7.16 -16.33)" fill="#ffc2b7"/>
      </g>
      <g clip-path="url(#e4172d87-8192-4e1a-9b1e-83e09cd604a5)">
        <path d="M53.88,77.52s-5.19,11.66-5.46,11.59S38.11,76,38.11,76s2.06-1.36,2.25-2.09.3-10.49.3-10.49,5.09,1.66,5.34,1.66,5.56,3.49,5.56,3.49,0,.4,0,1c0,1,0,2.57,0,3.84a12.52,12.52,0,0,0,.08,2,17.57,17.57,0,0,0,2.28,2.08" transform="translate(-7.16 -16.33)" fill="#ffc2b7"/>
      </g>
      <g clip-path="url(#e4172d87-8192-4e1a-9b1e-83e09cd604a5)">
        <path d="M51.66,45.18a.09.09,0,0,0-.16,0,1.05,1.05,0,0,0-.48-.31c-.55-.2-1.22.15-1.78.17a3.3,3.3,0,0,1-.77-.07,11,11,0,0,0-13.94,3.38,10.06,10.06,0,0,0-1.42,9.51c1.34,3.33,4.68,4.51,6.9,7.08a.35.35,0,0,0,.57-.1,6,6,0,0,0,.24-1c-.24-1.81-.92-3.82.34-6,1-1.81,3.1-2.6,4.81-3.62a15.26,15.26,0,0,0,4.34-3.78c1.11-1.41,2.17-3.46,1.35-5.28" transform="translate(-7.16 -16.33)" fill="#002b4d"/>
      </g>
      <g clip-path="url(#e4172d87-8192-4e1a-9b1e-83e09cd604a5)">
        <path d="M39.6,60.84c-.16-.3-.59-.09-.53.22.12.55.22,1.08.32,1.61l-.31.06a4.21,4.21,0,0,0-.51.12c-3.53.34-5.25,4-8.4,5.19-1.34.5-2.77.64-4,1.49A5.72,5.72,0,0,0,24,72.87c-.34,1.5.23,3.28-.67,4.63s-3.08,1.77-4.52,2.62a8.87,8.87,0,0,0-4.16,6.48,8.5,8.5,0,0,0,2.77,7.23,9.07,9.07,0,0,0,8.09,2A16.58,16.58,0,0,0,37.7,84.4a22.32,22.32,0,0,0,.73-5.27A26.13,26.13,0,0,1,39.78,72c1.16-3.52,1.58-7.71-.18-11.12" transform="translate(-7.16 -16.33)" fill="#002b4d"/>
      </g>
      <g clip-path="url(#e4172d87-8192-4e1a-9b1e-83e09cd604a5)">
        <path d="M43.05,56.51c-.79-1.54-2.89-.4-3.34.81-.56,1.5.54,4,2.27,4.12a.32.32,0,0,0,.27-.47c-.41-.68-1.08-1-1.45-1.68A.42.42,0,0,0,41,59a6.27,6.27,0,0,1,.51-1.19,8,8,0,0,1,.93-.91.39.39,0,0,0,.16-.18l.2.05a.2.2,0,0,0,.23-.3" transform="translate(-7.16 -16.33)" fill="#ffc2b7"/>
      </g>
      <g clip-path="url(#e4172d87-8192-4e1a-9b1e-83e09cd604a5)">
        <path d="M40.69,60.78c-.13-.21-.32-.4-.46-.59-.27-.39-.54-.77-.8-1.16a.09.09,0,0,0-.08,0c-.06-.09-.11-.18-.16-.27s-.25,0-.2.08a10.15,10.15,0,0,0,.8,1.66l.12.2a3.07,3.07,0,0,0,.29.57,2.72,2.72,0,0,1,.21,1.84,2.56,2.56,0,0,1-.89,1.32c-.32.26-.65.4-.85.77a.22.22,0,0,0,.12.31c1.2.46,2.25-1.37,2.4-2.32a3.57,3.57,0,0,0-.5-2.37" transform="translate(-7.16 -16.33)" fill="#002b4d"/>
      </g>
      <g clip-path="url(#e4172d87-8192-4e1a-9b1e-83e09cd604a5)">
        <path d="M39.09,75.29s3.18,3.52,5.71,6.41S48,86.25,48.41,86s4-9.73,4-9.73,6.88,2.49,9.28,4.74,6,5.66,6.12,11.7-4.26,10-4.57,12.79,0,7.21-.85,9.22a14.18,14.18,0,0,1-2.63,3.8,46.71,46.71,0,0,1-13.1,1.32c-7.75-.23-13.38-.54-14.93-4.26s-.62-8-.7-11.24-6.23-20.69-4.45-23.25,12.52-5.79,12.52-5.79" transform="translate(-7.16 -16.33)" fill="#324fff"/>
      </g>
      <g clip-path="url(#e4172d87-8192-4e1a-9b1e-83e09cd604a5)">
        <path d="M70.42,171.77H19.55s.09-7.4.47-10.58c.64-5.46,2-15,3.29-20.43s2.56-14.32,4.42-17.62a79.56,79.56,0,0,1,4.42-6.79A65.19,65.19,0,0,0,45,119.19c6,.53,15.3-1.53,15.3-1.53s4.4,8.56,5.7,13a83.16,83.16,0,0,1,2.63,18.19c.22,6.22,1.77,23,1.77,23" transform="translate(-7.16 -16.33)" fill="#231f20"/>
      </g>
      <g clip-path="url(#e4172d87-8192-4e1a-9b1e-83e09cd604a5)">
        <path d="M39.09,123.79a3.22,3.22,0,0,0-.23-.25c-2-2-4-3.7-6.95-4a7.7,7.7,0,0,1-3.42-.75c-1.81-1-3.37-2.44-5.18-3.5a.19.19,0,0,0-.1,0h0a.29.29,0,0,0-.3.38c.15.41-.76,1.14-1,1.4a4.36,4.36,0,0,0-1.11,1.84A1.32,1.32,0,0,0,21,120c-.13-.16-.82,0-.93.15-.27.38.22.82.49,1,1.82,1.39,5.78,2.25,6.13,2.92.65,1.24,1.56.76,2.33,1.09a4.47,4.47,0,0,1,2,1.6c.58.89,1,1.92,1.51,2.87.2.38.5.89,1,.93s.74-.53.68-1a8.53,8.53,0,0,0-.83-2.17c-.35-.81-.71-1.61-1.06-2.42a3.5,3.5,0,0,1,.93.91,14.4,14.4,0,0,1,1.56,2.58c.3.63.64,1.95,1.58,1.85,1.24-.14-1.69-5.53-2.08-6.2a18.48,18.48,0,0,0,1.45,1.61,9.15,9.15,0,0,1,1.05,1.57,5.06,5.06,0,0,0,.84,1.4c.59.57,1.41.63,1.36-.39a5.28,5.28,0,0,0-1.27-2.71l-.1-.15c-.53-.76-1-1.51-1.61-2.24.46.59,1.06,1,1.56,1.59s1.16,2.18,2.19,1.9c1.23-.35-.06-2.19-.72-3" transform="translate(-7.16 -16.33)" fill="#ffc2b7"/>
      </g>
      <g clip-path="url(#e4172d87-8192-4e1a-9b1e-83e09cd604a5)">
        <path d="M27.64,116.64a3.15,3.15,0,0,1,.59,2.22c-.26,1.06-1.78,4.24-2.95,4.65a5.45,5.45,0,0,1-2.71,0Z" transform="translate(-7.16 -16.33)" fill="#fff"/>
      </g>
      <g clip-path="url(#e4172d87-8192-4e1a-9b1e-83e09cd604a5)">
        <path d="M28.6,79.47A33.24,33.24,0,0,0,17.1,90.7C12.68,98.14,6.79,106.51,7.18,111s3.22,5.74,5.33,8.22,8.08,5.5,10.41,4.5,5.35-6.59,5.27-8.91-4.34-6.59-4-8.29,7.19-10.08,7.47-10.08-3.11-17-3.11-17" transform="translate(-7.16 -16.33)" fill="#324fff"/>
      </g>
      <g clip-path="url(#e4172d87-8192-4e1a-9b1e-83e09cd604a5)">
        <path d="M39.09,75.29s-3.17,1.24-3.33,2.48,2,1.22,3.52,2.85a34.35,34.35,0,0,0,3.77,4A7.64,7.64,0,0,0,48.4,86s-3.69-5.09-5.52-7.36a31.64,31.64,0,0,0-3.79-3.34" transform="translate(-7.16 -16.33)" fill="#fff"/>
      </g>
      <g clip-path="url(#e4172d87-8192-4e1a-9b1e-83e09cd604a5)">
        <path d="M52.39,76.27s3.18.94,3.57,1.9-2.07,2.76-2.71,3.77-.49,1.83-1.47,2.92S48.41,86,48.41,86s1.43-4.44,2-5.76,2-4,2-4" transform="translate(-7.16 -16.33)" fill="#fff"/>
      </g>
      <g clip-path="url(#e4172d87-8192-4e1a-9b1e-83e09cd604a5)">
        <path d="M40.52,64.06c-.38-.36-1.41-.52-1.68-.7s-.64-.53-.93-.26c-1,.9,2,3,2.71,1.39a.34.34,0,0,0-.1-.43" transform="translate(-7.16 -16.33)" fill="#002b4d"/>
      </g>
      <g clip-path="url(#e4172d87-8192-4e1a-9b1e-83e09cd604a5)">
        <path d="M379.39,63.94l-.19-.33a8.53,8.53,0,0,1-.95-1.82c-.21-.74-.38-1.49-.56-2.24a10.4,10.4,0,0,0-1.74-4.2c-.08-.1-.17-.2-.29-.2s-.25.16-.31.3a3.19,3.19,0,0,0-.23,1.33,1.71,1.71,0,0,0-.78,0,6.87,6.87,0,0,0-1.12-2.08,20.23,20.23,0,0,1,.53,4,9.37,9.37,0,0,0,1,4.19,3.67,3.67,0,0,0,3.63,1.76h.34a.89.89,0,0,0,.47-.18c.3-.24.32-.35.2-.58" transform="translate(-7.16 -16.33)" fill="#002b4d"/>
      </g>
      <g clip-path="url(#e4172d87-8192-4e1a-9b1e-83e09cd604a5)">
        <path d="M366.87,133.53s-2.38,35.12,0,37.75,6.64,3.67,6.64,3.67L376,135.18Z" transform="translate(-7.16 -16.33)" fill="#ffd26e"/>
      </g>
      <g clip-path="url(#e4172d87-8192-4e1a-9b1e-83e09cd604a5)">
        <path d="M380.41,174a95.55,95.55,0,0,0,13.79.93c8,0-6-23.94-6-23.94Z" transform="translate(-7.16 -16.33)" fill="#ffd26e"/>
      </g>
      <g clip-path="url(#e4172d87-8192-4e1a-9b1e-83e09cd604a5)">
        <path d="M367.17,144.79c-.68-2.07-.55-2.47-.17-3.55a2.12,2.12,0,0,1,.76-.94,8.49,8.49,0,0,1,1.27-.66c.34-.16-.08-.57,0-.9a11.9,11.9,0,0,0,.19-1.46,18.63,18.63,0,0,1,.2-2.36s0,0,0,0l5.29-19.34-9-5c.16,3.4-1.95,6.79-1.79,10.19.18,3.81.49,7.63.37,11.45a38.89,38.89,0,0,1-.54,5.6c-.31,1.7-1,3.44-.58,5.18a12.62,12.62,0,0,0,1.55,3.78c.34.56,2.59,3.91,2.94,2.09-.1.53.93.15,1.07-.11.26-.5-.22-1.38-.45-1.82a12.48,12.48,0,0,1-1.08-2.08" transform="translate(-7.16 -16.33)" fill="#ffc2b7"/>
      </g>
      <g clip-path="url(#e4172d87-8192-4e1a-9b1e-83e09cd604a5)">
        <path d="M370.63,79.62a11.7,11.7,0,0,0-4.71,8.46A106.78,106.78,0,0,1,364.58,100c-.62,3.71-.15,18.38-1.55,23s-2.43,9.85-1,12.61,9.69,3.38,9.69,3.38,4.2-8.53,5.68-14.38,1.36-32,1.36-32Z" transform="translate(-7.16 -16.33)" fill="#ffd26e"/>
      </g>
      <g clip-path="url(#e4172d87-8192-4e1a-9b1e-83e09cd604a5)">
        <path d="M380.26,73.91s-7.54,8.61-8.08,13.65,1.09,28.6,0,32.32S370.86,139,370.86,139H368.3s-1.24-15.5-.47-21.08,2.33-14.63,2.25-17.9-1.39-17.22-.15-19.54,10.33-6.52,10.33-6.52" transform="translate(-7.16 -16.33)" fill="#ffd26e"/>
      </g>
      <g clip-path="url(#e4172d87-8192-4e1a-9b1e-83e09cd604a5)">
        <path d="M395.56,48.2a7.69,7.69,0,0,0-1.79-2.77,2.26,2.26,0,0,0,.26-.16c2.14-1.43,1.77-4.34.23-6.07a5,5,0,0,0-6.64-.49,3,3,0,0,0-1.33,2.61,2.11,2.11,0,0,0,.12.51,8,8,0,0,0-1.85-.45,7.6,7.6,0,0,0-4.84.9c-1.3.82-3.53,3.82-4.72,4.75-2.92,2.29-5.63,7.45-1.22,10.81,1.76,1.35,2.86-.52,3.13-.28.79.69,0,1.66.83,2.34a10.36,10.36,0,0,0,2.51,1.32h0c2.11,1,3.69,1.66,6.06,1a39.52,39.52,0,0,0,6.28-2.79,7,7,0,0,0,2.2-1.44,2.33,2.33,0,0,0,.38-1.25,23.06,23.06,0,0,0,.92-4,12.06,12.06,0,0,0-.55-4.62" transform="translate(-7.16 -16.33)" fill="#002b4d"/>
      </g>
      <g clip-path="url(#e4172d87-8192-4e1a-9b1e-83e09cd604a5)">
        <path d="M389.73,49.12c-2.24-.79-8.53-3.76-8.53-3.76s-3.76,3.47-4.77,7.51l-.06.26a9,9,0,0,0-.17.93A25.24,25.24,0,0,0,377,64.37c1.18,2.51,3.9,4.52,4.55,4.62,2.27.33,7.56-2.06,9.1-3.32s2.17-4.19,2.17-4.19l1.73-7.37s-2.59-4.19-4.83-5" transform="translate(-7.16 -16.33)" fill="#ffc2b7"/>
      </g>
      <g clip-path="url(#e4172d87-8192-4e1a-9b1e-83e09cd604a5)">
        <path d="M396.13,52.5c0-.84-1.58-.38-2.13-1-.79-.85-1.37-1.86-2.2-2.68-.49-.48-1.44-1.47-2.14-1.57s-.93.25-1.39.57c-.85-1.07-2.5-1.64-3.71-2.1-1.39-.53-3.68-1.6-4.87-.28a14.83,14.83,0,0,0-1.43,2.23,29.67,29.67,0,0,1-2.59,3.22c-1.36,1.63-2.2,2.8-2.15,5a.28.28,0,0,0,.11.23,3.78,3.78,0,0,0-.08.6c0,.14.16.15.23.06a13.46,13.46,0,0,1,3.74-3.63c1.94-1.09,4.18-1.2,6.29-1.72,1.48-.37,3.88-.89,4.57-2.42a7.21,7.21,0,0,0,1.17,2.29,22.61,22.61,0,0,1,2.1,3.73c.5,3.49.63,8.21.63,8.21a11.88,11.88,0,0,0,2.64-4.66,32.47,32.47,0,0,0,1.21-6.07" transform="translate(-7.16 -16.33)" fill="#002b4d"/>
      </g>
      <g clip-path="url(#e4172d87-8192-4e1a-9b1e-83e09cd604a5)">
        <path d="M380.26,73.91a10.88,10.88,0,0,0-.9,6.16,46.78,46.78,0,0,0,5.27,12.45c.27-.08,13.51-16.43,13.51-16.43s-5.28-3.89-5.47-4.62-.49-11.37-.49-11.37-4.9,2.54-5.15,2.54-5.56,3.48-5.56,3.48,0,.4,0,1c0,1,0,2.57,0,3.84a12.52,12.52,0,0,1-.08,2c-.15.39-1.17.93-1.17.93" transform="translate(-7.16 -16.33)" fill="#ffc2b7"/>
      </g>
      <g clip-path="url(#e4172d87-8192-4e1a-9b1e-83e09cd604a5)">
        <path d="M393.57,56.61a2,2,0,0,0-1.26-1.68,1.33,1.33,0,0,0-1.78.85.16.16,0,0,0,0,.07,7.52,7.52,0,0,0-.65,2.45c-.12.58-1.35,3.89.18,3.74a2.28,2.28,0,0,0,1.22-.78c.58-.4.91-1.26,1.27-1.71a4.22,4.22,0,0,0,1-2.94" transform="translate(-7.16 -16.33)" fill="#ffc2b7"/>
      </g>
      <g clip-path="url(#e4172d87-8192-4e1a-9b1e-83e09cd604a5)">
        <path d="M369.62,120.56a84.08,84.08,0,0,0-2,17.13c-.11,9.3,2,46.76,2,46.76h18.73s-.47-8.93-.57-11.62-.67-15.81-.46-17.05,2.58,7.85,2.89,10S391.35,179.69,392,182a22.42,22.42,0,0,1,.62,2.48h18s-.91-12.14-1.32-14.31-1.55-12.3-1.76-15.09-1.14-18.6-2.89-24.29-3-11.26-3-11.26l-23.85-2.38Z" transform="translate(-7.16 -16.33)" fill="#002b4d"/>
      </g>
    </g>
    <g clip-path="url(#fb721f49-a3cd-447c-bf47-3dc4520a25b5)">
      <path d="M380.26,73.91s-1.14,5.85.89,8.67a52.05,52.05,0,0,1,3.07,5,20.08,20.08,0,0,1,3.88-5,18,18,0,0,0,5.77-9.82l3.66,13.21s1.81,21.39,3.13,25.58,4.79,13.06,4.79,13.06-10.57,4.77-20.16,4.85-19-3.93-18.38-6.47a139.27,139.27,0,0,0,2.92-19.14c.2-5.16.72-11.69,1.08-14.28,1.22-8.84,9.35-15.62,9.35-15.62" transform="translate(-7.16 -16.33)" fill="#fff"/>
    </g>
    <g>
      <g clip-path="url(#e4172d87-8192-4e1a-9b1e-83e09cd604a5)">
        <path d="M393.86,72.73s2.41,7.4,2.27,13.7.64,25.42,2,29.14,6.71,19.48,7.3,23.38,1.93,33.56,2.55,35.32,3.72-.21,5.89-2.69,5.27-3.31,3.51-12.09-12.2-42.89-12.51-47.95S415.4,84,406.48,78.16a47.68,47.68,0,0,0-12.62-5.43" transform="translate(-7.16 -16.33)" fill="#ffd26e"/>
      </g>
      <g clip-path="url(#e4172d87-8192-4e1a-9b1e-83e09cd604a5)">
        <path d="M407.77,79.25s15.51,15.73,15.5,27.56c0,8.76-13.4,24.33-15.61,24.92s-5.42-17-5.16-18,2.63-25,2.48-26.82,2.79-7.62,2.79-7.62" transform="translate(-7.16 -16.33)" fill="#ffd26e"/>
      </g>
      <g clip-path="url(#e4172d87-8192-4e1a-9b1e-83e09cd604a5)">
        <path d="M391.6,129l.19-.28c1.71-2.29,3.48-4.19,6.37-4.85a7.77,7.77,0,0,0,3.29-1.19c1.66-1.28,3-2.86,4.67-4.15a.31.31,0,0,1,.1,0h0a.29.29,0,0,1,.35.34c-.09.42.9,1,1.17,1.26a4.47,4.47,0,0,1,1.34,1.68,1.31,1.31,0,0,1-.07,1.13c.11-.17.81-.11.94,0,.31.34-.11.85-.36,1.09-1.63,1.62-5.43,3-5.69,3.7-.49,1.31-1.45,1-2.17,1.39a4.42,4.42,0,0,0-1.81,1.85c-.46,1-.76,2-1.12,3-.15.4-.38.94-.84,1.05s-.8-.43-.8-.9a8.47,8.47,0,0,1,.54-2.26c.24-.85.49-1.69.73-2.54a3.52,3.52,0,0,0-.8,1,14.72,14.72,0,0,0-1.21,2.76c-.21.66-.38,2-1.33,2-1.25,0,.95-5.71,1.25-6.42a19.58,19.58,0,0,1-1.23,1.79,8.54,8.54,0,0,0-.83,1.69,5.17,5.17,0,0,1-.65,1.5c-.52.64-1.31.81-1.4-.21a5.39,5.39,0,0,1,.9-2.86.8.8,0,0,0,.08-.16c.43-.82.83-1.63,1.3-2.44-.38.64-.92,1.16-1.33,1.78s-.87,2.31-1.92,2.18c-1.27-.17-.23-2.17.32-3" transform="translate(-7.16 -16.33)" fill="#ffc2b7"/>
      </g>
      <g clip-path="url(#e4172d87-8192-4e1a-9b1e-83e09cd604a5)">
        <path d="M403.12,118.49a9.24,9.24,0,0,1,2.32,2.2c.89,1.29.89,2.48,1.93,3.67a2.75,2.75,0,0,0,2,1.14l2.64-3.77s-1.41-3.31-1.94-3.67a12.55,12.55,0,0,0-3.33-1.55c-.63,0-3.63,2-3.63,2" transform="translate(-7.16 -16.33)" fill="#ffd26e"/>
      </g>
      <g clip-path="url(#e4172d87-8192-4e1a-9b1e-83e09cd604a5)">
        <path d="M387.61,58.44a2,2,0,0,1-2.8-.48,1.6,1.6,0,0,1,.38-2,2.14,2.14,0,0,1,2.69,0,1.59,1.59,0,0,1-.27,2.45m-8.23,0a2,2,0,0,1-2.8-.48,1.6,1.6,0,0,1,.38-2,2.14,2.14,0,0,1,2.69,0,1.58,1.58,0,0,1-.27,2.45m9.45-2.12A2.23,2.23,0,0,0,386.69,55,2.33,2.33,0,0,0,384,56.7a3.78,3.78,0,0,0-1.78-.4,5.48,5.48,0,0,0-1.57.21l-.06-.19A2.23,2.23,0,0,0,378.47,55a2.3,2.3,0,0,0-2.73,2.11c-.13,1.57,1.66,2.59,3.05,2.27a2.44,2.44,0,0,0,2-2.22,4.13,4.13,0,0,1,1.48-.22,3.06,3.06,0,0,1,1.67.42l0,0a2.52,2.52,0,0,0,3.05,2,2.31,2.31,0,0,0,1.82-3" transform="translate(-7.16 -16.33)" fill="#231f20"/>
      </g>
      <g clip-path="url(#e4172d87-8192-4e1a-9b1e-83e09cd604a5)">
        <path d="M176,184.8l7.88-30.21-21.15,3.86V185H176c0-.1,0-.15,0-.15" transform="translate(-7.16 -16.33)" fill="#231f20"/>
      </g>
      <g clip-path="url(#e4172d87-8192-4e1a-9b1e-83e09cd604a5)">
        <path d="M160,184.94v-26.5l-21.15-3.86,7.88,30.21s0,.05,0,.15Z" transform="translate(-7.16 -16.33)" fill="#231f20"/>
      </g>
      <g clip-path="url(#e4172d87-8192-4e1a-9b1e-83e09cd604a5)">
        <path d="M132,137s-3.11,5.79-3.38,7.67-.27,2.83,1.21,2.42-.13,2.56,2,2.29,5.95-6.18,5.95-6.18l-3.66-5.11Z" transform="translate(-7.16 -16.33)" fill="#e28669"/>
      </g>
      <g clip-path="url(#e4172d87-8192-4e1a-9b1e-83e09cd604a5)">
        <path d="M189.82,160.31s0-29.27-13.07-57.64L177.18,84s5.79-4.93,4.5-12.43V61.32s-17.16-6.18-21-6.18-19.7,7-19.7,7v9.64c0,2.57.21,8.36,4.07,12l1.29,18.86S133.9,119.18,132,161.82c0,0,34.49,3.85,57.85-1.51" transform="translate(-7.16 -16.33)" fill="#005d68"/>
      </g>
      <g clip-path="url(#e4172d87-8192-4e1a-9b1e-83e09cd604a5)">
        <path d="M141,62.18c-3,1.93-4.5,4.28-4.93,6s-4.29,39-4.07,43.93S128.1,116,129.82,123s-4.07,6.64-1.5,11.36l.64,3.86,5.5,1.29,5.64-16.5L145,83.84Z" transform="translate(-7.16 -16.33)" fill="#005d68"/>
      </g>
      <g clip-path="url(#e4172d87-8192-4e1a-9b1e-83e09cd604a5)">
        <path d="M181.67,61.32c4.07,1.93,10.93,38.35,10.07,40.07s-10.93,12.21-14.36,13.29l-3.64-12,6.43-5.57-3-13.07Z" transform="translate(-7.16 -16.33)" fill="#005d68"/>
      </g>
      <g clip-path="url(#e4172d87-8192-4e1a-9b1e-83e09cd604a5)">
        <path d="M163.48,25.9c-10.82-1.42-12.84,6.54-12.36,13.32a2.53,2.53,0,0,0-.5.09c-2.37.79-.4,6.95,2.15,7.46a17,17,0,0,0,3.68,5.89l-.21,5.22c1.55,2.79,3.15,3.58,4.57,3.44,2.6-.26,4.59-3.63,4.59-3.63V53.34c2.71-2,4.56-5.78,5.55-9.54,2-7.44.66-16.83-7.47-17.9" transform="translate(-7.16 -16.33)" fill="#e28669"/>
      </g>
      <g clip-path="url(#e4172d87-8192-4e1a-9b1e-83e09cd604a5)">
        <path d="M156.89,31c-.11,4.94,6.08,7.23,8.68,11.43s1.74,10.22,6.66,10.67c1.75-4.27,3.05-9,2.56-13.54a17.06,17.06,0,0,0-6.33-11.86c-3.7-2.76-9-3.47-13-1.22-3.37,1.88-5.47,5.52-6.37,9.27a30,30,0,0,0-.67,9.69c5.63-3,9.28-8.11,8.5-14.44" transform="translate(-7.16 -16.33)" fill="#ecdfd3"/>
      </g>
      <g clip-path="url(#e4172d87-8192-4e1a-9b1e-83e09cd604a5)">
        <path d="M243.1,67.72a11.86,11.86,0,0,0-3.58,5.58c-.68,3.13-1.07,13.89-1.69,17.85s-.54,23.5-.39,26.83a51.32,51.32,0,0,1-.11,8.33c-.29,2.6-.22,5.94,1.85,8.1a15.34,15.34,0,0,0,5.7,3.26s3.18-59,3.37-59.79-5.15-10.16-5.15-10.16" transform="translate(-7.16 -16.33)" fill="#8be9db"/>
      </g>
    </g>
  </g>
</svg>
