<?xml version="1.0" encoding="utf-8"?>
<!-- Generator: Adobe Illustrator 23.0.2, SVG Export Plug-In . SVG Version: 6.00 Build 0)  -->
<svg version="1.1" id="Layer_1" xmlns="http://www.w3.org/2000/svg" xmlns:xlink="http://www.w3.org/1999/xlink" x="0px" y="0px"
	 viewBox="0 0 595.28 160" style="enable-background:new 0 0 595.28 160;" xml:space="preserve">
<style type="text/css">
	.superman0{fill:#fdd6d0;}
	.superman1{fill:#50c8f0;}
	.superman2{fill:#005D68;}
	.superman3{fill:#FF5C3E;}
	.superman4{fill:#26757F;}
	.superman5{fill:#50c8f0;}
	.superman6{clip-path:url(#SVGID_2_);fill:#FF5C3E;}
	.superman7{fill:#545454;}
	.superman9{fill:#395df7;}
	.superman8{fill:none;stroke:#FFA500; stroke-width:3; stroke-linecap:round; stroke-dasharray: 45; animation: dash 15s linear infinite;}
	@keyframes dash {to {stroke-dashoffset: -1000;}}
</style>
<g>
	<path class="superman0" d="M30.74,60.38c0,0-14-3.76-14,1.42c0,1.13-1.06,2.34-1.1,3.54c-0.04,1.46,1.95,2.89,2.15,4.16
		c0.15,0.95-1.59,1.8-1.15,2.5c0.7,1.1,1.87,1.79,3.77,1.81c3.33,0.03,3.33,0.4,6-1.69c5.4-4.22,4-3.31,7.33-4.31
		C37.07,66.8,30.74,60.38,30.74,60.38L30.74,60.38z"/>
	<path class="superman1" d="M30.4,60.38c-1.58-1.22,25-8.58,36.17-9.58c11.17-1,8.17,4.79,8.17,4.79l-1,10.21l-43,3
		C30.74,68.8,33.55,62.8,30.4,60.38L30.4,60.38z"/>
	<path class="superman2" d="M64.74,50.69l8,15.12c0,0,2.37,0.65,11-2c10,0,38.65,5.65,47,12c10,7.6-2-33-14-32c-12,1-11-2.04-17-0.02
		c-6,2.02-10.37,7.9-21,6.9C68.1,49.69,64.74,50.69,64.74,50.69L64.74,50.69z"/>
	<path class="superman3" d="M130.28,75.42v-34.1h-9.54C120.74,41.32,123.74,70.8,130.28,75.42L130.28,75.42z"/>
	<path class="superman4" d="M227.24,72.12c0,0,85.04,6.34,88.5,7.34s-10,17.24-10,17.24s3,2.11-22,3.11c-25,1-62.76,6-65,0
		S227.24,72.12,227.24,72.12L227.24,72.12z"/>
	<path class="superman9" d="M304.74,97.8c0,0,10.61-16.79,10.61-18c0-1.21,2.39,1.21,4.39,0c2-1.21-9.5,18-11,18
		C307.74,97.8,304.74,97.8,304.74,97.8L304.74,97.8z"/>
	<g>
		<defs>
			<rect id="SVGID_1_" y="9" width="595.28" height="141.73"/>
		</defs>
		<clipPath id="SVGID_2_">
			<use xlink:href="#SVGID_1_"  style="overflow:visible;"/>
		</clipPath>
		<path class="superman6" d="M320,79.45c0,0,7.74-10.35,43.74,0c21,5.35,19,3.35,21,2.35c2-1,2-8.9,7-6.95c5,1.95,33.67,14.95,36.33,16.95
			c2.67,2,3.67,4-10.33,2c-14-2-109,4-109,4L320,79.45L320,79.45z"/>
		<path class="superman6" d="M127.74,44.8c0,0,1-18.22,36-21.23c35-3.01,78,10.75,113-3.01c35-13.76,73.76,10.35,97,21.24
			c48.33,22.64-9,6-26,3c-17-3-19-7-25,1c-6,8,0,5.88-17,5.38c-17-0.5-6,4.77-14,9.2c-8,4.42-12.33-3.41-18.33,1.42
			c-6,4.83-51.67,1.42-57.67,0c-6-1.42-16-20-16-20l-22-0.49l-30.35,25.67L127.74,44.8L127.74,44.8z"/>
	</g>
	<path class="superman0" d="M130.28,75.42c0,0-1.54-18.61-9.54-18.61s-12,5-13-2c-1-7,2-8,1-8c-1,0-6,2-3-3c3-5-1-8,0-12
		c1-4,10.8-4,10.8-4l7.2,3l6.54,8c0,0,8.46,1.91,10.46,2.91s4.11,17.8,6.17,22.09C150.74,71.8,130.28,75.42,130.28,75.42
		L130.28,75.42z"/>
	<path class="superman2" d="M153.22,56.8c0,0-2.82-25.62,12.51-25.62c15.33,0,10.67,7.62,21.33,7.62c10.67,0,25.67-4,28.67-3
		c3,1-5.74,27.11-5.74,27.11l-9.26,32.89c0,0-36.17,2-45,0c-8.83-2-21.91-5.35-25.46-20.39C144.74,72.8,153.22,56.8,153.22,56.8
		L153.22,56.8z"/>
	<path class="superman7" d="M106.74,34.8c0,0-13-7-6-10c7-3,10-6,15-3c5,3,4.16-1.24,9.35,4.88c5.19,6.12,11.65,15.12,6.65,15.12
		s-6,2.51-6-0.49s0.35-7.51-2-5.51c-2.35,2-1,2-2,4c-1,2-2-5.38-2-7c0-1.62-2-3-7-2C106.41,32.07,106.74,34.8,106.74,34.8
		L106.74,34.8z"/>
	<path class="superman2" d="M195.74,138.8c0,0-9-12-2-24c7-12,11-29,17-32s24-7.89,26,3c2,10.89-15,32.69-16,35.69
		C219.74,124.5,213.99,148.8,195.74,138.8L195.74,138.8z"/>
	<path class="superman9" d="M195.74,138.8c0,0,7.5,6,18.25,4c10.75-2,11.02-15.47,9.75-18c-3-6-4-2-4-2S214.74,145.47,195.74,138.8
		L195.74,138.8z"/>
	<path class="superman3" d="M220.74,121.5c0,0,5-13.69,46-8.69c6,1-1.77-2.93,0.67-6c14.33-1,42.33,0,47.33,0c5,0,8,0.71-16,6.86
		c-24,6.14-86,31.14-87,29.57C211.74,139.8,222.74,136.45,220.74,121.5L220.74,121.5z"/>
	<path d="M199.74,95.85h2.85c0,0,19.33-27.05,34.16-10.52C233.74,69.8,223.4,59.4,210,59.75C196.06,63.4,199.74,95.85,199.74,95.85
		L199.74,95.85z"/>
	<path class="superman0" d="M202.74,54.8c-3.04-0.87-15,3.35-15,13c0,4,3.46,4.7,5.33,4c2.67-1,1.79,1.96,4.67,1c3-1,1,1.4,4,1.4
		c3,0,13-9.28,11-13.4C210.74,56.68,209.74,56.8,202.74,54.8L202.74,54.8z"/>
	<path class="superman1" d="M202.74,54.8c0,0,2.63-20,13.63-19c11,1,12.37,3.96,13.37,9.98c1,6.02,0.5,8.02-1,10.02c-1.5,2-14,8-16,7
		C210.74,61.8,210.74,57.8,202.74,54.8L202.74,54.8z"/>
	<line class="superman8" x1="447.53" y1="74.94" x2="525.04" y2="50.34"/>
	<line class="superman8" x1="455.28" y1="93.52" x2="578.14" y2="84.01"/>
	<line class="superman8" x1="448" y1="111.21" x2="552.8" y2="138.41"/>
	<path class="superman5" d="M69.3,66.09l-7-15c0,0,4-1,4-0.5c0,0.5,7,15.5,7,15.5H69.3L69.3,66.09z"/>
</g>
</svg>
