<svg id="Superman" data-name="Layer 1" xmlns="http://www.w3.org/2000/svg" xmlns:xlink="http://www.w3.org/1999/xlink" viewBox="0 0 564 126.87"><defs><style>.cls-1,.cls-10,.cls-11,.cls-12{fill:none;}.cls-2{fill:#ffdc8b;}.cls-3{fill:#324fff;}.cls-4{fill:#005d68;}.cls-5{fill:#ff5c3e;}.cls-6{fill:#26757f;}.cls-7{fill:#00ff7d;}.cls-8{clip-path:url(#clip-path);}.cls-9{fill:#545454;}.cls-10,.cls-11,.cls-12{stroke:orange;stroke-linecap:round;}.cls-10{stroke-width:3px;}.cls-11{stroke-width:3px;}.cls-12{stroke-width:3px;}</style><clipPath id="clip-path" transform="translate(-15.64 -16.43)"><rect class="cls-1" y="9" width="595.28" height="141.73"/></clipPath></defs><title>supermies2</title><path class="cls-2" d="M30.74,60.38s-14-3.76-14,1.42c0,1.14-1.07,2.34-1.1,3.54-.05,1.45,1.95,2.89,2.14,4.16.15,1-1.59,1.81-1.14,2.5a4.1,4.1,0,0,0,3.76,1.8c3.34,0,3.34.4,6-1.68,5.4-4.23,4-3.32,7.34-4.32s-3-7.42-3-7.42Z" transform="translate(-15.64 -16.43)"/><path class="cls-3" d="M30.4,60.38c-1.58-1.22,25-8.58,36.17-9.58s8.17,4.79,8.17,4.79l-1,10.21-43,3s2.81-6-.34-8.42Z" transform="translate(-15.64 -16.43)"/><path class="cls-4" d="M64.74,50.69l8,15.11s2.36.66,11-2c10,0,38.65,5.66,47,12,10,7.6-2-33-14-32s-11-2-17,0-10.37,7.9-21,6.9-14,0-14,0Z" transform="translate(-15.64 -16.43)"/><path class="cls-5" d="M130.28,75.42V41.32h-9.54s3,29.48,9.54,34.1Z" transform="translate(-15.64 -16.43)"/><path class="cls-6" d="M227.24,72.12s85,6.33,88.5,7.33-10,17.24-10,17.24,3,2.11-22,3.11-62.76,6-65,0,8.5-27.68,8.5-27.68Z" transform="translate(-15.64 -16.43)"/><path class="cls-7" d="M304.74,97.8s10.61-16.79,10.61-18,2.39,1.21,4.39,0-9.51,18-11,18Z" transform="translate(-15.64 -16.43)"/><g class="cls-8"><path class="cls-5" d="M320,79.45s7.74-10.34,43.74,0c21,5.35,19,3.35,21,2.35s2-8.89,7-6.94S425.4,89.8,428.07,91.8s3.67,4-10.33,2-109,4-109,4L320,79.45Z" transform="translate(-15.64 -16.43)"/><path class="cls-5" d="M127.74,44.8s1-18.22,36-21.23,78,10.75,113-3,73.75,10.35,97,21.24c48.33,22.65-9,6-26,3s-19-7-25,1,0,5.88-17,5.39-6,4.77-14,9.19S279.4,57,273.4,61.8s-51.66,1.43-57.66,0-16-20-16-20l-22-.48L147.38,67,127.74,44.8Z" transform="translate(-15.64 -16.43)"/></g><path class="cls-2" d="M130.28,75.42s-1.54-18.62-9.54-18.62-12,5-13-2,2-8,1-8-6,2-3-3-1-8,0-12,10.79-4,10.79-4l7.21,3,6.54,8s8.46,1.91,10.46,2.91,4.1,17.8,6.16,22.09c3.84,8-16.62,11.62-16.62,11.62Z" transform="translate(-15.64 -16.43)"/><path class="cls-4" d="M153.22,56.8s-2.82-25.62,12.52-25.62,10.66,7.62,21.33,7.62,25.67-4,28.67-3S210,62.92,210,62.92L200.74,95.8s-36.17,2-45,0-21.92-5.35-25.46-20.38c14.46-2.62,22.94-18.62,22.94-18.62Z" transform="translate(-15.64 -16.43)"/><path class="cls-9" d="M106.74,34.8s-13-7-6-10,10-6,15-3,4.15-1.24,9.35,4.88,11.65,15.12,6.65,15.12-6,2.52-6-.48.35-7.52-2-5.52-1,2-2,4-2-5.38-2-7-2-3-7-2c-6.33,1.27-6,4-6,4Z" transform="translate(-15.64 -16.43)"/><path class="cls-3" d="M195.74,138.8s-9-12-2-24,11-29,17-32,24-7.89,26,3-15,32.7-16,35.7-6.75,27.3-25,17.3Z" transform="translate(-15.64 -16.43)"/><path class="cls-7" d="M195.74,138.8a24,24,0,0,0,18.25,4c10.75-2,11-15.47,9.75-18-3-6-4-2-4-2s-5,22.67-24,16Z" transform="translate(-15.64 -16.43)"/><path class="cls-5" d="M220.74,121.5s5-13.7,46-8.7c6,1-1.77-2.93.66-6,14.34-1,42.34,0,47.34,0s8,.72-16,6.86-86,31.14-87,29.57c0-3.43,11-6.78,9-21.73Z" transform="translate(-15.64 -16.43)"/><path d="M199.74,95.85h2.84s19.33-27,34.17-10.52C233.74,69.8,223.4,59.4,210,59.75c-13.94,3.65-10.26,36.1-10.26,36.1Z" transform="translate(-15.64 -16.43)"/><path class="cls-2" d="M202.74,54.8c-3-.87-15,3.35-15,13a3.91,3.91,0,0,0,5.33,4c2.67-1,1.79,2,4.67,1s1,1.4,4,1.4,13-9.28,11-13.4-3-4-10-6Z" transform="translate(-15.64 -16.43)"/><path class="cls-3" d="M202.74,54.8s2.62-20,13.62-19,12.38,4,13.38,10,.5,8-1,10-14,8-16,7-2-5-10-8Z" transform="translate(-15.64 -16.43)"/><line class="cls-10" x1="431.89" y1="58.51" x2="509.4" y2="33.91"/><line class="cls-11" x1="439.64" y1="77.09" x2="562.5" y2="67.58"/><line class="cls-12" x1="432.37" y1="94.77" x2="537.17" y2="121.97"/><path class="cls-7" d="M69.3,66.09l-7-15s4-1,4-.5,7,15.5,7,15.5Z" transform="translate(-15.64 -16.43)"/></svg>